<?xml version="1.0" standalone="no"?>
<!DOCTYPE svg PUBLIC "-//W3C//DTD SVG 20010904//EN"
 "http://www.w3.org/TR/2001/REC-SVG-20010904/DTD/svg10.dtd">
<svg version="1.0" xmlns="http://www.w3.org/2000/svg"
 width="700.000000pt" height="700.000000pt" viewBox="0 0 700.000000 700.000000"
 preserveAspectRatio="xMidYMid meet">
<metadata>
Created by potrace 1.14, written by Peter Selinger 2001-2017
</metadata>
<g transform="translate(0.000000,700.000000) scale(0.100000,-0.100000)"
fill="#000000" stroke="none">
<path d="M3265 6874 c-16 -2 -79 -9 -140 -15 -483 -48 -1024 -238 -1432 -504
-133 -87 -188 -182 -186 -322 1 -124 31 -172 234 -378 194 -197 246 -237 339
-261 106 -28 154 -16 343 81 212 109 345 161 533 209 340 87 746 87 1088 1
175 -45 275 -84 491 -190 239 -119 276 -129 385 -101 36 9 88 32 116 51 83 57
387 372 419 434 71 140 46 301 -65 411 -57 57 -209 149 -415 250 -333 163
-678 266 -1055 316 -117 15 -582 28 -655 18z"/>
<path d="M870 5485 c-68 -20 -141 -66 -180 -115 -84 -106 -245 -414 -333 -636
-157 -396 -231 -790 -231 -1234 0 -444 74 -838 231 -1234 88 -222 249 -530
333 -636 66 -83 201 -138 310 -126 108 12 157 47 367 258 230 231 248 260 248
399 l0 85 -98 195 c-139 277 -202 469 -244 739 -24 159 -24 481 0 640 42 270
105 462 244 739 l98 195 0 86 c0 138 -22 174 -257 407 -155 154 -204 197 -250
218 -72 33 -164 40 -238 20z"/>
<path d="M5949 5487 c-81 -23 -131 -62 -321 -254 -152 -153 -192 -199 -214
-247 -51 -111 -42 -231 27 -348 97 -165 184 -375 234 -571 55 -215 69 -334 69
-567 0 -233 -14 -352 -69 -567 -50 -196 -137 -406 -234 -571 -69 -117 -78
-237 -27 -348 22 -48 62 -94 219 -252 213 -214 260 -247 373 -258 108 -11 238
43 304 126 84 106 245 414 333 636 157 396 231 790 231 1234 0 444 -74 838
-231 1234 -105 267 -279 584 -365 668 -81 78 -222 115 -329 85z"/>
<path d="M3275 4965 c-140 -23 -289 -70 -420 -134 -703 -344 -1019 -1167 -724
-1890 198 -485 640 -830 1162 -907 144 -21 368 -14 509 16 487 103 899 454
1077 915 214 555 80 1172 -344 1590 -202 199 -455 336 -733 396 -129 27 -399
35 -527 14z m371 -586 c365 -64 650 -341 725 -704 113 -546 -312 -1065 -871
-1065 -559 0 -984 520 -871 1065 73 354 346 627 701 700 80 16 236 19 316 4z"/>
<path d="M2058 1601 c-81 -27 -131 -67 -319 -258 -177 -180 -212 -229 -230
-329 -19 -102 19 -221 95 -299 82 -84 378 -247 636 -350 272 -109 550 -182
845 -222 183 -24 647 -24 830 0 474 64 897 208 1296 443 74 43 154 99 179 124
111 109 136 271 65 411 -32 62 -336 377 -419 433 -70 48 -153 70 -230 62 -50
-5 -98 -25 -271 -110 -358 -178 -595 -240 -960 -253 -413 -14 -744 63 -1145
269 -161 82 -181 89 -245 94 -52 3 -85 -1 -127 -15z"/>
</g>
</svg>
