<svg width="682" height="294" viewBox="0 0 682 294" fill="none" xmlns="http://www.w3.org/2000/svg">
<path d="M218.8 232.8V237.8H223.8V232.8H218.8ZM186 232.8V227.8H181V232.8H186ZM186 290V295H191V290H186ZM119.2 290H114.2V295H119.2V290ZM119.2 232.8H124.2V227.8H119.2V232.8ZM0.8 232.8H-4.2V237.8H0.8V232.8ZM0.8 184L-3.33172 181.184L-4.2 182.458V184H0.8ZM123.2 4.39998V-0.600019H120.557L119.068 1.58415L123.2 4.39998ZM186 4.39998H191V-0.600019H186V4.39998ZM186 180.8H181V185.8H186V180.8ZM218.8 180.8H223.8V175.8H218.8V180.8ZM119.2 125.6L114.206 125.362L114.2 125.481V125.6H119.2ZM119.6 109.2L114.606 108.962L114.6 109.081V109.2H119.6ZM120.4 94.8L125.389 95.1326L125.39 95.1222L125.39 95.1119L120.4 94.8ZM121.2 86.8L126.051 88.0127L127.604 81.8H121.2V86.8ZM119.2 86.8V81.8H115.903L114.604 84.8304L119.2 86.8ZM112 102L116.358 104.451L116.389 104.396L116.419 104.339L112 102ZM103.2 116.4L107.364 119.168L107.378 119.146L107.392 119.125L103.2 116.4ZM60.4 180.8L56.2358 178.032L51.0735 185.8H60.4V180.8ZM119.2 180.8V185.8H124.2V180.8H119.2ZM218.8 227.8H186V237.8H218.8V227.8ZM181 232.8V290H191V232.8H181ZM186 285H119.2V295H186V285ZM124.2 290V232.8H114.2V290H124.2ZM119.2 227.8H0.8V237.8H119.2V227.8ZM5.8 232.8V184H-4.2V232.8H5.8ZM4.93172 186.816L127.332 7.21581L119.068 1.58415L-3.33172 181.184L4.93172 186.816ZM123.2 9.39998H186V-0.600019H123.2V9.39998ZM181 4.39998V180.8H191V4.39998H181ZM186 185.8H218.8V175.8H186V185.8ZM213.8 180.8V232.8H223.8V180.8H213.8ZM124.2 139.6C124.2 139.592 124.2 139.584 124.2 139.577C124.2 139.569 124.2 139.561 124.2 139.553C124.2 139.545 124.2 139.537 124.2 139.53C124.2 139.522 124.2 139.514 124.2 139.506C124.2 139.498 124.2 139.49 124.2 139.483C124.2 139.475 124.2 139.467 124.2 139.459C124.2 139.451 124.2 139.443 124.2 139.436C124.2 139.428 124.2 139.42 124.2 139.412C124.2 139.404 124.2 139.396 124.2 139.388C124.2 139.381 124.2 139.373 124.2 139.365C124.2 139.357 124.2 139.349 124.2 139.341C124.2 139.333 124.2 139.326 124.2 139.318C124.2 139.31 124.2 139.302 124.2 139.294C124.2 139.286 124.2 139.278 124.2 139.27C124.2 139.262 124.2 139.255 124.2 139.247C124.2 139.239 124.2 139.231 124.2 139.223C124.2 139.215 124.2 139.207 124.2 139.199C124.2 139.191 124.2 139.184 124.2 139.176C124.2 139.168 124.2 139.16 124.2 139.152C124.2 139.144 124.2 139.136 124.2 139.128C124.2 139.12 124.2 139.112 124.2 139.104C124.2 139.097 124.2 139.089 124.2 139.081C124.2 139.073 124.2 139.065 124.2 139.057C124.2 139.049 124.2 139.041 124.2 139.033C124.2 139.025 124.2 139.017 124.2 139.009C124.2 139.001 124.2 138.993 124.2 138.985C124.2 138.978 124.2 138.97 124.2 138.962C124.2 138.954 124.2 138.946 124.2 138.938C124.2 138.93 124.2 138.922 124.2 138.914C124.2 138.906 124.2 138.898 124.2 138.89C124.2 138.882 124.2 138.874 124.2 138.866C124.2 138.858 124.2 138.85 124.2 138.842C124.2 138.834 124.2 138.826 124.2 138.818C124.2 138.81 124.2 138.802 124.2 138.794C124.2 138.786 124.2 138.778 124.2 138.77C124.2 138.762 124.2 138.754 124.2 138.746C124.2 138.738 124.2 138.73 124.2 138.722C124.2 138.714 124.2 138.706 124.2 138.698C124.2 138.69 124.2 138.682 124.2 138.674C124.2 138.666 124.2 138.658 124.2 138.65C124.2 138.642 124.2 138.634 124.2 138.626C124.2 138.618 124.2 138.61 124.2 138.602C124.2 138.594 124.2 138.586 124.2 138.578C124.2 138.57 124.2 138.562 124.2 138.554C124.2 138.546 124.2 138.538 124.2 138.53C124.2 138.522 124.2 138.514 124.2 138.506C124.2 138.498 124.2 138.49 124.2 138.482C124.2 138.474 124.2 138.465 124.2 138.457C124.2 138.449 124.2 138.441 124.2 138.433C124.2 138.425 124.2 138.417 124.2 138.409C124.2 138.401 124.2 138.393 124.2 138.385C124.2 138.377 124.2 138.369 124.2 138.361C124.2 138.353 124.2 138.344 124.2 138.336C124.2 138.328 124.2 138.32 124.2 138.312C124.2 138.304 124.2 138.296 124.2 138.288C124.2 138.28 124.2 138.272 124.2 138.264C124.2 138.255 124.2 138.247 124.2 138.239C124.2 138.231 124.2 138.223 124.2 138.215C124.2 138.207 124.2 138.199 124.2 138.191C124.2 138.183 124.2 138.174 124.2 138.166C124.2 138.158 124.2 138.15 124.2 138.142C124.2 138.134 124.2 138.126 124.2 138.118C124.2 138.109 124.2 138.101 124.2 138.093C124.2 138.085 124.2 138.077 124.2 138.069C124.2 138.061 124.2 138.052 124.2 138.044C124.2 138.036 124.2 138.028 124.2 138.02C124.2 138.012 124.2 138.004 124.2 137.995C124.2 137.987 124.2 137.979 124.2 137.971C124.2 137.963 124.2 137.955 124.2 137.946C124.2 137.938 124.2 137.93 124.2 137.922C124.2 137.914 124.2 137.906 124.2 137.897C124.2 137.889 124.2 137.881 124.2 137.873C124.2 137.865 124.2 137.857 124.2 137.848C124.2 137.84 124.2 137.832 124.2 137.824C124.2 137.816 124.2 137.807 124.2 137.799C124.2 137.791 124.2 137.783 124.2 137.775C124.2 137.766 124.2 137.758 124.2 137.75C124.2 137.742 124.2 137.734 124.2 137.725C124.2 137.717 124.2 137.709 124.2 137.701C124.2 137.693 124.2 137.684 124.2 137.676C124.2 137.668 124.2 137.66 124.2 137.651C124.2 137.643 124.2 137.635 124.2 137.627C124.2 137.619 124.2 137.61 124.2 137.602C124.2 137.594 124.2 137.586 124.2 137.577C124.2 137.569 124.2 137.561 124.2 137.553C124.2 137.544 124.2 137.536 124.2 137.528C124.2 137.52 124.2 137.511 124.2 137.503C124.2 137.495 124.2 137.487 124.2 137.478C124.2 137.47 124.2 137.462 124.2 137.454C124.2 137.445 124.2 137.437 124.2 137.429C124.2 137.421 124.2 137.412 124.2 137.404C124.2 137.396 124.2 137.387 124.2 137.379C124.2 137.371 124.2 137.363 124.2 137.354C124.2 137.346 124.2 137.338 124.2 137.329C124.2 137.321 124.2 137.313 124.2 137.305C124.2 137.296 124.2 137.288 124.2 137.28C124.2 137.271 124.2 137.263 124.2 137.255C124.2 137.246 124.2 137.238 124.2 137.23C124.2 137.222 124.2 137.213 124.2 137.205C124.2 137.197 124.2 137.188 124.2 137.18C124.2 137.172 124.2 137.163 124.2 137.155C124.2 137.147 124.2 137.138 124.2 137.13C124.2 137.122 124.2 137.113 124.2 137.105C124.2 137.097 124.2 137.088 124.2 137.08C124.2 137.072 124.2 137.063 124.2 137.055C124.2 137.047 124.2 137.038 124.2 137.03C124.2 137.022 124.2 137.013 124.2 137.005C124.2 136.996 124.2 136.988 124.2 136.98C124.2 136.971 124.2 136.963 124.2 136.955C124.2 136.946 124.2 136.938 124.2 136.93C124.2 136.921 124.2 136.913 124.2 136.904C124.2 136.896 124.2 136.888 124.2 136.879C124.2 136.871 124.2 136.863 124.2 136.854C124.2 136.846 124.2 136.837 124.2 136.829C124.2 136.821 124.2 136.812 124.2 136.804C124.2 136.795 124.2 136.787 124.2 136.779C124.2 136.77 124.2 136.762 124.2 136.753C124.2 136.745 124.2 136.737 124.2 136.728C124.2 136.72 124.2 136.711 124.2 136.703C124.2 136.694 124.2 136.686 124.2 136.678C124.2 136.669 124.2 136.661 124.2 136.652C124.2 136.644 124.2 136.635 124.2 136.627C124.2 136.619 124.2 136.61 124.2 136.602C124.2 136.593 124.2 136.585 124.2 136.576C124.2 136.568 124.2 136.56 124.2 136.551C124.2 136.543 124.2 136.534 124.2 136.526C124.2 136.517 124.2 136.509 124.2 136.5C124.2 136.492 124.2 136.483 124.2 136.475C124.2 136.467 124.2 136.458 124.2 136.45C124.2 136.441 124.2 136.433 124.2 136.424C124.2 136.416 124.2 136.407 124.2 136.399C124.2 136.39 124.2 136.382 124.2 136.373C124.2 136.365 124.2 136.356 124.2 136.348C124.2 136.339 124.2 136.331 124.2 136.322C124.2 136.314 124.2 136.305 124.2 136.297C124.2 136.288 124.2 136.28 124.2 136.271C124.2 136.263 124.2 136.254 124.2 136.246C124.2 136.237 124.2 136.229 124.2 136.22C124.2 136.212 124.2 136.203 124.2 136.195C124.2 136.186 124.2 136.178 124.2 136.169C124.2 136.161 124.2 136.152 124.2 136.144C124.2 136.135 124.2 136.127 124.2 136.118C124.2 136.109 124.2 136.101 124.2 136.092C124.2 136.084 124.2 136.075 124.2 136.067C124.2 136.058 124.2 136.05 124.2 136.041C124.2 136.033 124.2 136.024 124.2 136.015C124.2 136.007 124.2 135.998 124.2 135.99C124.2 135.981 124.2 135.973 124.2 135.964C124.2 135.956 124.2 135.947 124.2 135.938C124.2 135.93 124.2 135.921 124.2 135.913C124.2 135.904 124.2 135.896 124.2 135.887C124.2 135.878 124.2 135.87 124.2 135.861C124.2 135.853 124.2 135.844 124.2 135.835C124.2 135.827 124.2 135.818 124.2 135.81C124.2 135.801 124.2 135.792 124.2 135.784C124.2 135.775 124.2 135.767 124.2 135.758C124.2 135.749 124.2 135.741 124.2 135.732C124.2 135.724 124.2 135.715 124.2 135.706C124.2 135.698 124.2 135.689 124.2 135.681C124.2 135.672 124.2 135.663 124.2 135.655C124.2 135.646 124.2 135.637 124.2 135.629C124.2 135.62 124.2 135.612 124.2 135.603C124.2 135.594 124.2 135.586 124.2 135.577C124.2 135.568 124.2 135.56 124.2 135.551C124.2 135.542 124.2 135.534 124.2 135.525C124.2 135.516 124.2 135.508 124.2 135.499C124.2 135.49 124.2 135.482 124.2 135.473C124.2 135.464 124.2 135.456 124.2 135.447C124.2 135.438 124.2 135.43 124.2 135.421C124.2 135.412 124.2 135.404 124.2 135.395C124.2 135.386 124.2 135.378 124.2 135.369C124.2 135.36 124.2 135.352 124.2 135.343C124.2 135.334 124.2 135.326 124.2 135.317C124.2 135.308 124.2 135.3 124.2 135.291C124.2 135.282 124.2 135.273 124.2 135.265C124.2 135.256 124.2 135.247 124.2 135.239C124.2 135.23 124.2 135.221 124.2 135.213C124.2 135.204 124.2 135.195 124.2 135.186C124.2 135.178 124.2 135.169 124.2 135.16C124.2 135.152 124.2 135.143 124.2 135.134C124.2 135.125 124.2 135.117 124.2 135.108C124.2 135.099 124.2 135.09 124.2 135.082C124.2 135.073 124.2 135.064 124.2 135.055C124.2 135.047 124.2 135.038 124.2 135.029C124.2 135.02 124.2 135.012 124.2 135.003C124.2 134.994 124.2 134.985 124.2 134.977C124.2 134.968 124.2 134.959 124.2 134.95C124.2 134.942 124.2 134.933 124.2 134.924C124.2 134.915 124.2 134.907 124.2 134.898C124.2 134.889 124.2 134.88 124.2 134.871C124.2 134.863 124.2 134.854 124.2 134.845C124.2 134.836 124.2 134.828 124.2 134.819C124.2 134.81 124.2 134.801 124.2 134.792C124.2 134.784 124.2 134.775 124.2 134.766C124.2 134.757 124.2 134.748 124.2 134.74C124.2 134.731 124.2 134.722 124.2 134.713C124.2 134.704 124.2 134.696 124.2 134.687C124.2 134.678 124.2 134.669 124.2 134.66C124.2 134.651 124.2 134.643 124.2 134.634C124.2 134.625 124.2 134.616 124.2 134.607C124.2 134.598 124.2 134.59 124.2 134.581C124.2 134.572 124.2 134.563 124.2 134.554C124.2 134.545 124.2 134.537 124.2 134.528C124.2 134.519 124.2 134.51 124.2 134.501C124.2 134.492 124.2 134.484 124.2 134.475C124.2 134.466 124.2 134.457 124.2 134.448C124.2 134.439 124.2 134.43 124.2 134.422C124.2 134.413 124.2 134.404 124.2 134.395C124.2 134.386 124.2 134.377 124.2 134.368C124.2 134.359 124.2 134.351 124.2 134.342C124.2 134.333 124.2 134.324 124.2 134.315C124.2 134.306 124.2 134.297 124.2 134.288C124.2 134.279 124.2 134.271 124.2 134.262C124.2 134.253 124.2 134.244 124.2 134.235C124.2 134.226 124.2 134.217 124.2 134.208C124.2 134.199 124.2 134.19 124.2 134.182C124.2 134.173 124.2 134.164 124.2 134.155C124.2 134.146 124.2 134.137 124.2 134.128C124.2 134.119 124.2 134.11 124.2 134.101C124.2 134.092 124.2 134.083 124.2 134.074C124.2 134.066 124.2 134.057 124.2 134.048C124.2 134.039 124.2 134.03 124.2 134.021C124.2 134.012 124.2 134.003 124.2 133.994C124.2 133.985 124.2 133.976 124.2 133.967C124.2 133.958 124.2 133.949 124.2 133.94C124.2 133.931 124.2 133.922 124.2 133.913C124.2 133.904 124.2 133.896 124.2 133.887C124.2 133.878 124.2 133.869 124.2 133.86C124.2 133.851 124.2 133.842 124.2 133.833C124.2 133.824 124.2 133.815 124.2 133.806C124.2 133.797 124.2 133.788 124.2 133.779C124.2 133.77 124.2 133.761 124.2 133.752C124.2 133.743 124.2 133.734 124.2 133.725C124.2 133.716 124.2 133.707 124.2 133.698C124.2 133.689 124.2 133.68 124.2 133.671C124.2 133.662 124.2 133.653 124.2 133.644C124.2 133.635 124.2 133.626 124.2 133.617C124.2 133.608 124.2 133.599 124.2 133.59C124.2 133.581 124.2 133.572 124.2 133.563C124.2 133.554 124.2 133.545 124.2 133.536C124.2 133.527 124.2 133.517 124.2 133.508C124.2 133.499 124.2 133.49 124.2 133.481C124.2 133.472 124.2 133.463 124.2 133.454C124.2 133.445 124.2 133.436 124.2 133.427C124.2 133.418 124.2 133.409 124.2 133.4C124.2 133.391 124.2 133.382 124.2 133.373C124.2 133.364 124.2 133.355 124.2 133.345C124.2 133.336 124.2 133.327 124.2 133.318C124.2 133.309 124.2 133.3 124.2 133.291C124.2 133.282 124.2 133.273 124.2 133.264C124.2 133.255 124.2 133.246 124.2 133.237C124.2 133.227 124.2 133.218 124.2 133.209C124.2 133.2 124.2 133.191 124.2 133.182C124.2 133.173 124.2 133.164 124.2 133.155C124.2 133.146 124.2 133.136 124.2 133.127C124.2 133.118 124.2 133.109 124.2 133.1C124.2 133.091 124.2 133.082 124.2 133.073C124.2 133.064 124.2 133.054 124.2 133.045C124.2 133.036 124.2 133.027 124.2 133.018C124.2 133.009 124.2 133 124.2 132.99C124.2 132.981 124.2 132.972 124.2 132.963C124.2 132.954 124.2 132.945 124.2 132.936C124.2 132.927 124.2 132.917 124.2 132.908C124.2 132.899 124.2 132.89 124.2 132.881C124.2 132.872 124.2 132.862 124.2 132.853C124.2 132.844 124.2 132.835 124.2 132.826C124.2 132.817 124.2 132.807 124.2 132.798C124.2 132.789 124.2 132.78 124.2 132.771C124.2 132.762 124.2 132.752 124.2 132.743C124.2 132.734 124.2 132.725 124.2 132.716C124.2 132.706 124.2 132.697 124.2 132.688C124.2 132.679 124.2 132.67 124.2 132.661C124.2 132.651 124.2 132.642 124.2 132.633C124.2 132.624 124.2 132.615 124.2 132.605C124.2 132.596 124.2 132.587 124.2 132.578C124.2 132.568 124.2 132.559 124.2 132.55C124.2 132.541 124.2 132.532 124.2 132.522C124.2 132.513 124.2 132.504 124.2 132.495C124.2 132.486 124.2 132.476 124.2 132.467C124.2 132.458 124.2 132.449 124.2 132.439C124.2 132.43 124.2 132.421 124.2 132.412C124.2 132.402 124.2 132.393 124.2 132.384C124.2 132.375 124.2 132.365 124.2 132.356C124.2 132.347 124.2 132.338 124.2 132.328C124.2 132.319 124.2 132.31 124.2 132.301C124.2 132.291 124.2 132.282 124.2 132.273C124.2 132.264 124.2 132.254 124.2 132.245C124.2 132.236 124.2 132.226 124.2 132.217C124.2 132.208 124.2 132.199 124.2 132.189C124.2 132.18 124.2 132.171 124.2 132.161C124.2 132.152 124.2 132.143 124.2 132.134C124.2 132.124 124.2 132.115 124.2 132.106C124.2 132.096 124.2 132.087 124.2 132.078C124.2 132.069 124.2 132.059 124.2 132.05C124.2 132.041 124.2 132.031 124.2 132.022C124.2 132.013 124.2 132.003 124.2 131.994C124.2 131.985 124.2 131.975 124.2 131.966C124.2 131.957 124.2 131.947 124.2 131.938C124.2 131.929 124.2 131.919 124.2 131.91C124.2 131.901 124.2 131.891 124.2 131.882C124.2 131.873 124.2 131.863 124.2 131.854C124.2 131.845 124.2 131.835 124.2 131.826C124.2 131.817 124.2 131.807 124.2 131.798C124.2 131.789 124.2 131.779 124.2 131.77C124.2 131.761 124.2 131.751 124.2 131.742C124.2 131.732 124.2 131.723 124.2 131.714C124.2 131.704 124.2 131.695 124.2 131.686C124.2 131.676 124.2 131.667 124.2 131.657C124.2 131.648 124.2 131.639 124.2 131.629C124.2 131.62 124.2 131.611 124.2 131.601C124.2 131.592 124.2 131.582 124.2 131.573C124.2 131.564 124.2 131.554 124.2 131.545C124.2 131.535 124.2 131.526 124.2 131.517C124.2 131.507 124.2 131.498 124.2 131.488C124.2 131.479 124.2 131.47 124.2 131.46C124.2 131.451 124.2 131.441 124.2 131.432C124.2 131.422 124.2 131.413 124.2 131.404C124.2 131.394 124.2 131.385 124.2 131.375C124.2 131.366 124.2 131.356 124.2 131.347C124.2 131.338 124.2 131.328 124.2 131.319C124.2 131.309 124.2 131.3 124.2 131.29C124.2 131.281 124.2 131.272 124.2 131.262C124.2 131.253 124.2 131.243 124.2 131.234C124.2 131.224 124.2 131.215 124.2 131.205C124.2 131.196 124.2 131.186 124.2 131.177C124.2 131.167 124.2 131.158 124.2 131.149C124.2 131.139 124.2 131.13 124.2 131.12C124.2 131.111 124.2 131.101 124.2 131.092C124.2 131.082 124.2 131.073 124.2 131.063C124.2 131.054 124.2 131.044 124.2 131.035C124.2 131.025 124.2 131.016 124.2 131.006C124.2 130.997 124.2 130.987 124.2 130.978C124.2 130.968 124.2 130.959 124.2 130.949C124.2 130.94 124.2 130.93 124.2 130.921C124.2 130.911 124.2 130.902 124.2 130.892C124.2 130.883 124.2 130.873 124.2 130.864C124.2 130.854 124.2 130.845 124.2 130.835C124.2 130.826 124.2 130.816 124.2 130.807C124.2 130.797 124.2 130.787 124.2 130.778C124.2 130.768 124.2 130.759 124.2 130.749C124.2 130.74 124.2 130.73 124.2 130.721C124.2 130.711 124.2 130.702 124.2 130.692C124.2 130.682 124.2 130.673 124.2 130.663C124.2 130.654 124.2 130.644 124.2 130.635C124.2 130.625 124.2 130.616 124.2 130.606C124.2 130.596 124.2 130.587 124.2 130.577C124.2 130.568 124.2 130.558 124.2 130.549C124.2 130.539 124.2 130.529 124.2 130.52C124.2 130.51 124.2 130.501 124.2 130.491C124.2 130.481 124.2 130.472 124.2 130.462C124.2 130.453 124.2 130.443 124.2 130.433C124.2 130.424 124.2 130.414 124.2 130.405C124.2 130.395 124.2 130.385 124.2 130.376C124.2 130.366 124.2 130.357 124.2 130.347C124.2 130.337 124.2 130.328 124.2 130.318C124.2 130.309 124.2 130.299 124.2 130.289C124.2 130.28 124.2 130.27 124.2 130.26C124.2 130.251 124.2 130.241 124.2 130.232C124.2 130.222 124.2 130.212 124.2 130.203C124.2 130.193 124.2 130.183 124.2 130.174C124.2 130.164 124.2 130.154 124.2 130.145C124.2 130.135 124.2 130.125 124.2 130.116C124.2 130.106 124.2 130.097 124.2 130.087C124.2 130.077 124.2 130.068 124.2 130.058C124.2 130.048 124.2 130.039 124.2 130.029C124.2 130.019 124.2 130.01 124.2 130C124.2 129.99 124.2 129.981 124.2 129.971C124.2 129.961 124.2 129.951 124.2 129.942C124.2 129.932 124.2 129.922 124.2 129.913C124.2 129.903 124.2 129.893 124.2 129.884C124.2 129.874 124.2 129.864 124.2 129.855C124.2 129.845 124.2 129.835 124.2 129.825C124.2 129.816 124.2 129.806 124.2 129.796C124.2 129.787 124.2 129.777 124.2 129.767C124.2 129.757 124.2 129.748 124.2 129.738C124.2 129.728 124.2 129.719 124.2 129.709C124.2 129.699 124.2 129.689 124.2 129.68C124.2 129.67 124.2 129.66 124.2 129.65C124.2 129.641 124.2 129.631 124.2 129.621C124.2 129.612 124.2 129.602 124.2 129.592C124.2 129.582 124.2 129.573 124.2 129.563C124.2 129.553 124.2 129.543 124.2 129.534C124.2 129.524 124.2 129.514 124.2 129.504C124.2 129.495 124.2 129.485 124.2 129.475C124.2 129.465 124.2 129.455 124.2 129.446C124.2 129.436 124.2 129.426 124.2 129.416C124.2 129.407 124.2 129.397 124.2 129.387C124.2 129.377 124.2 129.367 124.2 129.358C124.2 129.348 124.2 129.338 124.2 129.328C124.2 129.319 124.2 129.309 124.2 129.299C124.2 129.289 124.2 129.279 124.2 129.27C124.2 129.26 124.2 129.25 124.2 129.24C124.2 129.23 124.2 129.221 124.2 129.211C124.2 129.201 124.2 129.191 124.2 129.181C124.2 129.171 124.2 129.162 124.2 129.152C124.2 129.142 124.2 129.132 124.2 129.122C124.2 129.113 124.2 129.103 124.2 129.093C124.2 129.083 124.2 129.073 124.2 129.063C124.2 129.054 124.2 129.044 124.2 129.034C124.2 129.024 124.2 129.014 124.2 129.004C124.2 128.994 124.2 128.985 124.2 128.975C124.2 128.965 124.2 128.955 124.2 128.945C124.2 128.935 124.2 128.925 124.2 128.916C124.2 128.906 124.2 128.896 124.2 128.886C124.2 128.876 124.2 128.866 124.2 128.856C124.2 128.847 124.2 128.837 124.2 128.827C124.2 128.817 124.2 128.807 124.2 128.797C124.2 128.787 124.2 128.777 124.2 128.767C124.2 128.758 124.2 128.748 124.2 128.738C124.2 128.728 124.2 128.718 124.2 128.708C124.2 128.698 124.2 128.688 124.2 128.678C124.2 128.669 124.2 128.659 124.2 128.649C124.2 128.639 124.2 128.629 124.2 128.619C124.2 128.609 124.2 128.599 124.2 128.589C124.2 128.579 124.2 128.569 124.2 128.559C124.2 128.55 124.2 128.54 124.2 128.53C124.2 128.52 124.2 128.51 124.2 128.5C124.2 128.49 124.2 128.48 124.2 128.47C124.2 128.46 124.2 128.45 124.2 128.44C124.2 128.43 124.2 128.42 124.2 128.41C124.2 128.4 124.2 128.391 124.2 128.381C124.2 128.371 124.2 128.361 124.2 128.351C124.2 128.341 124.2 128.331 124.2 128.321C124.2 128.311 124.2 128.301 124.2 128.291C124.2 128.281 124.2 128.271 124.2 128.261C124.2 128.251 124.2 128.241 124.2 128.231C124.2 128.221 124.2 128.211 124.2 128.201C124.2 128.191 124.2 128.181 124.2 128.171C124.2 128.161 124.2 128.151 124.2 128.141C124.2 128.131 124.2 128.121 124.2 128.111C124.2 128.101 124.2 128.091 124.2 128.081C124.2 128.071 124.2 128.061 124.2 128.051C124.2 128.041 124.2 128.031 124.2 128.021C124.2 128.011 124.2 128.001 124.2 127.991C124.2 127.981 124.2 127.971 124.2 127.961C124.2 127.951 124.2 127.941 124.2 127.931C124.2 127.921 124.2 127.911 124.2 127.901C124.2 127.891 124.2 127.881 124.2 127.871C124.2 127.861 124.2 127.851 124.2 127.841C124.2 127.831 124.2 127.82 124.2 127.81C124.2 127.8 124.2 127.79 124.2 127.78C124.2 127.77 124.2 127.76 124.2 127.75C124.2 127.74 124.2 127.73 124.2 127.72C124.2 127.71 124.2 127.7 124.2 127.69C124.2 127.68 124.2 127.67 124.2 127.659C124.2 127.649 124.2 127.639 124.2 127.629C124.2 127.619 124.2 127.609 124.2 127.599C124.2 127.589 124.2 127.579 124.2 127.569C124.2 127.559 124.2 127.549 124.2 127.538C124.2 127.528 124.2 127.518 124.2 127.508C124.2 127.498 124.2 127.488 124.2 127.478C124.2 127.468 124.2 127.458 124.2 127.448C124.2 127.437 124.2 127.427 124.2 127.417C124.2 127.407 124.2 127.397 124.2 127.387C124.2 127.377 124.2 127.367 124.2 127.356C124.2 127.346 124.2 127.336 124.2 127.326C124.2 127.316 124.2 127.306 124.2 127.296C124.2 127.286 124.2 127.275 124.2 127.265C124.2 127.255 124.2 127.245 124.2 127.235C124.2 127.225 124.2 127.215 124.2 127.204C124.2 127.194 124.2 127.184 124.2 127.174C124.2 127.164 124.2 127.154 124.2 127.143C124.2 127.133 124.2 127.123 124.2 127.113C124.2 127.103 124.2 127.093 124.2 127.082C124.2 127.072 124.2 127.062 124.2 127.052C124.2 127.042 124.2 127.032 124.2 127.021C124.2 127.011 124.2 127.001 124.2 126.991C124.2 126.981 124.2 126.97 124.2 126.96C124.2 126.95 124.2 126.94 124.2 126.93C124.2 126.919 124.2 126.909 124.2 126.899C124.2 126.889 124.2 126.879 124.2 126.868C124.2 126.858 124.2 126.848 124.2 126.838C124.2 126.828 124.2 126.817 124.2 126.807C124.2 126.797 124.2 126.787 124.2 126.776C124.2 126.766 124.2 126.756 124.2 126.746C124.2 126.736 124.2 126.725 124.2 126.715C124.2 126.705 124.2 126.695 124.2 126.684C124.2 126.674 124.2 126.664 124.2 126.654C124.2 126.643 124.2 126.633 124.2 126.623C124.2 126.613 124.2 126.602 124.2 126.592C124.2 126.582 124.2 126.572 124.2 126.561C124.2 126.551 124.2 126.541 124.2 126.531C124.2 126.52 124.2 126.51 124.2 126.5C124.2 126.49 124.2 126.479 124.2 126.469C124.2 126.459 124.2 126.448 124.2 126.438C124.2 126.428 124.2 126.418 124.2 126.407C124.2 126.397 124.2 126.387 124.2 126.376C124.2 126.366 124.2 126.356 124.2 126.346C124.2 126.335 124.2 126.325 124.2 126.315C124.2 126.304 124.2 126.294 124.2 126.284C124.2 126.273 124.2 126.263 124.2 126.253C124.2 126.243 124.2 126.232 124.2 126.222C124.2 126.212 124.2 126.201 124.2 126.191C124.2 126.181 124.2 126.17 124.2 126.16C124.2 126.15 124.2 126.139 124.2 126.129C124.2 126.119 124.2 126.108 124.2 126.098C124.2 126.088 124.2 126.077 124.2 126.067C124.2 126.057 124.2 126.046 124.2 126.036C124.2 126.026 124.2 126.015 124.2 126.005C124.2 125.995 124.2 125.984 124.2 125.974C124.2 125.964 124.2 125.953 124.2 125.943C124.2 125.932 124.2 125.922 124.2 125.912C124.2 125.901 124.2 125.891 124.2 125.881C124.2 125.87 124.2 125.86 124.2 125.85C124.2 125.839 124.2 125.829 124.2 125.818C124.2 125.808 124.2 125.798 124.2 125.787C124.2 125.777 124.2 125.766 124.2 125.756C124.2 125.746 124.2 125.735 124.2 125.725C124.2 125.714 124.2 125.704 124.2 125.694C124.2 125.683 124.2 125.673 124.2 125.662C124.2 125.652 124.2 125.642 124.2 125.631C124.2 125.621 124.2 125.61 124.2 125.6H114.2C114.2 125.61 114.2 125.621 114.2 125.631C114.2 125.642 114.2 125.652 114.2 125.662C114.2 125.673 114.2 125.683 114.2 125.694C114.2 125.704 114.2 125.714 114.2 125.725C114.2 125.735 114.2 125.746 114.2 125.756C114.2 125.766 114.2 125.777 114.2 125.787C114.2 125.798 114.2 125.808 114.2 125.818C114.2 125.829 114.2 125.839 114.2 125.85C114.2 125.86 114.2 125.87 114.2 125.881C114.2 125.891 114.2 125.901 114.2 125.912C114.2 125.922 114.2 125.932 114.2 125.943C114.2 125.953 114.2 125.964 114.2 125.974C114.2 125.984 114.2 125.995 114.2 126.005C114.2 126.015 114.2 126.026 114.2 126.036C114.2 126.046 114.2 126.057 114.2 126.067C114.2 126.077 114.2 126.088 114.2 126.098C114.2 126.108 114.2 126.119 114.2 126.129C114.2 126.139 114.2 126.15 114.2 126.16C114.2 126.17 114.2 126.181 114.2 126.191C114.2 126.201 114.2 126.212 114.2 126.222C114.2 126.232 114.2 126.243 114.2 126.253C114.2 126.263 114.2 126.273 114.2 126.284C114.2 126.294 114.2 126.304 114.2 126.315C114.2 126.325 114.2 126.335 114.2 126.346C114.2 126.356 114.2 126.366 114.2 126.376C114.2 126.387 114.2 126.397 114.2 126.407C114.2 126.418 114.2 126.428 114.2 126.438C114.2 126.448 114.2 126.459 114.2 126.469C114.2 126.479 114.2 126.49 114.2 126.5C114.2 126.51 114.2 126.52 114.2 126.531C114.2 126.541 114.2 126.551 114.2 126.561C114.2 126.572 114.2 126.582 114.2 126.592C114.2 126.602 114.2 126.613 114.2 126.623C114.2 126.633 114.2 126.643 114.2 126.654C114.2 126.664 114.2 126.674 114.2 126.684C114.2 126.695 114.2 126.705 114.2 126.715C114.2 126.725 114.2 126.736 114.2 126.746C114.2 126.756 114.2 126.766 114.2 126.776C114.2 126.787 114.2 126.797 114.2 126.807C114.2 126.817 114.2 126.828 114.2 126.838C114.2 126.848 114.2 126.858 114.2 126.868C114.2 126.879 114.2 126.889 114.2 126.899C114.2 126.909 114.2 126.919 114.2 126.93C114.2 126.94 114.2 126.95 114.2 126.96C114.2 126.97 114.2 126.981 114.2 126.991C114.2 127.001 114.2 127.011 114.2 127.021C114.2 127.032 114.2 127.042 114.2 127.052C114.2 127.062 114.2 127.072 114.2 127.082C114.2 127.093 114.2 127.103 114.2 127.113C114.2 127.123 114.2 127.133 114.2 127.143C114.2 127.154 114.2 127.164 114.2 127.174C114.2 127.184 114.2 127.194 114.2 127.204C114.2 127.215 114.2 127.225 114.2 127.235C114.2 127.245 114.2 127.255 114.2 127.265C114.2 127.275 114.2 127.286 114.2 127.296C114.2 127.306 114.2 127.316 114.2 127.326C114.2 127.336 114.2 127.346 114.2 127.356C114.2 127.367 114.2 127.377 114.2 127.387C114.2 127.397 114.2 127.407 114.2 127.417C114.2 127.427 114.2 127.437 114.2 127.448C114.2 127.458 114.2 127.468 114.2 127.478C114.2 127.488 114.2 127.498 114.2 127.508C114.2 127.518 114.2 127.528 114.2 127.538C114.2 127.549 114.2 127.559 114.2 127.569C114.2 127.579 114.2 127.589 114.2 127.599C114.2 127.609 114.2 127.619 114.2 127.629C114.2 127.639 114.2 127.649 114.2 127.659C114.2 127.67 114.2 127.68 114.2 127.69C114.2 127.7 114.2 127.71 114.2 127.72C114.2 127.73 114.2 127.74 114.2 127.75C114.2 127.76 114.2 127.77 114.2 127.78C114.2 127.79 114.2 127.8 114.2 127.81C114.2 127.82 114.2 127.831 114.2 127.841C114.2 127.851 114.2 127.861 114.2 127.871C114.2 127.881 114.2 127.891 114.2 127.901C114.2 127.911 114.2 127.921 114.2 127.931C114.2 127.941 114.2 127.951 114.2 127.961C114.2 127.971 114.2 127.981 114.2 127.991C114.2 128.001 114.2 128.011 114.2 128.021C114.2 128.031 114.2 128.041 114.2 128.051C114.2 128.061 114.2 128.071 114.2 128.081C114.2 128.091 114.2 128.101 114.2 128.111C114.2 128.121 114.2 128.131 114.2 128.141C114.2 128.151 114.2 128.161 114.2 128.171C114.2 128.181 114.2 128.191 114.2 128.201C114.2 128.211 114.2 128.221 114.2 128.231C114.2 128.241 114.2 128.251 114.2 128.261C114.2 128.271 114.2 128.281 114.2 128.291C114.2 128.301 114.2 128.311 114.2 128.321C114.2 128.331 114.2 128.341 114.2 128.351C114.2 128.361 114.2 128.371 114.2 128.381C114.2 128.391 114.2 128.4 114.2 128.41C114.2 128.42 114.2 128.43 114.2 128.44C114.2 128.45 114.2 128.46 114.2 128.47C114.2 128.48 114.2 128.49 114.2 128.5C114.2 128.51 114.2 128.52 114.2 128.53C114.2 128.54 114.2 128.55 114.2 128.559C114.2 128.569 114.2 128.579 114.2 128.589C114.2 128.599 114.2 128.609 114.2 128.619C114.2 128.629 114.2 128.639 114.2 128.649C114.2 128.659 114.2 128.669 114.2 128.678C114.2 128.688 114.2 128.698 114.2 128.708C114.2 128.718 114.2 128.728 114.2 128.738C114.2 128.748 114.2 128.758 114.2 128.767C114.2 128.777 114.2 128.787 114.2 128.797C114.2 128.807 114.2 128.817 114.2 128.827C114.2 128.837 114.2 128.847 114.2 128.856C114.2 128.866 114.2 128.876 114.2 128.886C114.2 128.896 114.2 128.906 114.2 128.916C114.2 128.925 114.2 128.935 114.2 128.945C114.2 128.955 114.2 128.965 114.2 128.975C114.2 128.985 114.2 128.994 114.2 129.004C114.2 129.014 114.2 129.024 114.2 129.034C114.2 129.044 114.2 129.054 114.2 129.063C114.2 129.073 114.2 129.083 114.2 129.093C114.2 129.103 114.2 129.113 114.2 129.122C114.2 129.132 114.2 129.142 114.2 129.152C114.2 129.162 114.2 129.171 114.2 129.181C114.2 129.191 114.2 129.201 114.2 129.211C114.2 129.221 114.2 129.23 114.2 129.24C114.2 129.25 114.2 129.26 114.2 129.27C114.2 129.279 114.2 129.289 114.2 129.299C114.2 129.309 114.2 129.319 114.2 129.328C114.2 129.338 114.2 129.348 114.2 129.358C114.2 129.367 114.2 129.377 114.2 129.387C114.2 129.397 114.2 129.407 114.2 129.416C114.2 129.426 114.2 129.436 114.2 129.446C114.2 129.455 114.2 129.465 114.2 129.475C114.2 129.485 114.2 129.495 114.2 129.504C114.2 129.514 114.2 129.524 114.2 129.534C114.2 129.543 114.2 129.553 114.2 129.563C114.2 129.573 114.2 129.582 114.2 129.592C114.2 129.602 114.2 129.612 114.2 129.621C114.2 129.631 114.2 129.641 114.2 129.65C114.2 129.66 114.2 129.67 114.2 129.68C114.2 129.689 114.2 129.699 114.2 129.709C114.2 129.719 114.2 129.728 114.2 129.738C114.2 129.748 114.2 129.757 114.2 129.767C114.2 129.777 114.2 129.787 114.2 129.796C114.2 129.806 114.2 129.816 114.2 129.825C114.2 129.835 114.2 129.845 114.2 129.855C114.2 129.864 114.2 129.874 114.2 129.884C114.2 129.893 114.2 129.903 114.2 129.913C114.2 129.922 114.2 129.932 114.2 129.942C114.2 129.951 114.2 129.961 114.2 129.971C114.2 129.981 114.2 129.99 114.2 130C114.2 130.01 114.2 130.019 114.2 130.029C114.2 130.039 114.2 130.048 114.2 130.058C114.2 130.068 114.2 130.077 114.2 130.087C114.2 130.097 114.2 130.106 114.2 130.116C114.2 130.125 114.2 130.135 114.2 130.145C114.2 130.154 114.2 130.164 114.2 130.174C114.2 130.183 114.2 130.193 114.2 130.203C114.2 130.212 114.2 130.222 114.2 130.232C114.2 130.241 114.2 130.251 114.2 130.26C114.2 130.27 114.2 130.28 114.2 130.289C114.2 130.299 114.2 130.309 114.2 130.318C114.2 130.328 114.2 130.337 114.2 130.347C114.2 130.357 114.2 130.366 114.2 130.376C114.2 130.385 114.2 130.395 114.2 130.405C114.2 130.414 114.2 130.424 114.2 130.433C114.2 130.443 114.2 130.453 114.2 130.462C114.2 130.472 114.2 130.481 114.2 130.491C114.2 130.501 114.2 130.51 114.2 130.52C114.2 130.529 114.2 130.539 114.2 130.549C114.2 130.558 114.2 130.568 114.2 130.577C114.2 130.587 114.2 130.596 114.2 130.606C114.2 130.616 114.2 130.625 114.2 130.635C114.2 130.644 114.2 130.654 114.2 130.663C114.2 130.673 114.2 130.682 114.2 130.692C114.2 130.702 114.2 130.711 114.2 130.721C114.2 130.73 114.2 130.74 114.2 130.749C114.2 130.759 114.2 130.768 114.2 130.778C114.2 130.787 114.2 130.797 114.2 130.807C114.2 130.816 114.2 130.826 114.2 130.835C114.2 130.845 114.2 130.854 114.2 130.864C114.2 130.873 114.2 130.883 114.2 130.892C114.2 130.902 114.2 130.911 114.2 130.921C114.2 130.93 114.2 130.94 114.2 130.949C114.2 130.959 114.2 130.968 114.2 130.978C114.2 130.987 114.2 130.997 114.2 131.006C114.2 131.016 114.2 131.025 114.2 131.035C114.2 131.044 114.2 131.054 114.2 131.063C114.2 131.073 114.2 131.082 114.2 131.092C114.2 131.101 114.2 131.111 114.2 131.12C114.2 131.13 114.2 131.139 114.2 131.149C114.2 131.158 114.2 131.167 114.2 131.177C114.2 131.186 114.2 131.196 114.2 131.205C114.2 131.215 114.2 131.224 114.2 131.234C114.2 131.243 114.2 131.253 114.2 131.262C114.2 131.272 114.2 131.281 114.2 131.29C114.2 131.3 114.2 131.309 114.2 131.319C114.2 131.328 114.2 131.338 114.2 131.347C114.2 131.356 114.2 131.366 114.2 131.375C114.2 131.385 114.2 131.394 114.2 131.404C114.2 131.413 114.2 131.422 114.2 131.432C114.2 131.441 114.2 131.451 114.2 131.46C114.2 131.47 114.2 131.479 114.2 131.488C114.2 131.498 114.2 131.507 114.2 131.517C114.2 131.526 114.2 131.535 114.2 131.545C114.2 131.554 114.2 131.564 114.2 131.573C114.2 131.582 114.2 131.592 114.2 131.601C114.2 131.611 114.2 131.62 114.2 131.629C114.2 131.639 114.2 131.648 114.2 131.657C114.2 131.667 114.2 131.676 114.2 131.686C114.2 131.695 114.2 131.704 114.2 131.714C114.2 131.723 114.2 131.732 114.2 131.742C114.2 131.751 114.2 131.761 114.2 131.77C114.2 131.779 114.2 131.789 114.2 131.798C114.2 131.807 114.2 131.817 114.2 131.826C114.2 131.835 114.2 131.845 114.2 131.854C114.2 131.863 114.2 131.873 114.2 131.882C114.2 131.891 114.2 131.901 114.2 131.91C114.2 131.919 114.2 131.929 114.2 131.938C114.2 131.947 114.2 131.957 114.2 131.966C114.2 131.975 114.2 131.985 114.2 131.994C114.2 132.003 114.2 132.013 114.2 132.022C114.2 132.031 114.2 132.041 114.2 132.05C114.2 132.059 114.2 132.069 114.2 132.078C114.2 132.087 114.2 132.096 114.2 132.106C114.2 132.115 114.2 132.124 114.2 132.134C114.2 132.143 114.2 132.152 114.2 132.161C114.2 132.171 114.2 132.18 114.2 132.189C114.2 132.199 114.2 132.208 114.2 132.217C114.2 132.226 114.2 132.236 114.2 132.245C114.2 132.254 114.2 132.264 114.2 132.273C114.2 132.282 114.2 132.291 114.2 132.301C114.2 132.31 114.2 132.319 114.2 132.328C114.2 132.338 114.2 132.347 114.2 132.356C114.2 132.365 114.2 132.375 114.2 132.384C114.2 132.393 114.2 132.402 114.2 132.412C114.2 132.421 114.2 132.43 114.2 132.439C114.2 132.449 114.2 132.458 114.2 132.467C114.2 132.476 114.2 132.486 114.2 132.495C114.2 132.504 114.2 132.513 114.2 132.522C114.2 132.532 114.2 132.541 114.2 132.55C114.2 132.559 114.2 132.568 114.2 132.578C114.2 132.587 114.2 132.596 114.2 132.605C114.2 132.615 114.2 132.624 114.2 132.633C114.2 132.642 114.2 132.651 114.2 132.661C114.2 132.67 114.2 132.679 114.2 132.688C114.2 132.697 114.2 132.706 114.2 132.716C114.2 132.725 114.2 132.734 114.2 132.743C114.2 132.752 114.2 132.762 114.2 132.771C114.2 132.78 114.2 132.789 114.2 132.798C114.2 132.807 114.2 132.817 114.2 132.826C114.2 132.835 114.2 132.844 114.2 132.853C114.2 132.862 114.2 132.872 114.2 132.881C114.2 132.89 114.2 132.899 114.2 132.908C114.2 132.917 114.2 132.927 114.2 132.936C114.2 132.945 114.2 132.954 114.2 132.963C114.2 132.972 114.2 132.981 114.2 132.99C114.2 133 114.2 133.009 114.2 133.018C114.2 133.027 114.2 133.036 114.2 133.045C114.2 133.054 114.2 133.064 114.2 133.073C114.2 133.082 114.2 133.091 114.2 133.1C114.2 133.109 114.2 133.118 114.2 133.127C114.2 133.136 114.2 133.146 114.2 133.155C114.2 133.164 114.2 133.173 114.2 133.182C114.2 133.191 114.2 133.2 114.2 133.209C114.2 133.218 114.2 133.227 114.2 133.237C114.2 133.246 114.2 133.255 114.2 133.264C114.2 133.273 114.2 133.282 114.2 133.291C114.2 133.3 114.2 133.309 114.2 133.318C114.2 133.327 114.2 133.336 114.2 133.345C114.2 133.355 114.2 133.364 114.2 133.373C114.2 133.382 114.2 133.391 114.2 133.4C114.2 133.409 114.2 133.418 114.2 133.427C114.2 133.436 114.2 133.445 114.2 133.454C114.2 133.463 114.2 133.472 114.2 133.481C114.2 133.49 114.2 133.499 114.2 133.508C114.2 133.517 114.2 133.527 114.2 133.536C114.2 133.545 114.2 133.554 114.2 133.563C114.2 133.572 114.2 133.581 114.2 133.59C114.2 133.599 114.2 133.608 114.2 133.617C114.2 133.626 114.2 133.635 114.2 133.644C114.2 133.653 114.2 133.662 114.2 133.671C114.2 133.68 114.2 133.689 114.2 133.698C114.2 133.707 114.2 133.716 114.2 133.725C114.2 133.734 114.2 133.743 114.2 133.752C114.2 133.761 114.2 133.77 114.2 133.779C114.2 133.788 114.2 133.797 114.2 133.806C114.2 133.815 114.2 133.824 114.2 133.833C114.2 133.842 114.2 133.851 114.2 133.86C114.2 133.869 114.2 133.878 114.2 133.887C114.2 133.896 114.2 133.904 114.2 133.913C114.2 133.922 114.2 133.931 114.2 133.94C114.2 133.949 114.2 133.958 114.2 133.967C114.2 133.976 114.2 133.985 114.2 133.994C114.2 134.003 114.2 134.012 114.2 134.021C114.2 134.03 114.2 134.039 114.2 134.048C114.2 134.057 114.2 134.066 114.2 134.074C114.2 134.083 114.2 134.092 114.2 134.101C114.2 134.11 114.2 134.119 114.2 134.128C114.2 134.137 114.2 134.146 114.2 134.155C114.2 134.164 114.2 134.173 114.2 134.182C114.2 134.19 114.2 134.199 114.2 134.208C114.2 134.217 114.2 134.226 114.2 134.235C114.2 134.244 114.2 134.253 114.2 134.262C114.2 134.271 114.2 134.279 114.2 134.288C114.2 134.297 114.2 134.306 114.2 134.315C114.2 134.324 114.2 134.333 114.2 134.342C114.2 134.351 114.2 134.359 114.2 134.368C114.2 134.377 114.2 134.386 114.2 134.395C114.2 134.404 114.2 134.413 114.2 134.422C114.2 134.43 114.2 134.439 114.2 134.448C114.2 134.457 114.2 134.466 114.2 134.475C114.2 134.484 114.2 134.492 114.2 134.501C114.2 134.51 114.2 134.519 114.2 134.528C114.2 134.537 114.2 134.545 114.2 134.554C114.2 134.563 114.2 134.572 114.2 134.581C114.2 134.59 114.2 134.598 114.2 134.607C114.2 134.616 114.2 134.625 114.2 134.634C114.2 134.643 114.2 134.651 114.2 134.66C114.2 134.669 114.2 134.678 114.2 134.687C114.2 134.696 114.2 134.704 114.2 134.713C114.2 134.722 114.2 134.731 114.2 134.74C114.2 134.748 114.2 134.757 114.2 134.766C114.2 134.775 114.2 134.784 114.2 134.792C114.2 134.801 114.2 134.81 114.2 134.819C114.2 134.828 114.2 134.836 114.2 134.845C114.2 134.854 114.2 134.863 114.2 134.871C114.2 134.88 114.2 134.889 114.2 134.898C114.2 134.907 114.2 134.915 114.2 134.924C114.2 134.933 114.2 134.942 114.2 134.95C114.2 134.959 114.2 134.968 114.2 134.977C114.2 134.985 114.2 134.994 114.2 135.003C114.2 135.012 114.2 135.02 114.2 135.029C114.2 135.038 114.2 135.047 114.2 135.055C114.2 135.064 114.2 135.073 114.2 135.082C114.2 135.09 114.2 135.099 114.2 135.108C114.2 135.117 114.2 135.125 114.2 135.134C114.2 135.143 114.2 135.152 114.2 135.16C114.2 135.169 114.2 135.178 114.2 135.186C114.2 135.195 114.2 135.204 114.2 135.213C114.2 135.221 114.2 135.23 114.2 135.239C114.2 135.247 114.2 135.256 114.2 135.265C114.2 135.273 114.2 135.282 114.2 135.291C114.2 135.3 114.2 135.308 114.2 135.317C114.2 135.326 114.2 135.334 114.2 135.343C114.2 135.352 114.2 135.36 114.2 135.369C114.2 135.378 114.2 135.386 114.2 135.395C114.2 135.404 114.2 135.412 114.2 135.421C114.2 135.43 114.2 135.438 114.2 135.447C114.2 135.456 114.2 135.464 114.2 135.473C114.2 135.482 114.2 135.49 114.2 135.499C114.2 135.508 114.2 135.516 114.2 135.525C114.2 135.534 114.2 135.542 114.2 135.551C114.2 135.56 114.2 135.568 114.2 135.577C114.2 135.586 114.2 135.594 114.2 135.603C114.2 135.612 114.2 135.62 114.2 135.629C114.2 135.637 114.2 135.646 114.2 135.655C114.2 135.663 114.2 135.672 114.2 135.681C114.2 135.689 114.2 135.698 114.2 135.706C114.2 135.715 114.2 135.724 114.2 135.732C114.2 135.741 114.2 135.749 114.2 135.758C114.2 135.767 114.2 135.775 114.2 135.784C114.2 135.792 114.2 135.801 114.2 135.81C114.2 135.818 114.2 135.827 114.2 135.835C114.2 135.844 114.2 135.853 114.2 135.861C114.2 135.87 114.2 135.878 114.2 135.887C114.2 135.896 114.2 135.904 114.2 135.913C114.2 135.921 114.2 135.93 114.2 135.938C114.2 135.947 114.2 135.956 114.2 135.964C114.2 135.973 114.2 135.981 114.2 135.99C114.2 135.998 114.2 136.007 114.2 136.015C114.2 136.024 114.2 136.033 114.2 136.041C114.2 136.05 114.2 136.058 114.2 136.067C114.2 136.075 114.2 136.084 114.2 136.092C114.2 136.101 114.2 136.109 114.2 136.118C114.2 136.127 114.2 136.135 114.2 136.144C114.2 136.152 114.2 136.161 114.2 136.169C114.2 136.178 114.2 136.186 114.2 136.195C114.2 136.203 114.2 136.212 114.2 136.22C114.2 136.229 114.2 136.237 114.2 136.246C114.2 136.254 114.2 136.263 114.2 136.271C114.2 136.28 114.2 136.288 114.2 136.297C114.2 136.305 114.2 136.314 114.2 136.322C114.2 136.331 114.2 136.339 114.2 136.348C114.2 136.356 114.2 136.365 114.2 136.373C114.2 136.382 114.2 136.39 114.2 136.399C114.2 136.407 114.2 136.416 114.2 136.424C114.2 136.433 114.2 136.441 114.2 136.45C114.2 136.458 114.2 136.467 114.2 136.475C114.2 136.483 114.2 136.492 114.2 136.5C114.2 136.509 114.2 136.517 114.2 136.526C114.2 136.534 114.2 136.543 114.2 136.551C114.2 136.56 114.2 136.568 114.2 136.576C114.2 136.585 114.2 136.593 114.2 136.602C114.2 136.61 114.2 136.619 114.2 136.627C114.2 136.635 114.2 136.644 114.2 136.652C114.2 136.661 114.2 136.669 114.2 136.678C114.2 136.686 114.2 136.694 114.2 136.703C114.2 136.711 114.2 136.72 114.2 136.728C114.2 136.737 114.2 136.745 114.2 136.753C114.2 136.762 114.2 136.77 114.2 136.779C114.2 136.787 114.2 136.795 114.2 136.804C114.2 136.812 114.2 136.821 114.2 136.829C114.2 136.837 114.2 136.846 114.2 136.854C114.2 136.863 114.2 136.871 114.2 136.879C114.2 136.888 114.2 136.896 114.2 136.904C114.2 136.913 114.2 136.921 114.2 136.93C114.2 136.938 114.2 136.946 114.2 136.955C114.2 136.963 114.2 136.971 114.2 136.98C114.2 136.988 114.2 136.996 114.2 137.005C114.2 137.013 114.2 137.022 114.2 137.03C114.2 137.038 114.2 137.047 114.2 137.055C114.2 137.063 114.2 137.072 114.2 137.08C114.2 137.088 114.2 137.097 114.2 137.105C114.2 137.113 114.2 137.122 114.2 137.13C114.2 137.138 114.2 137.147 114.2 137.155C114.2 137.163 114.2 137.172 114.2 137.18C114.2 137.188 114.2 137.197 114.2 137.205C114.2 137.213 114.2 137.222 114.2 137.23C114.2 137.238 114.2 137.246 114.2 137.255C114.2 137.263 114.2 137.271 114.2 137.28C114.2 137.288 114.2 137.296 114.2 137.305C114.2 137.313 114.2 137.321 114.2 137.329C114.2 137.338 114.2 137.346 114.2 137.354C114.2 137.363 114.2 137.371 114.2 137.379C114.2 137.387 114.2 137.396 114.2 137.404C114.2 137.412 114.2 137.421 114.2 137.429C114.2 137.437 114.2 137.445 114.2 137.454C114.2 137.462 114.2 137.47 114.2 137.478C114.2 137.487 114.2 137.495 114.2 137.503C114.2 137.511 114.2 137.52 114.2 137.528C114.2 137.536 114.2 137.544 114.2 137.553C114.2 137.561 114.2 137.569 114.2 137.577C114.2 137.586 114.2 137.594 114.2 137.602C114.2 137.61 114.2 137.619 114.2 137.627C114.2 137.635 114.2 137.643 114.2 137.651C114.2 137.66 114.2 137.668 114.2 137.676C114.2 137.684 114.2 137.693 114.2 137.701C114.2 137.709 114.2 137.717 114.2 137.725C114.2 137.734 114.2 137.742 114.2 137.75C114.2 137.758 114.2 137.766 114.2 137.775C114.2 137.783 114.2 137.791 114.2 137.799C114.2 137.807 114.2 137.816 114.2 137.824C114.2 137.832 114.2 137.84 114.2 137.848C114.2 137.857 114.2 137.865 114.2 137.873C114.2 137.881 114.2 137.889 114.2 137.897C114.2 137.906 114.2 137.914 114.2 137.922C114.2 137.93 114.2 137.938 114.2 137.946C114.2 137.955 114.2 137.963 114.2 137.971C114.2 137.979 114.2 137.987 114.2 137.995C114.2 138.004 114.2 138.012 114.2 138.02C114.2 138.028 114.2 138.036 114.2 138.044C114.2 138.052 114.2 138.061 114.2 138.069C114.2 138.077 114.2 138.085 114.2 138.093C114.2 138.101 114.2 138.109 114.2 138.118C114.2 138.126 114.2 138.134 114.2 138.142C114.2 138.15 114.2 138.158 114.2 138.166C114.2 138.174 114.2 138.183 114.2 138.191C114.2 138.199 114.2 138.207 114.2 138.215C114.2 138.223 114.2 138.231 114.2 138.239C114.2 138.247 114.2 138.255 114.2 138.264C114.2 138.272 114.2 138.28 114.2 138.288C114.2 138.296 114.2 138.304 114.2 138.312C114.2 138.32 114.2 138.328 114.2 138.336C114.2 138.344 114.2 138.353 114.2 138.361C114.2 138.369 114.2 138.377 114.2 138.385C114.2 138.393 114.2 138.401 114.2 138.409C114.2 138.417 114.2 138.425 114.2 138.433C114.2 138.441 114.2 138.449 114.2 138.457C114.2 138.465 114.2 138.474 114.2 138.482C114.2 138.49 114.2 138.498 114.2 138.506C114.2 138.514 114.2 138.522 114.2 138.53C114.2 138.538 114.2 138.546 114.2 138.554C114.2 138.562 114.2 138.57 114.2 138.578C114.2 138.586 114.2 138.594 114.2 138.602C114.2 138.61 114.2 138.618 114.2 138.626C114.2 138.634 114.2 138.642 114.2 138.65C114.2 138.658 114.2 138.666 114.2 138.674C114.2 138.682 114.2 138.69 114.2 138.698C114.2 138.706 114.2 138.714 114.2 138.722C114.2 138.73 114.2 138.738 114.2 138.746C114.2 138.754 114.2 138.762 114.2 138.77C114.2 138.778 114.2 138.786 114.2 138.794C114.2 138.802 114.2 138.81 114.2 138.818C114.2 138.826 114.2 138.834 114.2 138.842C114.2 138.85 114.2 138.858 114.2 138.866C114.2 138.874 114.2 138.882 114.2 138.89C114.2 138.898 114.2 138.906 114.2 138.914C114.2 138.922 114.2 138.93 114.2 138.938C114.2 138.946 114.2 138.954 114.2 138.962C114.2 138.97 114.2 138.978 114.2 138.985C114.2 138.993 114.2 139.001 114.2 139.009C114.2 139.017 114.2 139.025 114.2 139.033C114.2 139.041 114.2 139.049 114.2 139.057C114.2 139.065 114.2 139.073 114.2 139.081C114.2 139.089 114.2 139.097 114.2 139.104C114.2 139.112 114.2 139.12 114.2 139.128C114.2 139.136 114.2 139.144 114.2 139.152C114.2 139.16 114.2 139.168 114.2 139.176C114.2 139.184 114.2 139.191 114.2 139.199C114.2 139.207 114.2 139.215 114.2 139.223C114.2 139.231 114.2 139.239 114.2 139.247C114.2 139.255 114.2 139.262 114.2 139.27C114.2 139.278 114.2 139.286 114.2 139.294C114.2 139.302 114.2 139.31 114.2 139.318C114.2 139.326 114.2 139.333 114.2 139.341C114.2 139.349 114.2 139.357 114.2 139.365C114.2 139.373 114.2 139.381 114.2 139.388C114.2 139.396 114.2 139.404 114.2 139.412C114.2 139.42 114.2 139.428 114.2 139.436C114.2 139.443 114.2 139.451 114.2 139.459C114.2 139.467 114.2 139.475 114.2 139.483C114.2 139.49 114.2 139.498 114.2 139.506C114.2 139.514 114.2 139.522 114.2 139.53C114.2 139.537 114.2 139.545 114.2 139.553C114.2 139.561 114.2 139.569 114.2 139.577C114.2 139.584 114.2 139.592 114.2 139.6H124.2ZM124.194 125.838C124.465 120.163 124.6 114.617 124.6 109.2H114.6C114.6 114.45 114.469 119.837 114.206 125.362L124.194 125.838ZM124.594 109.438C124.86 103.858 125.125 99.0914 125.389 95.1326L115.411 94.4674C115.142 98.5086 114.873 103.342 114.606 108.962L124.594 109.438ZM125.39 95.1119C125.522 93.0088 125.651 91.344 125.775 90.0975C125.838 89.4744 125.896 88.982 125.95 88.6071C125.976 88.4209 126 88.2768 126.019 88.1694C126.04 88.0582 126.051 88.0113 126.051 88.0127L116.349 85.5873C115.947 87.1966 115.666 90.3849 115.41 94.4881L125.39 95.1119ZM121.2 81.8H119.2V91.8H121.2V81.8ZM114.604 84.8304C112.248 90.3273 109.907 95.2679 107.581 99.6605L116.419 104.339C118.893 99.6654 121.352 94.4727 123.796 88.7696L114.604 84.8304ZM107.642 99.5487C105.307 103.7 102.432 108.406 99.0078 113.675L107.392 119.125C110.901 113.727 113.893 108.834 116.358 104.451L107.642 99.5487ZM99.0358 113.632L56.2358 178.032L64.5642 183.568L107.364 119.168L99.0358 113.632ZM60.4 185.8H119.2V175.8H60.4V185.8ZM124.2 180.8V139.6H114.2V180.8H124.2ZM436.45 209.2L431.553 208.192L431.547 208.22L431.542 208.248L436.45 209.2ZM419.25 255.2L423.465 257.89L423.477 257.87L423.49 257.85L419.25 255.2ZM388.05 284L385.74 279.565L385.74 279.565L388.05 284ZM283.25 276.4L286.339 272.468L286.339 272.468L283.25 276.4ZM250.05 226L245.284 227.511L245.292 227.538L245.301 227.564L250.05 226ZM249.25 68L254.049 69.4045L254.049 69.4045L249.25 68ZM281.25 17.6L278.161 13.6684L278.161 13.6684L281.25 17.6ZM398.05 17.6L401.139 13.6684L401.139 13.6684L398.05 17.6ZM431.25 68L426.501 69.5638L426.501 69.5638L431.25 68ZM310.05 198.4L305.096 199.08L305.104 199.135L305.113 199.19L310.05 198.4ZM320.45 228.8L316.339 231.646L316.339 231.646L320.45 228.8ZM361.25 229.2L365.308 232.122L365.335 232.084L365.361 232.046L361.25 229.2ZM371.25 198.4L366.31 197.625L366.303 197.673L366.296 197.72L371.25 198.4ZM371.25 96.4L366.295 97.067L366.302 97.121L366.31 97.1748L371.25 96.4ZM361.25 65.2L365.361 62.3539L365.361 62.3539L361.25 65.2ZM320.45 65.2L316.339 62.3539L316.339 62.3539L320.45 65.2ZM310.05 96L305.11 95.2252L305.103 95.2726L305.096 95.3201L310.05 96ZM437.05 147.2C437.05 170.142 435.203 190.461 431.553 208.192L441.347 210.208C445.164 191.672 447.05 170.658 447.05 147.2H437.05ZM431.542 208.248C428.168 225.633 422.626 240.365 415.01 252.55L423.49 257.85C431.874 244.435 437.798 228.501 441.358 210.152L431.542 208.248ZM415.035 252.51C407.492 264.328 397.739 273.316 385.74 279.565L390.36 288.435C403.961 281.351 415.008 271.138 423.465 257.89L415.035 252.51ZM385.74 279.565C373.832 285.768 358.941 289 340.85 289V299C360.092 299 376.668 295.566 390.36 288.435L385.74 279.565ZM340.85 289C318.233 289 300.2 283.359 286.339 272.468L280.161 280.332C296.167 292.907 316.534 299 340.85 299V289ZM286.339 272.468C272.331 261.462 261.757 245.568 254.799 224.436L245.301 227.564C252.743 250.165 264.302 267.871 280.161 280.332L286.339 272.468ZM254.816 224.489C248.08 203.244 244.65 177.515 244.65 147.2H234.65C234.65 178.218 238.153 205.023 245.284 227.511L254.816 224.489ZM244.65 147.2C244.65 116.584 247.82 90.6851 254.049 69.4045L244.451 66.5955C237.88 89.0482 234.65 115.949 234.65 147.2H244.65ZM254.049 69.4045C260.216 48.3335 270.378 32.5012 284.339 21.5316L278.161 13.6684C262.256 26.1654 251.084 43.9331 244.451 66.5955L254.049 69.4045ZM284.339 21.5316C298.154 10.6769 316.826 4.99999 340.85 4.99999V-5.00001C315.274 -5.00001 294.213 1.05642 278.161 13.6684L284.339 21.5316ZM340.85 4.99999C363.185 4.99999 381.09 10.6332 394.961 21.5316L401.139 13.6684C385.143 1.10013 364.915 -5.00001 340.85 -5.00001V4.99999ZM394.961 21.5316C408.969 32.5377 419.543 48.4319 426.501 69.5638L435.999 66.4362C428.557 43.8348 416.998 26.1289 401.139 13.6684L394.961 21.5316ZM426.501 69.5638C433.489 90.7861 437.05 116.628 437.05 147.2H447.05C447.05 115.906 443.411 88.9473 435.999 66.4362L426.501 69.5638ZM302.25 147.2C302.25 167.861 303.188 185.174 305.096 199.08L315.004 197.72C313.179 184.426 312.25 167.606 312.25 147.2H302.25ZM305.113 199.19C307.301 212.867 310.933 223.837 316.339 231.646L324.561 225.954C320.367 219.896 317.066 210.6 314.987 197.61L305.113 199.19ZM316.339 231.646C322.12 239.997 330.494 244.2 340.85 244.2V234.2C333.606 234.2 328.38 231.47 324.561 225.954L316.339 231.646ZM340.85 244.2C351.124 244.2 359.492 240.198 365.308 232.122L357.192 226.278C353.408 231.535 348.176 234.2 340.85 234.2V244.2ZM365.361 232.046C370.804 224.184 374.29 213.025 376.204 199.08L366.296 197.72C364.477 210.975 361.296 220.349 357.139 226.354L365.361 232.046ZM376.19 199.175C378.378 185.227 379.45 167.88 379.45 147.2H369.45C369.45 167.587 368.389 184.373 366.31 197.625L376.19 199.175ZM379.45 147.2C379.45 126.783 378.377 109.57 376.19 95.6251L366.31 97.1748C368.39 110.43 369.45 127.084 369.45 147.2H379.45ZM376.205 95.7329C374.294 81.5376 370.814 70.2305 365.361 62.3539L357.139 68.046C361.286 74.0362 364.472 83.529 366.295 97.067L376.205 95.7329ZM365.361 62.3539C359.58 54.0033 351.206 49.8 340.85 49.8V59.8C348.094 59.8 353.32 62.5301 357.139 68.046L365.361 62.3539ZM340.85 49.8C330.494 49.8 322.12 54.0033 316.339 62.3539L324.561 68.046C328.38 62.5301 333.606 59.8 340.85 59.8V49.8ZM316.339 62.3539C310.922 70.1781 307.295 81.2966 305.11 95.2252L314.99 96.7748C317.071 83.5034 320.378 74.0885 324.561 68.046L316.339 62.3539ZM305.096 95.3201C303.188 109.226 302.25 126.539 302.25 147.2H312.25C312.25 126.794 313.179 109.974 315.004 96.6799L305.096 95.3201ZM681.3 232.8V237.8H686.3V232.8H681.3ZM648.5 232.8V227.8H643.5V232.8H648.5ZM648.5 290V295H653.5V290H648.5ZM581.7 290H576.7V295H581.7V290ZM581.7 232.8H586.7V227.8H581.7V232.8ZM463.3 232.8H458.3V237.8H463.3V232.8ZM463.3 184L459.168 181.184L458.3 182.458V184H463.3ZM585.7 4.39998V-0.600019H583.057L581.568 1.58415L585.7 4.39998ZM648.5 4.39998H653.5V-0.600019H648.5V4.39998ZM648.5 180.8H643.5V185.8H648.5V180.8ZM681.3 180.8H686.3V175.8H681.3V180.8ZM581.7 125.6L576.706 125.362L576.7 125.481V125.6H581.7ZM582.1 109.2L577.106 108.962L577.1 109.081V109.2H582.1ZM582.9 94.8L587.889 95.1326L587.89 95.1222L587.89 95.1119L582.9 94.8ZM583.7 86.8L588.551 88.0127L590.104 81.8H583.7V86.8ZM581.7 86.8V81.8H578.403L577.104 84.8304L581.7 86.8ZM574.5 102L578.858 104.451L578.889 104.396L578.919 104.339L574.5 102ZM565.7 116.4L569.864 119.168L569.878 119.146L569.892 119.125L565.7 116.4ZM522.9 180.8L518.736 178.032L513.574 185.8H522.9V180.8ZM581.7 180.8V185.8H586.7V180.8H581.7ZM681.3 227.8H648.5V237.8H681.3V227.8ZM643.5 232.8V290H653.5V232.8H643.5ZM648.5 285H581.7V295H648.5V285ZM586.7 290V232.8H576.7V290H586.7ZM581.7 227.8H463.3V237.8H581.7V227.8ZM468.3 232.8V184H458.3V232.8H468.3ZM467.432 186.816L589.832 7.21581L581.568 1.58415L459.168 181.184L467.432 186.816ZM585.7 9.39998H648.5V-0.600019H585.7V9.39998ZM643.5 4.39998V180.8H653.5V4.39998H643.5ZM648.5 185.8H681.3V175.8H648.5V185.8ZM676.3 180.8V232.8H686.3V180.8H676.3ZM586.7 139.6C586.7 139.592 586.7 139.584 586.7 139.577C586.7 139.569 586.7 139.561 586.7 139.553C586.7 139.545 586.7 139.537 586.7 139.53C586.7 139.522 586.7 139.514 586.7 139.506C586.7 139.498 586.7 139.49 586.7 139.483C586.7 139.475 586.7 139.467 586.7 139.459C586.7 139.451 586.7 139.443 586.7 139.436C586.7 139.428 586.7 139.42 586.7 139.412C586.7 139.404 586.7 139.396 586.7 139.388C586.7 139.381 586.7 139.373 586.7 139.365C586.7 139.357 586.7 139.349 586.7 139.341C586.7 139.333 586.7 139.326 586.7 139.318C586.7 139.31 586.7 139.302 586.7 139.294C586.7 139.286 586.7 139.278 586.7 139.27C586.7 139.262 586.7 139.255 586.7 139.247C586.7 139.239 586.7 139.231 586.7 139.223C586.7 139.215 586.7 139.207 586.7 139.199C586.7 139.191 586.7 139.184 586.7 139.176C586.7 139.168 586.7 139.16 586.7 139.152C586.7 139.144 586.7 139.136 586.7 139.128C586.7 139.12 586.7 139.112 586.7 139.104C586.7 139.097 586.7 139.089 586.7 139.081C586.7 139.073 586.7 139.065 586.7 139.057C586.7 139.049 586.7 139.041 586.7 139.033C586.7 139.025 586.7 139.017 586.7 139.009C586.7 139.001 586.7 138.993 586.7 138.985C586.7 138.978 586.7 138.97 586.7 138.962C586.7 138.954 586.7 138.946 586.7 138.938C586.7 138.93 586.7 138.922 586.7 138.914C586.7 138.906 586.7 138.898 586.7 138.89C586.7 138.882 586.7 138.874 586.7 138.866C586.7 138.858 586.7 138.85 586.7 138.842C586.7 138.834 586.7 138.826 586.7 138.818C586.7 138.81 586.7 138.802 586.7 138.794C586.7 138.786 586.7 138.778 586.7 138.77C586.7 138.762 586.7 138.754 586.7 138.746C586.7 138.738 586.7 138.73 586.7 138.722C586.7 138.714 586.7 138.706 586.7 138.698C586.7 138.69 586.7 138.682 586.7 138.674C586.7 138.666 586.7 138.658 586.7 138.65C586.7 138.642 586.7 138.634 586.7 138.626C586.7 138.618 586.7 138.61 586.7 138.602C586.7 138.594 586.7 138.586 586.7 138.578C586.7 138.57 586.7 138.562 586.7 138.554C586.7 138.546 586.7 138.538 586.7 138.53C586.7 138.522 586.7 138.514 586.7 138.506C586.7 138.498 586.7 138.49 586.7 138.482C586.7 138.474 586.7 138.465 586.7 138.457C586.7 138.449 586.7 138.441 586.7 138.433C586.7 138.425 586.7 138.417 586.7 138.409C586.7 138.401 586.7 138.393 586.7 138.385C586.7 138.377 586.7 138.369 586.7 138.361C586.7 138.353 586.7 138.344 586.7 138.336C586.7 138.328 586.7 138.32 586.7 138.312C586.7 138.304 586.7 138.296 586.7 138.288C586.7 138.28 586.7 138.272 586.7 138.264C586.7 138.255 586.7 138.247 586.7 138.239C586.7 138.231 586.7 138.223 586.7 138.215C586.7 138.207 586.7 138.199 586.7 138.191C586.7 138.183 586.7 138.174 586.7 138.166C586.7 138.158 586.7 138.15 586.7 138.142C586.7 138.134 586.7 138.126 586.7 138.118C586.7 138.109 586.7 138.101 586.7 138.093C586.7 138.085 586.7 138.077 586.7 138.069C586.7 138.061 586.7 138.052 586.7 138.044C586.7 138.036 586.7 138.028 586.7 138.02C586.7 138.012 586.7 138.004 586.7 137.995C586.7 137.987 586.7 137.979 586.7 137.971C586.7 137.963 586.7 137.955 586.7 137.946C586.7 137.938 586.7 137.93 586.7 137.922C586.7 137.914 586.7 137.906 586.7 137.897C586.7 137.889 586.7 137.881 586.7 137.873C586.7 137.865 586.7 137.857 586.7 137.848C586.7 137.84 586.7 137.832 586.7 137.824C586.7 137.816 586.7 137.807 586.7 137.799C586.7 137.791 586.7 137.783 586.7 137.775C586.7 137.766 586.7 137.758 586.7 137.75C586.7 137.742 586.7 137.734 586.7 137.725C586.7 137.717 586.7 137.709 586.7 137.701C586.7 137.693 586.7 137.684 586.7 137.676C586.7 137.668 586.7 137.66 586.7 137.651C586.7 137.643 586.7 137.635 586.7 137.627C586.7 137.619 586.7 137.61 586.7 137.602C586.7 137.594 586.7 137.586 586.7 137.577C586.7 137.569 586.7 137.561 586.7 137.553C586.7 137.544 586.7 137.536 586.7 137.528C586.7 137.52 586.7 137.511 586.7 137.503C586.7 137.495 586.7 137.487 586.7 137.478C586.7 137.47 586.7 137.462 586.7 137.454C586.7 137.445 586.7 137.437 586.7 137.429C586.7 137.421 586.7 137.412 586.7 137.404C586.7 137.396 586.7 137.387 586.7 137.379C586.7 137.371 586.7 137.363 586.7 137.354C586.7 137.346 586.7 137.338 586.7 137.329C586.7 137.321 586.7 137.313 586.7 137.305C586.7 137.296 586.7 137.288 586.7 137.28C586.7 137.271 586.7 137.263 586.7 137.255C586.7 137.246 586.7 137.238 586.7 137.23C586.7 137.222 586.7 137.213 586.7 137.205C586.7 137.197 586.7 137.188 586.7 137.18C586.7 137.172 586.7 137.163 586.7 137.155C586.7 137.147 586.7 137.138 586.7 137.13C586.7 137.122 586.7 137.113 586.7 137.105C586.7 137.097 586.7 137.088 586.7 137.08C586.7 137.072 586.7 137.063 586.7 137.055C586.7 137.047 586.7 137.038 586.7 137.03C586.7 137.022 586.7 137.013 586.7 137.005C586.7 136.996 586.7 136.988 586.7 136.98C586.7 136.971 586.7 136.963 586.7 136.955C586.7 136.946 586.7 136.938 586.7 136.93C586.7 136.921 586.7 136.913 586.7 136.904C586.7 136.896 586.7 136.888 586.7 136.879C586.7 136.871 586.7 136.863 586.7 136.854C586.7 136.846 586.7 136.837 586.7 136.829C586.7 136.821 586.7 136.812 586.7 136.804C586.7 136.795 586.7 136.787 586.7 136.779C586.7 136.77 586.7 136.762 586.7 136.753C586.7 136.745 586.7 136.737 586.7 136.728C586.7 136.72 586.7 136.711 586.7 136.703C586.7 136.694 586.7 136.686 586.7 136.678C586.7 136.669 586.7 136.661 586.7 136.652C586.7 136.644 586.7 136.635 586.7 136.627C586.7 136.619 586.7 136.61 586.7 136.602C586.7 136.593 586.7 136.585 586.7 136.576C586.7 136.568 586.7 136.56 586.7 136.551C586.7 136.543 586.7 136.534 586.7 136.526C586.7 136.517 586.7 136.509 586.7 136.5C586.7 136.492 586.7 136.483 586.7 136.475C586.7 136.467 586.7 136.458 586.7 136.45C586.7 136.441 586.7 136.433 586.7 136.424C586.7 136.416 586.7 136.407 586.7 136.399C586.7 136.39 586.7 136.382 586.7 136.373C586.7 136.365 586.7 136.356 586.7 136.348C586.7 136.339 586.7 136.331 586.7 136.322C586.7 136.314 586.7 136.305 586.7 136.297C586.7 136.288 586.7 136.28 586.7 136.271C586.7 136.263 586.7 136.254 586.7 136.246C586.7 136.237 586.7 136.229 586.7 136.22C586.7 136.212 586.7 136.203 586.7 136.195C586.7 136.186 586.7 136.178 586.7 136.169C586.7 136.161 586.7 136.152 586.7 136.144C586.7 136.135 586.7 136.127 586.7 136.118C586.7 136.109 586.7 136.101 586.7 136.092C586.7 136.084 586.7 136.075 586.7 136.067C586.7 136.058 586.7 136.05 586.7 136.041C586.7 136.033 586.7 136.024 586.7 136.015C586.7 136.007 586.7 135.998 586.7 135.99C586.7 135.981 586.7 135.973 586.7 135.964C586.7 135.956 586.7 135.947 586.7 135.938C586.7 135.93 586.7 135.921 586.7 135.913C586.7 135.904 586.7 135.896 586.7 135.887C586.7 135.878 586.7 135.87 586.7 135.861C586.7 135.853 586.7 135.844 586.7 135.835C586.7 135.827 586.7 135.818 586.7 135.81C586.7 135.801 586.7 135.792 586.7 135.784C586.7 135.775 586.7 135.767 586.7 135.758C586.7 135.749 586.7 135.741 586.7 135.732C586.7 135.724 586.7 135.715 586.7 135.706C586.7 135.698 586.7 135.689 586.7 135.681C586.7 135.672 586.7 135.663 586.7 135.655C586.7 135.646 586.7 135.637 586.7 135.629C586.7 135.62 586.7 135.612 586.7 135.603C586.7 135.594 586.7 135.586 586.7 135.577C586.7 135.568 586.7 135.56 586.7 135.551C586.7 135.542 586.7 135.534 586.7 135.525C586.7 135.516 586.7 135.508 586.7 135.499C586.7 135.49 586.7 135.482 586.7 135.473C586.7 135.464 586.7 135.456 586.7 135.447C586.7 135.438 586.7 135.43 586.7 135.421C586.7 135.412 586.7 135.404 586.7 135.395C586.7 135.386 586.7 135.378 586.7 135.369C586.7 135.36 586.7 135.352 586.7 135.343C586.7 135.334 586.7 135.326 586.7 135.317C586.7 135.308 586.7 135.3 586.7 135.291C586.7 135.282 586.7 135.273 586.7 135.265C586.7 135.256 586.7 135.247 586.7 135.239C586.7 135.23 586.7 135.221 586.7 135.213C586.7 135.204 586.7 135.195 586.7 135.186C586.7 135.178 586.7 135.169 586.7 135.16C586.7 135.152 586.7 135.143 586.7 135.134C586.7 135.125 586.7 135.117 586.7 135.108C586.7 135.099 586.7 135.09 586.7 135.082C586.7 135.073 586.7 135.064 586.7 135.055C586.7 135.047 586.7 135.038 586.7 135.029C586.7 135.02 586.7 135.012 586.7 135.003C586.7 134.994 586.7 134.985 586.7 134.977C586.7 134.968 586.7 134.959 586.7 134.95C586.7 134.942 586.7 134.933 586.7 134.924C586.7 134.915 586.7 134.907 586.7 134.898C586.7 134.889 586.7 134.88 586.7 134.871C586.7 134.863 586.7 134.854 586.7 134.845C586.7 134.836 586.7 134.828 586.7 134.819C586.7 134.81 586.7 134.801 586.7 134.792C586.7 134.784 586.7 134.775 586.7 134.766C586.7 134.757 586.7 134.748 586.7 134.74C586.7 134.731 586.7 134.722 586.7 134.713C586.7 134.704 586.7 134.696 586.7 134.687C586.7 134.678 586.7 134.669 586.7 134.66C586.7 134.651 586.7 134.643 586.7 134.634C586.7 134.625 586.7 134.616 586.7 134.607C586.7 134.598 586.7 134.59 586.7 134.581C586.7 134.572 586.7 134.563 586.7 134.554C586.7 134.545 586.7 134.537 586.7 134.528C586.7 134.519 586.7 134.51 586.7 134.501C586.7 134.492 586.7 134.484 586.7 134.475C586.7 134.466 586.7 134.457 586.7 134.448C586.7 134.439 586.7 134.43 586.7 134.422C586.7 134.413 586.7 134.404 586.7 134.395C586.7 134.386 586.7 134.377 586.7 134.368C586.7 134.359 586.7 134.351 586.7 134.342C586.7 134.333 586.7 134.324 586.7 134.315C586.7 134.306 586.7 134.297 586.7 134.288C586.7 134.279 586.7 134.271 586.7 134.262C586.7 134.253 586.7 134.244 586.7 134.235C586.7 134.226 586.7 134.217 586.7 134.208C586.7 134.199 586.7 134.19 586.7 134.182C586.7 134.173 586.7 134.164 586.7 134.155C586.7 134.146 586.7 134.137 586.7 134.128C586.7 134.119 586.7 134.11 586.7 134.101C586.7 134.092 586.7 134.083 586.7 134.074C586.7 134.066 586.7 134.057 586.7 134.048C586.7 134.039 586.7 134.03 586.7 134.021C586.7 134.012 586.7 134.003 586.7 133.994C586.7 133.985 586.7 133.976 586.7 133.967C586.7 133.958 586.7 133.949 586.7 133.94C586.7 133.931 586.7 133.922 586.7 133.913C586.7 133.904 586.7 133.896 586.7 133.887C586.7 133.878 586.7 133.869 586.7 133.86C586.7 133.851 586.7 133.842 586.7 133.833C586.7 133.824 586.7 133.815 586.7 133.806C586.7 133.797 586.7 133.788 586.7 133.779C586.7 133.77 586.7 133.761 586.7 133.752C586.7 133.743 586.7 133.734 586.7 133.725C586.7 133.716 586.7 133.707 586.7 133.698C586.7 133.689 586.7 133.68 586.7 133.671C586.7 133.662 586.7 133.653 586.7 133.644C586.7 133.635 586.7 133.626 586.7 133.617C586.7 133.608 586.7 133.599 586.7 133.59C586.7 133.581 586.7 133.572 586.7 133.563C586.7 133.554 586.7 133.545 586.7 133.536C586.7 133.527 586.7 133.517 586.7 133.508C586.7 133.499 586.7 133.49 586.7 133.481C586.7 133.472 586.7 133.463 586.7 133.454C586.7 133.445 586.7 133.436 586.7 133.427C586.7 133.418 586.7 133.409 586.7 133.4C586.7 133.391 586.7 133.382 586.7 133.373C586.7 133.364 586.7 133.355 586.7 133.345C586.7 133.336 586.7 133.327 586.7 133.318C586.7 133.309 586.7 133.3 586.7 133.291C586.7 133.282 586.7 133.273 586.7 133.264C586.7 133.255 586.7 133.246 586.7 133.237C586.7 133.227 586.7 133.218 586.7 133.209C586.7 133.2 586.7 133.191 586.7 133.182C586.7 133.173 586.7 133.164 586.7 133.155C586.7 133.146 586.7 133.136 586.7 133.127C586.7 133.118 586.7 133.109 586.7 133.1C586.7 133.091 586.7 133.082 586.7 133.073C586.7 133.064 586.7 133.054 586.7 133.045C586.7 133.036 586.7 133.027 586.7 133.018C586.7 133.009 586.7 133 586.7 132.99C586.7 132.981 586.7 132.972 586.7 132.963C586.7 132.954 586.7 132.945 586.7 132.936C586.7 132.927 586.7 132.917 586.7 132.908C586.7 132.899 586.7 132.89 586.7 132.881C586.7 132.872 586.7 132.862 586.7 132.853C586.7 132.844 586.7 132.835 586.7 132.826C586.7 132.817 586.7 132.807 586.7 132.798C586.7 132.789 586.7 132.78 586.7 132.771C586.7 132.762 586.7 132.752 586.7 132.743C586.7 132.734 586.7 132.725 586.7 132.716C586.7 132.706 586.7 132.697 586.7 132.688C586.7 132.679 586.7 132.67 586.7 132.661C586.7 132.651 586.7 132.642 586.7 132.633C586.7 132.624 586.7 132.615 586.7 132.605C586.7 132.596 586.7 132.587 586.7 132.578C586.7 132.568 586.7 132.559 586.7 132.55C586.7 132.541 586.7 132.532 586.7 132.522C586.7 132.513 586.7 132.504 586.7 132.495C586.7 132.486 586.7 132.476 586.7 132.467C586.7 132.458 586.7 132.449 586.7 132.439C586.7 132.43 586.7 132.421 586.7 132.412C586.7 132.402 586.7 132.393 586.7 132.384C586.7 132.375 586.7 132.365 586.7 132.356C586.7 132.347 586.7 132.338 586.7 132.328C586.7 132.319 586.7 132.31 586.7 132.301C586.7 132.291 586.7 132.282 586.7 132.273C586.7 132.264 586.7 132.254 586.7 132.245C586.7 132.236 586.7 132.226 586.7 132.217C586.7 132.208 586.7 132.199 586.7 132.189C586.7 132.18 586.7 132.171 586.7 132.161C586.7 132.152 586.7 132.143 586.7 132.134C586.7 132.124 586.7 132.115 586.7 132.106C586.7 132.096 586.7 132.087 586.7 132.078C586.7 132.069 586.7 132.059 586.7 132.05C586.7 132.041 586.7 132.031 586.7 132.022C586.7 132.013 586.7 132.003 586.7 131.994C586.7 131.985 586.7 131.975 586.7 131.966C586.7 131.957 586.7 131.947 586.7 131.938C586.7 131.929 586.7 131.919 586.7 131.91C586.7 131.901 586.7 131.891 586.7 131.882C586.7 131.873 586.7 131.863 586.7 131.854C586.7 131.845 586.7 131.835 586.7 131.826C586.7 131.817 586.7 131.807 586.7 131.798C586.7 131.789 586.7 131.779 586.7 131.77C586.7 131.761 586.7 131.751 586.7 131.742C586.7 131.732 586.7 131.723 586.7 131.714C586.7 131.704 586.7 131.695 586.7 131.686C586.7 131.676 586.7 131.667 586.7 131.657C586.7 131.648 586.7 131.639 586.7 131.629C586.7 131.62 586.7 131.611 586.7 131.601C586.7 131.592 586.7 131.582 586.7 131.573C586.7 131.564 586.7 131.554 586.7 131.545C586.7 131.535 586.7 131.526 586.7 131.517C586.7 131.507 586.7 131.498 586.7 131.488C586.7 131.479 586.7 131.47 586.7 131.46C586.7 131.451 586.7 131.441 586.7 131.432C586.7 131.422 586.7 131.413 586.7 131.404C586.7 131.394 586.7 131.385 586.7 131.375C586.7 131.366 586.7 131.356 586.7 131.347C586.7 131.338 586.7 131.328 586.7 131.319C586.7 131.309 586.7 131.3 586.7 131.29C586.7 131.281 586.7 131.272 586.7 131.262C586.7 131.253 586.7 131.243 586.7 131.234C586.7 131.224 586.7 131.215 586.7 131.205C586.7 131.196 586.7 131.186 586.7 131.177C586.7 131.167 586.7 131.158 586.7 131.149C586.7 131.139 586.7 131.13 586.7 131.12C586.7 131.111 586.7 131.101 586.7 131.092C586.7 131.082 586.7 131.073 586.7 131.063C586.7 131.054 586.7 131.044 586.7 131.035C586.7 131.025 586.7 131.016 586.7 131.006C586.7 130.997 586.7 130.987 586.7 130.978C586.7 130.968 586.7 130.959 586.7 130.949C586.7 130.94 586.7 130.93 586.7 130.921C586.7 130.911 586.7 130.902 586.7 130.892C586.7 130.883 586.7 130.873 586.7 130.864C586.7 130.854 586.7 130.845 586.7 130.835C586.7 130.826 586.7 130.816 586.7 130.807C586.7 130.797 586.7 130.787 586.7 130.778C586.7 130.768 586.7 130.759 586.7 130.749C586.7 130.74 586.7 130.73 586.7 130.721C586.7 130.711 586.7 130.702 586.7 130.692C586.7 130.682 586.7 130.673 586.7 130.663C586.7 130.654 586.7 130.644 586.7 130.635C586.7 130.625 586.7 130.616 586.7 130.606C586.7 130.596 586.7 130.587 586.7 130.577C586.7 130.568 586.7 130.558 586.7 130.549C586.7 130.539 586.7 130.529 586.7 130.52C586.7 130.51 586.7 130.501 586.7 130.491C586.7 130.481 586.7 130.472 586.7 130.462C586.7 130.453 586.7 130.443 586.7 130.433C586.7 130.424 586.7 130.414 586.7 130.405C586.7 130.395 586.7 130.385 586.7 130.376C586.7 130.366 586.7 130.357 586.7 130.347C586.7 130.337 586.7 130.328 586.7 130.318C586.7 130.309 586.7 130.299 586.7 130.289C586.7 130.28 586.7 130.27 586.7 130.26C586.7 130.251 586.7 130.241 586.7 130.232C586.7 130.222 586.7 130.212 586.7 130.203C586.7 130.193 586.7 130.183 586.7 130.174C586.7 130.164 586.7 130.154 586.7 130.145C586.7 130.135 586.7 130.125 586.7 130.116C586.7 130.106 586.7 130.097 586.7 130.087C586.7 130.077 586.7 130.068 586.7 130.058C586.7 130.048 586.7 130.039 586.7 130.029C586.7 130.019 586.7 130.01 586.7 130C586.7 129.99 586.7 129.981 586.7 129.971C586.7 129.961 586.7 129.951 586.7 129.942C586.7 129.932 586.7 129.922 586.7 129.913C586.7 129.903 586.7 129.893 586.7 129.884C586.7 129.874 586.7 129.864 586.7 129.855C586.7 129.845 586.7 129.835 586.7 129.825C586.7 129.816 586.7 129.806 586.7 129.796C586.7 129.787 586.7 129.777 586.7 129.767C586.7 129.757 586.7 129.748 586.7 129.738C586.7 129.728 586.7 129.719 586.7 129.709C586.7 129.699 586.7 129.689 586.7 129.68C586.7 129.67 586.7 129.66 586.7 129.65C586.7 129.641 586.7 129.631 586.7 129.621C586.7 129.612 586.7 129.602 586.7 129.592C586.7 129.582 586.7 129.573 586.7 129.563C586.7 129.553 586.7 129.543 586.7 129.534C586.7 129.524 586.7 129.514 586.7 129.504C586.7 129.495 586.7 129.485 586.7 129.475C586.7 129.465 586.7 129.455 586.7 129.446C586.7 129.436 586.7 129.426 586.7 129.416C586.7 129.407 586.7 129.397 586.7 129.387C586.7 129.377 586.7 129.367 586.7 129.358C586.7 129.348 586.7 129.338 586.7 129.328C586.7 129.319 586.7 129.309 586.7 129.299C586.7 129.289 586.7 129.279 586.7 129.27C586.7 129.26 586.7 129.25 586.7 129.24C586.7 129.23 586.7 129.221 586.7 129.211C586.7 129.201 586.7 129.191 586.7 129.181C586.7 129.171 586.7 129.162 586.7 129.152C586.7 129.142 586.7 129.132 586.7 129.122C586.7 129.113 586.7 129.103 586.7 129.093C586.7 129.083 586.7 129.073 586.7 129.063C586.7 129.054 586.7 129.044 586.7 129.034C586.7 129.024 586.7 129.014 586.7 129.004C586.7 128.994 586.7 128.985 586.7 128.975C586.7 128.965 586.7 128.955 586.7 128.945C586.7 128.935 586.7 128.925 586.7 128.916C586.7 128.906 586.7 128.896 586.7 128.886C586.7 128.876 586.7 128.866 586.7 128.856C586.7 128.847 586.7 128.837 586.7 128.827C586.7 128.817 586.7 128.807 586.7 128.797C586.7 128.787 586.7 128.777 586.7 128.767C586.7 128.758 586.7 128.748 586.7 128.738C586.7 128.728 586.7 128.718 586.7 128.708C586.7 128.698 586.7 128.688 586.7 128.678C586.7 128.669 586.7 128.659 586.7 128.649C586.7 128.639 586.7 128.629 586.7 128.619C586.7 128.609 586.7 128.599 586.7 128.589C586.7 128.579 586.7 128.569 586.7 128.559C586.7 128.55 586.7 128.54 586.7 128.53C586.7 128.52 586.7 128.51 586.7 128.5C586.7 128.49 586.7 128.48 586.7 128.47C586.7 128.46 586.7 128.45 586.7 128.44C586.7 128.43 586.7 128.42 586.7 128.41C586.7 128.4 586.7 128.391 586.7 128.381C586.7 128.371 586.7 128.361 586.7 128.351C586.7 128.341 586.7 128.331 586.7 128.321C586.7 128.311 586.7 128.301 586.7 128.291C586.7 128.281 586.7 128.271 586.7 128.261C586.7 128.251 586.7 128.241 586.7 128.231C586.7 128.221 586.7 128.211 586.7 128.201C586.7 128.191 586.7 128.181 586.7 128.171C586.7 128.161 586.7 128.151 586.7 128.141C586.7 128.131 586.7 128.121 586.7 128.111C586.7 128.101 586.7 128.091 586.7 128.081C586.7 128.071 586.7 128.061 586.7 128.051C586.7 128.041 586.7 128.031 586.7 128.021C586.7 128.011 586.7 128.001 586.7 127.991C586.7 127.981 586.7 127.971 586.7 127.961C586.7 127.951 586.7 127.941 586.7 127.931C586.7 127.921 586.7 127.911 586.7 127.901C586.7 127.891 586.7 127.881 586.7 127.871C586.7 127.861 586.7 127.851 586.7 127.841C586.7 127.831 586.7 127.82 586.7 127.81C586.7 127.8 586.7 127.79 586.7 127.78C586.7 127.77 586.7 127.76 586.7 127.75C586.7 127.74 586.7 127.73 586.7 127.72C586.7 127.71 586.7 127.7 586.7 127.69C586.7 127.68 586.7 127.67 586.7 127.659C586.7 127.649 586.7 127.639 586.7 127.629C586.7 127.619 586.7 127.609 586.7 127.599C586.7 127.589 586.7 127.579 586.7 127.569C586.7 127.559 586.7 127.549 586.7 127.538C586.7 127.528 586.7 127.518 586.7 127.508C586.7 127.498 586.7 127.488 586.7 127.478C586.7 127.468 586.7 127.458 586.7 127.448C586.7 127.437 586.7 127.427 586.7 127.417C586.7 127.407 586.7 127.397 586.7 127.387C586.7 127.377 586.7 127.367 586.7 127.356C586.7 127.346 586.7 127.336 586.7 127.326C586.7 127.316 586.7 127.306 586.7 127.296C586.7 127.286 586.7 127.275 586.7 127.265C586.7 127.255 586.7 127.245 586.7 127.235C586.7 127.225 586.7 127.215 586.7 127.204C586.7 127.194 586.7 127.184 586.7 127.174C586.7 127.164 586.7 127.154 586.7 127.143C586.7 127.133 586.7 127.123 586.7 127.113C586.7 127.103 586.7 127.093 586.7 127.082C586.7 127.072 586.7 127.062 586.7 127.052C586.7 127.042 586.7 127.032 586.7 127.021C586.7 127.011 586.7 127.001 586.7 126.991C586.7 126.981 586.7 126.97 586.7 126.96C586.7 126.95 586.7 126.94 586.7 126.93C586.7 126.919 586.7 126.909 586.7 126.899C586.7 126.889 586.7 126.879 586.7 126.868C586.7 126.858 586.7 126.848 586.7 126.838C586.7 126.828 586.7 126.817 586.7 126.807C586.7 126.797 586.7 126.787 586.7 126.776C586.7 126.766 586.7 126.756 586.7 126.746C586.7 126.736 586.7 126.725 586.7 126.715C586.7 126.705 586.7 126.695 586.7 126.684C586.7 126.674 586.7 126.664 586.7 126.654C586.7 126.643 586.7 126.633 586.7 126.623C586.7 126.613 586.7 126.602 586.7 126.592C586.7 126.582 586.7 126.572 586.7 126.561C586.7 126.551 586.7 126.541 586.7 126.531C586.7 126.52 586.7 126.51 586.7 126.5C586.7 126.49 586.7 126.479 586.7 126.469C586.7 126.459 586.7 126.448 586.7 126.438C586.7 126.428 586.7 126.418 586.7 126.407C586.7 126.397 586.7 126.387 586.7 126.376C586.7 126.366 586.7 126.356 586.7 126.346C586.7 126.335 586.7 126.325 586.7 126.315C586.7 126.304 586.7 126.294 586.7 126.284C586.7 126.273 586.7 126.263 586.7 126.253C586.7 126.243 586.7 126.232 586.7 126.222C586.7 126.212 586.7 126.201 586.7 126.191C586.7 126.181 586.7 126.17 586.7 126.16C586.7 126.15 586.7 126.139 586.7 126.129C586.7 126.119 586.7 126.108 586.7 126.098C586.7 126.088 586.7 126.077 586.7 126.067C586.7 126.057 586.7 126.046 586.7 126.036C586.7 126.026 586.7 126.015 586.7 126.005C586.7 125.995 586.7 125.984 586.7 125.974C586.7 125.964 586.7 125.953 586.7 125.943C586.7 125.932 586.7 125.922 586.7 125.912C586.7 125.901 586.7 125.891 586.7 125.881C586.7 125.87 586.7 125.86 586.7 125.85C586.7 125.839 586.7 125.829 586.7 125.818C586.7 125.808 586.7 125.798 586.7 125.787C586.7 125.777 586.7 125.766 586.7 125.756C586.7 125.746 586.7 125.735 586.7 125.725C586.7 125.714 586.7 125.704 586.7 125.694C586.7 125.683 586.7 125.673 586.7 125.662C586.7 125.652 586.7 125.642 586.7 125.631C586.7 125.621 586.7 125.61 586.7 125.6H576.7C576.7 125.61 576.7 125.621 576.7 125.631C576.7 125.642 576.7 125.652 576.7 125.662C576.7 125.673 576.7 125.683 576.7 125.694C576.7 125.704 576.7 125.714 576.7 125.725C576.7 125.735 576.7 125.746 576.7 125.756C576.7 125.766 576.7 125.777 576.7 125.787C576.7 125.798 576.7 125.808 576.7 125.818C576.7 125.829 576.7 125.839 576.7 125.85C576.7 125.86 576.7 125.87 576.7 125.881C576.7 125.891 576.7 125.901 576.7 125.912C576.7 125.922 576.7 125.932 576.7 125.943C576.7 125.953 576.7 125.964 576.7 125.974C576.7 125.984 576.7 125.995 576.7 126.005C576.7 126.015 576.7 126.026 576.7 126.036C576.7 126.046 576.7 126.057 576.7 126.067C576.7 126.077 576.7 126.088 576.7 126.098C576.7 126.108 576.7 126.119 576.7 126.129C576.7 126.139 576.7 126.15 576.7 126.16C576.7 126.17 576.7 126.181 576.7 126.191C576.7 126.201 576.7 126.212 576.7 126.222C576.7 126.232 576.7 126.243 576.7 126.253C576.7 126.263 576.7 126.273 576.7 126.284C576.7 126.294 576.7 126.304 576.7 126.315C576.7 126.325 576.7 126.335 576.7 126.346C576.7 126.356 576.7 126.366 576.7 126.376C576.7 126.387 576.7 126.397 576.7 126.407C576.7 126.418 576.7 126.428 576.7 126.438C576.7 126.448 576.7 126.459 576.7 126.469C576.7 126.479 576.7 126.49 576.7 126.5C576.7 126.51 576.7 126.52 576.7 126.531C576.7 126.541 576.7 126.551 576.7 126.561C576.7 126.572 576.7 126.582 576.7 126.592C576.7 126.602 576.7 126.613 576.7 126.623C576.7 126.633 576.7 126.643 576.7 126.654C576.7 126.664 576.7 126.674 576.7 126.684C576.7 126.695 576.7 126.705 576.7 126.715C576.7 126.725 576.7 126.736 576.7 126.746C576.7 126.756 576.7 126.766 576.7 126.776C576.7 126.787 576.7 126.797 576.7 126.807C576.7 126.817 576.7 126.828 576.7 126.838C576.7 126.848 576.7 126.858 576.7 126.868C576.7 126.879 576.7 126.889 576.7 126.899C576.7 126.909 576.7 126.919 576.7 126.93C576.7 126.94 576.7 126.95 576.7 126.96C576.7 126.97 576.7 126.981 576.7 126.991C576.7 127.001 576.7 127.011 576.7 127.021C576.7 127.032 576.7 127.042 576.7 127.052C576.7 127.062 576.7 127.072 576.7 127.082C576.7 127.093 576.7 127.103 576.7 127.113C576.7 127.123 576.7 127.133 576.7 127.143C576.7 127.154 576.7 127.164 576.7 127.174C576.7 127.184 576.7 127.194 576.7 127.204C576.7 127.215 576.7 127.225 576.7 127.235C576.7 127.245 576.7 127.255 576.7 127.265C576.7 127.275 576.7 127.286 576.7 127.296C576.7 127.306 576.7 127.316 576.7 127.326C576.7 127.336 576.7 127.346 576.7 127.356C576.7 127.367 576.7 127.377 576.7 127.387C576.7 127.397 576.7 127.407 576.7 127.417C576.7 127.427 576.7 127.437 576.7 127.448C576.7 127.458 576.7 127.468 576.7 127.478C576.7 127.488 576.7 127.498 576.7 127.508C576.7 127.518 576.7 127.528 576.7 127.538C576.7 127.549 576.7 127.559 576.7 127.569C576.7 127.579 576.7 127.589 576.7 127.599C576.7 127.609 576.7 127.619 576.7 127.629C576.7 127.639 576.7 127.649 576.7 127.659C576.7 127.67 576.7 127.68 576.7 127.69C576.7 127.7 576.7 127.71 576.7 127.72C576.7 127.73 576.7 127.74 576.7 127.75C576.7 127.76 576.7 127.77 576.7 127.78C576.7 127.79 576.7 127.8 576.7 127.81C576.7 127.82 576.7 127.831 576.7 127.841C576.7 127.851 576.7 127.861 576.7 127.871C576.7 127.881 576.7 127.891 576.7 127.901C576.7 127.911 576.7 127.921 576.7 127.931C576.7 127.941 576.7 127.951 576.7 127.961C576.7 127.971 576.7 127.981 576.7 127.991C576.7 128.001 576.7 128.011 576.7 128.021C576.7 128.031 576.7 128.041 576.7 128.051C576.7 128.061 576.7 128.071 576.7 128.081C576.7 128.091 576.7 128.101 576.7 128.111C576.7 128.121 576.7 128.131 576.7 128.141C576.7 128.151 576.7 128.161 576.7 128.171C576.7 128.181 576.7 128.191 576.7 128.201C576.7 128.211 576.7 128.221 576.7 128.231C576.7 128.241 576.7 128.251 576.7 128.261C576.7 128.271 576.7 128.281 576.7 128.291C576.7 128.301 576.7 128.311 576.7 128.321C576.7 128.331 576.7 128.341 576.7 128.351C576.7 128.361 576.7 128.371 576.7 128.381C576.7 128.391 576.7 128.4 576.7 128.41C576.7 128.42 576.7 128.43 576.7 128.44C576.7 128.45 576.7 128.46 576.7 128.47C576.7 128.48 576.7 128.49 576.7 128.5C576.7 128.51 576.7 128.52 576.7 128.53C576.7 128.54 576.7 128.55 576.7 128.559C576.7 128.569 576.7 128.579 576.7 128.589C576.7 128.599 576.7 128.609 576.7 128.619C576.7 128.629 576.7 128.639 576.7 128.649C576.7 128.659 576.7 128.669 576.7 128.678C576.7 128.688 576.7 128.698 576.7 128.708C576.7 128.718 576.7 128.728 576.7 128.738C576.7 128.748 576.7 128.758 576.7 128.767C576.7 128.777 576.7 128.787 576.7 128.797C576.7 128.807 576.7 128.817 576.7 128.827C576.7 128.837 576.7 128.847 576.7 128.856C576.7 128.866 576.7 128.876 576.7 128.886C576.7 128.896 576.7 128.906 576.7 128.916C576.7 128.925 576.7 128.935 576.7 128.945C576.7 128.955 576.7 128.965 576.7 128.975C576.7 128.985 576.7 128.994 576.7 129.004C576.7 129.014 576.7 129.024 576.7 129.034C576.7 129.044 576.7 129.054 576.7 129.063C576.7 129.073 576.7 129.083 576.7 129.093C576.7 129.103 576.7 129.113 576.7 129.122C576.7 129.132 576.7 129.142 576.7 129.152C576.7 129.162 576.7 129.171 576.7 129.181C576.7 129.191 576.7 129.201 576.7 129.211C576.7 129.221 576.7 129.23 576.7 129.24C576.7 129.25 576.7 129.26 576.7 129.27C576.7 129.279 576.7 129.289 576.7 129.299C576.7 129.309 576.7 129.319 576.7 129.328C576.7 129.338 576.7 129.348 576.7 129.358C576.7 129.367 576.7 129.377 576.7 129.387C576.7 129.397 576.7 129.407 576.7 129.416C576.7 129.426 576.7 129.436 576.7 129.446C576.7 129.455 576.7 129.465 576.7 129.475C576.7 129.485 576.7 129.495 576.7 129.504C576.7 129.514 576.7 129.524 576.7 129.534C576.7 129.543 576.7 129.553 576.7 129.563C576.7 129.573 576.7 129.582 576.7 129.592C576.7 129.602 576.7 129.612 576.7 129.621C576.7 129.631 576.7 129.641 576.7 129.65C576.7 129.66 576.7 129.67 576.7 129.68C576.7 129.689 576.7 129.699 576.7 129.709C576.7 129.719 576.7 129.728 576.7 129.738C576.7 129.748 576.7 129.757 576.7 129.767C576.7 129.777 576.7 129.787 576.7 129.796C576.7 129.806 576.7 129.816 576.7 129.825C576.7 129.835 576.7 129.845 576.7 129.855C576.7 129.864 576.7 129.874 576.7 129.884C576.7 129.893 576.7 129.903 576.7 129.913C576.7 129.922 576.7 129.932 576.7 129.942C576.7 129.951 576.7 129.961 576.7 129.971C576.7 129.981 576.7 129.99 576.7 130C576.7 130.01 576.7 130.019 576.7 130.029C576.7 130.039 576.7 130.048 576.7 130.058C576.7 130.068 576.7 130.077 576.7 130.087C576.7 130.097 576.7 130.106 576.7 130.116C576.7 130.125 576.7 130.135 576.7 130.145C576.7 130.154 576.7 130.164 576.7 130.174C576.7 130.183 576.7 130.193 576.7 130.203C576.7 130.212 576.7 130.222 576.7 130.232C576.7 130.241 576.7 130.251 576.7 130.26C576.7 130.27 576.7 130.28 576.7 130.289C576.7 130.299 576.7 130.309 576.7 130.318C576.7 130.328 576.7 130.337 576.7 130.347C576.7 130.357 576.7 130.366 576.7 130.376C576.7 130.385 576.7 130.395 576.7 130.405C576.7 130.414 576.7 130.424 576.7 130.433C576.7 130.443 576.7 130.453 576.7 130.462C576.7 130.472 576.7 130.481 576.7 130.491C576.7 130.501 576.7 130.51 576.7 130.52C576.7 130.529 576.7 130.539 576.7 130.549C576.7 130.558 576.7 130.568 576.7 130.577C576.7 130.587 576.7 130.596 576.7 130.606C576.7 130.616 576.7 130.625 576.7 130.635C576.7 130.644 576.7 130.654 576.7 130.663C576.7 130.673 576.7 130.682 576.7 130.692C576.7 130.702 576.7 130.711 576.7 130.721C576.7 130.73 576.7 130.74 576.7 130.749C576.7 130.759 576.7 130.768 576.7 130.778C576.7 130.787 576.7 130.797 576.7 130.807C576.7 130.816 576.7 130.826 576.7 130.835C576.7 130.845 576.7 130.854 576.7 130.864C576.7 130.873 576.7 130.883 576.7 130.892C576.7 130.902 576.7 130.911 576.7 130.921C576.7 130.93 576.7 130.94 576.7 130.949C576.7 130.959 576.7 130.968 576.7 130.978C576.7 130.987 576.7 130.997 576.7 131.006C576.7 131.016 576.7 131.025 576.7 131.035C576.7 131.044 576.7 131.054 576.7 131.063C576.7 131.073 576.7 131.082 576.7 131.092C576.7 131.101 576.7 131.111 576.7 131.12C576.7 131.13 576.7 131.139 576.7 131.149C576.7 131.158 576.7 131.167 576.7 131.177C576.7 131.186 576.7 131.196 576.7 131.205C576.7 131.215 576.7 131.224 576.7 131.234C576.7 131.243 576.7 131.253 576.7 131.262C576.7 131.272 576.7 131.281 576.7 131.29C576.7 131.3 576.7 131.309 576.7 131.319C576.7 131.328 576.7 131.338 576.7 131.347C576.7 131.356 576.7 131.366 576.7 131.375C576.7 131.385 576.7 131.394 576.7 131.404C576.7 131.413 576.7 131.422 576.7 131.432C576.7 131.441 576.7 131.451 576.7 131.46C576.7 131.47 576.7 131.479 576.7 131.488C576.7 131.498 576.7 131.507 576.7 131.517C576.7 131.526 576.7 131.535 576.7 131.545C576.7 131.554 576.7 131.564 576.7 131.573C576.7 131.582 576.7 131.592 576.7 131.601C576.7 131.611 576.7 131.62 576.7 131.629C576.7 131.639 576.7 131.648 576.7 131.657C576.7 131.667 576.7 131.676 576.7 131.686C576.7 131.695 576.7 131.704 576.7 131.714C576.7 131.723 576.7 131.732 576.7 131.742C576.7 131.751 576.7 131.761 576.7 131.77C576.7 131.779 576.7 131.789 576.7 131.798C576.7 131.807 576.7 131.817 576.7 131.826C576.7 131.835 576.7 131.845 576.7 131.854C576.7 131.863 576.7 131.873 576.7 131.882C576.7 131.891 576.7 131.901 576.7 131.91C576.7 131.919 576.7 131.929 576.7 131.938C576.7 131.947 576.7 131.957 576.7 131.966C576.7 131.975 576.7 131.985 576.7 131.994C576.7 132.003 576.7 132.013 576.7 132.022C576.7 132.031 576.7 132.041 576.7 132.05C576.7 132.059 576.7 132.069 576.7 132.078C576.7 132.087 576.7 132.096 576.7 132.106C576.7 132.115 576.7 132.124 576.7 132.134C576.7 132.143 576.7 132.152 576.7 132.161C576.7 132.171 576.7 132.18 576.7 132.189C576.7 132.199 576.7 132.208 576.7 132.217C576.7 132.226 576.7 132.236 576.7 132.245C576.7 132.254 576.7 132.264 576.7 132.273C576.7 132.282 576.7 132.291 576.7 132.301C576.7 132.31 576.7 132.319 576.7 132.328C576.7 132.338 576.7 132.347 576.7 132.356C576.7 132.365 576.7 132.375 576.7 132.384C576.7 132.393 576.7 132.402 576.7 132.412C576.7 132.421 576.7 132.43 576.7 132.439C576.7 132.449 576.7 132.458 576.7 132.467C576.7 132.476 576.7 132.486 576.7 132.495C576.7 132.504 576.7 132.513 576.7 132.522C576.7 132.532 576.7 132.541 576.7 132.55C576.7 132.559 576.7 132.568 576.7 132.578C576.7 132.587 576.7 132.596 576.7 132.605C576.7 132.615 576.7 132.624 576.7 132.633C576.7 132.642 576.7 132.651 576.7 132.661C576.7 132.67 576.7 132.679 576.7 132.688C576.7 132.697 576.7 132.706 576.7 132.716C576.7 132.725 576.7 132.734 576.7 132.743C576.7 132.752 576.7 132.762 576.7 132.771C576.7 132.78 576.7 132.789 576.7 132.798C576.7 132.807 576.7 132.817 576.7 132.826C576.7 132.835 576.7 132.844 576.7 132.853C576.7 132.862 576.7 132.872 576.7 132.881C576.7 132.89 576.7 132.899 576.7 132.908C576.7 132.917 576.7 132.927 576.7 132.936C576.7 132.945 576.7 132.954 576.7 132.963C576.7 132.972 576.7 132.981 576.7 132.99C576.7 133 576.7 133.009 576.7 133.018C576.7 133.027 576.7 133.036 576.7 133.045C576.7 133.054 576.7 133.064 576.7 133.073C576.7 133.082 576.7 133.091 576.7 133.1C576.7 133.109 576.7 133.118 576.7 133.127C576.7 133.136 576.7 133.146 576.7 133.155C576.7 133.164 576.7 133.173 576.7 133.182C576.7 133.191 576.7 133.2 576.7 133.209C576.7 133.218 576.7 133.227 576.7 133.237C576.7 133.246 576.7 133.255 576.7 133.264C576.7 133.273 576.7 133.282 576.7 133.291C576.7 133.3 576.7 133.309 576.7 133.318C576.7 133.327 576.7 133.336 576.7 133.345C576.7 133.355 576.7 133.364 576.7 133.373C576.7 133.382 576.7 133.391 576.7 133.4C576.7 133.409 576.7 133.418 576.7 133.427C576.7 133.436 576.7 133.445 576.7 133.454C576.7 133.463 576.7 133.472 576.7 133.481C576.7 133.49 576.7 133.499 576.7 133.508C576.7 133.517 576.7 133.527 576.7 133.536C576.7 133.545 576.7 133.554 576.7 133.563C576.7 133.572 576.7 133.581 576.7 133.59C576.7 133.599 576.7 133.608 576.7 133.617C576.7 133.626 576.7 133.635 576.7 133.644C576.7 133.653 576.7 133.662 576.7 133.671C576.7 133.68 576.7 133.689 576.7 133.698C576.7 133.707 576.7 133.716 576.7 133.725C576.7 133.734 576.7 133.743 576.7 133.752C576.7 133.761 576.7 133.77 576.7 133.779C576.7 133.788 576.7 133.797 576.7 133.806C576.7 133.815 576.7 133.824 576.7 133.833C576.7 133.842 576.7 133.851 576.7 133.86C576.7 133.869 576.7 133.878 576.7 133.887C576.7 133.896 576.7 133.904 576.7 133.913C576.7 133.922 576.7 133.931 576.7 133.94C576.7 133.949 576.7 133.958 576.7 133.967C576.7 133.976 576.7 133.985 576.7 133.994C576.7 134.003 576.7 134.012 576.7 134.021C576.7 134.03 576.7 134.039 576.7 134.048C576.7 134.057 576.7 134.066 576.7 134.074C576.7 134.083 576.7 134.092 576.7 134.101C576.7 134.11 576.7 134.119 576.7 134.128C576.7 134.137 576.7 134.146 576.7 134.155C576.7 134.164 576.7 134.173 576.7 134.182C576.7 134.19 576.7 134.199 576.7 134.208C576.7 134.217 576.7 134.226 576.7 134.235C576.7 134.244 576.7 134.253 576.7 134.262C576.7 134.271 576.7 134.279 576.7 134.288C576.7 134.297 576.7 134.306 576.7 134.315C576.7 134.324 576.7 134.333 576.7 134.342C576.7 134.351 576.7 134.359 576.7 134.368C576.7 134.377 576.7 134.386 576.7 134.395C576.7 134.404 576.7 134.413 576.7 134.422C576.7 134.43 576.7 134.439 576.7 134.448C576.7 134.457 576.7 134.466 576.7 134.475C576.7 134.484 576.7 134.492 576.7 134.501C576.7 134.51 576.7 134.519 576.7 134.528C576.7 134.537 576.7 134.545 576.7 134.554C576.7 134.563 576.7 134.572 576.7 134.581C576.7 134.59 576.7 134.598 576.7 134.607C576.7 134.616 576.7 134.625 576.7 134.634C576.7 134.643 576.7 134.651 576.7 134.66C576.7 134.669 576.7 134.678 576.7 134.687C576.7 134.696 576.7 134.704 576.7 134.713C576.7 134.722 576.7 134.731 576.7 134.74C576.7 134.748 576.7 134.757 576.7 134.766C576.7 134.775 576.7 134.784 576.7 134.792C576.7 134.801 576.7 134.81 576.7 134.819C576.7 134.828 576.7 134.836 576.7 134.845C576.7 134.854 576.7 134.863 576.7 134.871C576.7 134.88 576.7 134.889 576.7 134.898C576.7 134.907 576.7 134.915 576.7 134.924C576.7 134.933 576.7 134.942 576.7 134.95C576.7 134.959 576.7 134.968 576.7 134.977C576.7 134.985 576.7 134.994 576.7 135.003C576.7 135.012 576.7 135.02 576.7 135.029C576.7 135.038 576.7 135.047 576.7 135.055C576.7 135.064 576.7 135.073 576.7 135.082C576.7 135.09 576.7 135.099 576.7 135.108C576.7 135.117 576.7 135.125 576.7 135.134C576.7 135.143 576.7 135.152 576.7 135.16C576.7 135.169 576.7 135.178 576.7 135.186C576.7 135.195 576.7 135.204 576.7 135.213C576.7 135.221 576.7 135.23 576.7 135.239C576.7 135.247 576.7 135.256 576.7 135.265C576.7 135.273 576.7 135.282 576.7 135.291C576.7 135.3 576.7 135.308 576.7 135.317C576.7 135.326 576.7 135.334 576.7 135.343C576.7 135.352 576.7 135.36 576.7 135.369C576.7 135.378 576.7 135.386 576.7 135.395C576.7 135.404 576.7 135.412 576.7 135.421C576.7 135.43 576.7 135.438 576.7 135.447C576.7 135.456 576.7 135.464 576.7 135.473C576.7 135.482 576.7 135.49 576.7 135.499C576.7 135.508 576.7 135.516 576.7 135.525C576.7 135.534 576.7 135.542 576.7 135.551C576.7 135.56 576.7 135.568 576.7 135.577C576.7 135.586 576.7 135.594 576.7 135.603C576.7 135.612 576.7 135.62 576.7 135.629C576.7 135.637 576.7 135.646 576.7 135.655C576.7 135.663 576.7 135.672 576.7 135.681C576.7 135.689 576.7 135.698 576.7 135.706C576.7 135.715 576.7 135.724 576.7 135.732C576.7 135.741 576.7 135.749 576.7 135.758C576.7 135.767 576.7 135.775 576.7 135.784C576.7 135.792 576.7 135.801 576.7 135.81C576.7 135.818 576.7 135.827 576.7 135.835C576.7 135.844 576.7 135.853 576.7 135.861C576.7 135.87 576.7 135.878 576.7 135.887C576.7 135.896 576.7 135.904 576.7 135.913C576.7 135.921 576.7 135.93 576.7 135.938C576.7 135.947 576.7 135.956 576.7 135.964C576.7 135.973 576.7 135.981 576.7 135.99C576.7 135.998 576.7 136.007 576.7 136.015C576.7 136.024 576.7 136.033 576.7 136.041C576.7 136.05 576.7 136.058 576.7 136.067C576.7 136.075 576.7 136.084 576.7 136.092C576.7 136.101 576.7 136.109 576.7 136.118C576.7 136.127 576.7 136.135 576.7 136.144C576.7 136.152 576.7 136.161 576.7 136.169C576.7 136.178 576.7 136.186 576.7 136.195C576.7 136.203 576.7 136.212 576.7 136.22C576.7 136.229 576.7 136.237 576.7 136.246C576.7 136.254 576.7 136.263 576.7 136.271C576.7 136.28 576.7 136.288 576.7 136.297C576.7 136.305 576.7 136.314 576.7 136.322C576.7 136.331 576.7 136.339 576.7 136.348C576.7 136.356 576.7 136.365 576.7 136.373C576.7 136.382 576.7 136.39 576.7 136.399C576.7 136.407 576.7 136.416 576.7 136.424C576.7 136.433 576.7 136.441 576.7 136.45C576.7 136.458 576.7 136.467 576.7 136.475C576.7 136.483 576.7 136.492 576.7 136.5C576.7 136.509 576.7 136.517 576.7 136.526C576.7 136.534 576.7 136.543 576.7 136.551C576.7 136.56 576.7 136.568 576.7 136.576C576.7 136.585 576.7 136.593 576.7 136.602C576.7 136.61 576.7 136.619 576.7 136.627C576.7 136.635 576.7 136.644 576.7 136.652C576.7 136.661 576.7 136.669 576.7 136.678C576.7 136.686 576.7 136.694 576.7 136.703C576.7 136.711 576.7 136.72 576.7 136.728C576.7 136.737 576.7 136.745 576.7 136.753C576.7 136.762 576.7 136.77 576.7 136.779C576.7 136.787 576.7 136.795 576.7 136.804C576.7 136.812 576.7 136.821 576.7 136.829C576.7 136.837 576.7 136.846 576.7 136.854C576.7 136.863 576.7 136.871 576.7 136.879C576.7 136.888 576.7 136.896 576.7 136.904C576.7 136.913 576.7 136.921 576.7 136.93C576.7 136.938 576.7 136.946 576.7 136.955C576.7 136.963 576.7 136.971 576.7 136.98C576.7 136.988 576.7 136.996 576.7 137.005C576.7 137.013 576.7 137.022 576.7 137.03C576.7 137.038 576.7 137.047 576.7 137.055C576.7 137.063 576.7 137.072 576.7 137.08C576.7 137.088 576.7 137.097 576.7 137.105C576.7 137.113 576.7 137.122 576.7 137.13C576.7 137.138 576.7 137.147 576.7 137.155C576.7 137.163 576.7 137.172 576.7 137.18C576.7 137.188 576.7 137.197 576.7 137.205C576.7 137.213 576.7 137.222 576.7 137.23C576.7 137.238 576.7 137.246 576.7 137.255C576.7 137.263 576.7 137.271 576.7 137.28C576.7 137.288 576.7 137.296 576.7 137.305C576.7 137.313 576.7 137.321 576.7 137.329C576.7 137.338 576.7 137.346 576.7 137.354C576.7 137.363 576.7 137.371 576.7 137.379C576.7 137.387 576.7 137.396 576.7 137.404C576.7 137.412 576.7 137.421 576.7 137.429C576.7 137.437 576.7 137.445 576.7 137.454C576.7 137.462 576.7 137.47 576.7 137.478C576.7 137.487 576.7 137.495 576.7 137.503C576.7 137.511 576.7 137.52 576.7 137.528C576.7 137.536 576.7 137.544 576.7 137.553C576.7 137.561 576.7 137.569 576.7 137.577C576.7 137.586 576.7 137.594 576.7 137.602C576.7 137.61 576.7 137.619 576.7 137.627C576.7 137.635 576.7 137.643 576.7 137.651C576.7 137.66 576.7 137.668 576.7 137.676C576.7 137.684 576.7 137.693 576.7 137.701C576.7 137.709 576.7 137.717 576.7 137.725C576.7 137.734 576.7 137.742 576.7 137.75C576.7 137.758 576.7 137.766 576.7 137.775C576.7 137.783 576.7 137.791 576.7 137.799C576.7 137.807 576.7 137.816 576.7 137.824C576.7 137.832 576.7 137.84 576.7 137.848C576.7 137.857 576.7 137.865 576.7 137.873C576.7 137.881 576.7 137.889 576.7 137.897C576.7 137.906 576.7 137.914 576.7 137.922C576.7 137.93 576.7 137.938 576.7 137.946C576.7 137.955 576.7 137.963 576.7 137.971C576.7 137.979 576.7 137.987 576.7 137.995C576.7 138.004 576.7 138.012 576.7 138.02C576.7 138.028 576.7 138.036 576.7 138.044C576.7 138.052 576.7 138.061 576.7 138.069C576.7 138.077 576.7 138.085 576.7 138.093C576.7 138.101 576.7 138.109 576.7 138.118C576.7 138.126 576.7 138.134 576.7 138.142C576.7 138.15 576.7 138.158 576.7 138.166C576.7 138.174 576.7 138.183 576.7 138.191C576.7 138.199 576.7 138.207 576.7 138.215C576.7 138.223 576.7 138.231 576.7 138.239C576.7 138.247 576.7 138.255 576.7 138.264C576.7 138.272 576.7 138.28 576.7 138.288C576.7 138.296 576.7 138.304 576.7 138.312C576.7 138.32 576.7 138.328 576.7 138.336C576.7 138.344 576.7 138.353 576.7 138.361C576.7 138.369 576.7 138.377 576.7 138.385C576.7 138.393 576.7 138.401 576.7 138.409C576.7 138.417 576.7 138.425 576.7 138.433C576.7 138.441 576.7 138.449 576.7 138.457C576.7 138.465 576.7 138.474 576.7 138.482C576.7 138.49 576.7 138.498 576.7 138.506C576.7 138.514 576.7 138.522 576.7 138.53C576.7 138.538 576.7 138.546 576.7 138.554C576.7 138.562 576.7 138.57 576.7 138.578C576.7 138.586 576.7 138.594 576.7 138.602C576.7 138.61 576.7 138.618 576.7 138.626C576.7 138.634 576.7 138.642 576.7 138.65C576.7 138.658 576.7 138.666 576.7 138.674C576.7 138.682 576.7 138.69 576.7 138.698C576.7 138.706 576.7 138.714 576.7 138.722C576.7 138.73 576.7 138.738 576.7 138.746C576.7 138.754 576.7 138.762 576.7 138.77C576.7 138.778 576.7 138.786 576.7 138.794C576.7 138.802 576.7 138.81 576.7 138.818C576.7 138.826 576.7 138.834 576.7 138.842C576.7 138.85 576.7 138.858 576.7 138.866C576.7 138.874 576.7 138.882 576.7 138.89C576.7 138.898 576.7 138.906 576.7 138.914C576.7 138.922 576.7 138.93 576.7 138.938C576.7 138.946 576.7 138.954 576.7 138.962C576.7 138.97 576.7 138.978 576.7 138.985C576.7 138.993 576.7 139.001 576.7 139.009C576.7 139.017 576.7 139.025 576.7 139.033C576.7 139.041 576.7 139.049 576.7 139.057C576.7 139.065 576.7 139.073 576.7 139.081C576.7 139.089 576.7 139.097 576.7 139.104C576.7 139.112 576.7 139.12 576.7 139.128C576.7 139.136 576.7 139.144 576.7 139.152C576.7 139.16 576.7 139.168 576.7 139.176C576.7 139.184 576.7 139.191 576.7 139.199C576.7 139.207 576.7 139.215 576.7 139.223C576.7 139.231 576.7 139.239 576.7 139.247C576.7 139.255 576.7 139.262 576.7 139.27C576.7 139.278 576.7 139.286 576.7 139.294C576.7 139.302 576.7 139.31 576.7 139.318C576.7 139.326 576.7 139.333 576.7 139.341C576.7 139.349 576.7 139.357 576.7 139.365C576.7 139.373 576.7 139.381 576.7 139.388C576.7 139.396 576.7 139.404 576.7 139.412C576.7 139.42 576.7 139.428 576.7 139.436C576.7 139.443 576.7 139.451 576.7 139.459C576.7 139.467 576.7 139.475 576.7 139.483C576.7 139.49 576.7 139.498 576.7 139.506C576.7 139.514 576.7 139.522 576.7 139.53C576.7 139.537 576.7 139.545 576.7 139.553C576.7 139.561 576.7 139.569 576.7 139.577C576.7 139.584 576.7 139.592 576.7 139.6H586.7ZM586.694 125.838C586.965 120.163 587.1 114.617 587.1 109.2H577.1C577.1 114.45 576.969 119.837 576.706 125.362L586.694 125.838ZM587.094 109.438C587.36 103.858 587.625 99.0914 587.889 95.1326L577.911 94.4674C577.642 98.5086 577.373 103.342 577.106 108.962L587.094 109.438ZM587.89 95.1119C588.022 93.0088 588.151 91.344 588.275 90.0975C588.338 89.4744 588.396 88.982 588.45 88.6071C588.476 88.4209 588.5 88.2768 588.519 88.1694C588.54 88.0582 588.551 88.0113 588.551 88.0127L578.849 85.5873C578.447 87.1966 578.166 90.3849 577.91 94.4881L587.89 95.1119ZM583.7 81.8H581.7V91.8H583.7V81.8ZM577.104 84.8304C574.748 90.3273 572.407 95.2679 570.081 99.6605L578.919 104.339C581.393 99.6654 583.852 94.4727 586.296 88.7696L577.104 84.8304ZM570.142 99.5487C567.807 103.7 564.932 108.406 561.508 113.675L569.892 119.125C573.401 113.727 576.393 108.834 578.858 104.451L570.142 99.5487ZM561.536 113.632L518.736 178.032L527.064 183.568L569.864 119.168L561.536 113.632ZM522.9 185.8H581.7V175.8H522.9V185.8ZM586.7 180.8V139.6H576.7V180.8H586.7Z" fill="url(#paint0_linear_1101_1220)"/>
<defs>
<linearGradient id="paint0_linear_1101_1220" x1="674.987" y1="293.458" x2="-13.6303" y2="263.298" gradientUnits="userSpaceOnUse">
<stop stop-color="#4968EB"/>
<stop offset="1" stop-color="#53D2FA"/>
</linearGradient>
</defs>
</svg>
