<svg width="269" height="48" viewBox="0 0 269 48" fill="none" xmlns="http://www.w3.org/2000/svg">
<path d="M22.6292 46.936C18.1694 46.7652 13.8748 45.7406 9.91061 43.5206C7.26778 42.3253 4.79012 40.2761 3.13835 37.7146C1.3214 35.1531 0.330354 32.2501 0 29.1763C0 29.0056 0 28.664 0 28.4933C0 28.3225 0.165172 28.1517 0.330348 27.981C2.47765 26.7856 4.9553 26.2733 7.43295 26.6148C7.43295 23.3703 8.09366 15.0028 10.7365 13.1244C11.8927 12.2705 14.8659 13.1244 17.1784 14.3197C19.3257 10.0506 24.281 1 27.4193 1C31.3836 1 35.8433 11.7582 37.3299 15.5151C39.1469 14.4905 42.9459 12.6121 44.4325 13.6367C47.2405 15.3443 47.7361 23.5411 47.9013 27.4687C52.5262 27.4687 55.0039 28.1517 55.169 29.6886C55.3342 31.9086 54.8387 34.1285 53.6824 36.1777C52.6914 38.0561 51.0396 39.7638 49.2227 40.7884C42.7808 45.5698 32.5398 48.1313 28.4104 46.0821H28.0801H27.7497L27.089 46.4237C25.7676 46.936 24.1158 47.1067 22.6292 46.936ZM7.59812 28.1517C3.4687 28.1517 1.32141 28.8348 1.15623 29.3471C1.48659 32.0794 2.64283 34.8116 4.12942 37.0316C5.78119 39.2515 7.92846 41.1299 10.4061 42.1545C16.5177 45.5698 23.6203 46.2529 26.2631 44.8868L7.59812 28.1517ZM29.2363 44.716C33.0354 46.0821 42.12 44.033 48.2316 39.4223C49.8834 38.3977 51.2048 37.0316 52.1959 35.3239C53.1869 33.6162 53.6824 31.7378 53.5173 29.6886C53.5173 29.3471 51.37 28.664 47.2406 28.8348L29.2363 44.716ZM44.2674 15.5151L29.7318 42.4961L46.4147 28.1517C46.4147 23.7118 45.7539 19.4427 44.2674 15.5151ZM8.75435 27.1271L25.6024 42.1545L10.9017 15.1736C9.41506 18.9304 8.75435 23.0288 8.75435 27.1271ZM28.2452 23.1995L28.5756 41.813L43.1111 14.6613C41.129 15.1735 39.1469 15.8566 37.3299 17.052L36.8344 17.3935L28.2452 23.1995ZM12.2231 14.3197L27.2542 41.813L26.9238 23.1995L17.1784 16.0274C15.5266 15.1736 13.8748 14.6613 12.2231 14.3197ZM27.9149 2.70766L28.2452 21.6626L36.0085 16.1981C34.0264 11.0752 30.3925 3.73225 27.9149 2.70766ZM18.4998 15.0028L26.7586 21.3211L26.4283 2.70766C23.1247 6.29374 20.4819 10.3921 18.4998 15.0028Z" fill="#6DB5FF"/>
<path d="M65.944 47H75.118L79.804 35.318H102.046L106.798 47H115.972L98.548 5.486C96.898 1.592 94.918 0.272 90.958 0.272C86.8 0.272 85.018 1.592 83.368 5.486L65.944 47ZM89.638 10.304C89.902 9.578 90.364 8.39 90.958 8.39C91.552 8.39 92.014 9.578 92.278 10.304L99.802 29.114H82.048L89.638 10.304ZM117.463 47H146.503C153.631 47 156.403 41.918 156.403 35.12C156.403 27.86 153.499 25.022 146.767 22.91L129.871 17.564C126.175 16.376 125.845 14.396 125.845 12.35C125.845 9.05 127.561 7.73 129.739 7.73H154.027V0.799997H127.429C120.103 0.799997 116.869 5.354 116.869 11.954C116.869 18.29 118.651 22.184 124.723 24.098L142.939 29.84C146.965 31.094 147.427 33.272 147.427 35.054C147.427 36.638 147.229 40.07 143.071 40.07H117.463V47ZM184.48 47V7.73H202.564V0.799997H157.75V7.73H175.768V47H184.48ZM215.217 47V0.799997H206.505V47H215.217ZM267.354 0.799997H258.906V34.856C258.906 35.186 258.906 35.978 258.18 35.978C257.586 35.978 257.454 35.318 257.124 34.856L237.522 3.902C236.268 1.856 234.354 0.272 230.196 0.272C225.774 0.272 223.134 2.582 223.134 6.542V47H231.582V13.076C231.582 12.086 232.176 11.756 232.506 11.756C232.704 11.756 232.836 11.888 233.562 12.878L253.032 43.634C255.078 46.868 257.652 47.528 260.49 47.528C264.252 47.528 267.354 45.68 267.354 40.994V0.799997Z" fill="#040D2D"/>
</svg>
