<svg width="22" height="22" viewBox="0 0 22 22" fill="none" xmlns="http://www.w3.org/2000/svg">
<path d="M18.1111 3.88889L17.3333 4.66667M1 11H2.11111H1ZM11 1V2.11111V1ZM19.8889 11H21H19.8889ZM3.88889 3.88889L4.66667 4.66667L3.88889 3.88889Z" stroke="#040D2D" stroke-linecap="round" stroke-linejoin="round"/>
<path d="M7.66656 15.4444C6.73375 14.7448 6.04471 13.7695 5.69704 12.6565C5.34937 11.5435 5.3607 10.3494 5.72943 9.24318C6.09815 8.137 6.80558 7.17488 7.7515 6.4931C8.69742 5.81132 9.83388 5.44444 10.9999 5.44444C12.1659 5.44444 13.3024 5.81132 14.2483 6.4931C15.1942 7.17488 15.9016 8.137 16.2704 9.24318C16.6391 10.3494 16.6504 11.5435 16.3027 12.6565C15.9551 13.7695 15.266 14.7448 14.3332 15.4444C13.8994 15.8739 13.5728 16.3994 13.3797 16.9785C13.1867 17.5576 13.1327 18.1739 13.2221 18.7778C13.2221 19.3671 12.988 19.9324 12.5712 20.3491C12.1545 20.7659 11.5893 21 10.9999 21C10.4105 21 9.84529 20.7659 9.42854 20.3491C9.0118 19.9324 8.77767 19.3671 8.77767 18.7778C8.86706 18.1739 8.81306 17.5576 8.62003 16.9785C8.42701 16.3994 8.10037 15.8739 7.66656 15.4444" stroke="#040D2D" stroke-linecap="round" stroke-linejoin="round"/>
<path d="M8.44434 16.5556H13.5554" stroke="#040D2D" stroke-linecap="round" stroke-linejoin="round"/>
</svg>
