<?xml version="1.0" encoding="iso-8859-1"?>
<!-- Generator: Adobe Illustrator 19.0.0, SVG Export Plug-In . SVG Version: 6.00 Build 0)  -->
<svg version="1.1" id="Capa_1" xmlns="http://www.w3.org/2000/svg" xmlns:xlink="http://www.w3.org/1999/xlink" x="0px" y="0px"
	 viewBox="0 0 512 512" style="enable-background:new 0 0 512 512;" xml:space="preserve">
<g>
	<circle style="fill:#54FEBD;" cx="244" cy="272" r="32"/>
	<circle style="fill:#54FEBD;" cx="268" cy="456" r="32"/>
	<circle style="fill:#54FEBD;" cx="460" cy="352" r="32"/>
	<circle style="fill:#54FEBD;" cx="76" cy="352" r="32"/>
	<circle style="fill:#54FEBD;" cx="244" cy="56" r="32"/>
	<circle style="fill:#54FEBD;" cx="436" cy="160" r="32"/>
	<circle style="fill:#54FEBD;" cx="52" cy="160" r="32"/>
</g>
<g>
	<path style="fill:#1D1B4C;" d="M68,344c-4.416,0-8-3.576-8-8V176c0-4.424,3.584-8,8-8s8,3.576,8,8v160
		C76,340.424,72.416,344,68,344z"/>
	<path style="fill:#1D1B4C;" d="M95.608,135.92c-2.752,0-5.432-1.424-6.92-3.968c-2.224-3.816-0.936-8.712,2.88-10.936
		l133.92-78.168c3.808-2.232,8.72-0.936,10.944,2.872c2.224,3.816,0.936,8.712-2.88,10.936l-133.92,78.168
		C98.368,135.568,96.976,135.92,95.608,135.92z"/>
	<path style="fill:#1D1B4C;" d="M452,344c-4.416,0-8-3.576-8-8V176c0-4.424,3.584-8,8-8s8,3.576,8,8v160
		C460,340.424,456.416,344,452,344z"/>
	<path style="fill:#1D1B4C;" d="M229.512,470.24c-1.368,0-2.76-0.352-4.024-1.096l-133.92-78.168
		c-3.816-2.224-5.104-7.128-2.88-10.936c2.224-3.824,7.128-5.112,10.944-2.872l133.92,78.168c3.816,2.224,5.104,7.128,2.88,10.936
		C234.944,468.824,232.264,470.24,229.512,470.24z"/>
	<path style="fill:#1D1B4C;" d="M290.488,470.24c-2.752,0-5.432-1.424-6.92-3.968c-2.224-3.816-0.936-8.712,2.88-10.936
		l133.92-78.168c3.816-2.24,8.72-0.936,10.944,2.872c2.224,3.816,0.936,8.712-2.88,10.936l-133.92,78.168
		C293.248,469.888,291.856,470.24,290.488,470.24z"/>
	<path style="fill:#1D1B4C;" d="M424.392,135.92c-1.368,0-2.76-0.352-4.024-1.096l-133.92-78.168
		c-3.816-2.224-5.104-7.128-2.88-10.936s7.128-5.12,10.944-2.872l133.92,78.168c3.816,2.224,5.104,7.128,2.88,10.936
		C429.824,134.504,427.144,135.92,424.392,135.92z"/>
	<path style="fill:#1D1B4C;" d="M260,80c-22.056,0-40-17.944-40-40s17.944-40,40-40s40,17.944,40,40S282.056,80,260,80z M260,16
		c-13.232,0-24,10.768-24,24s10.768,24,24,24s24-10.768,24-24S273.232,16,260,16z"/>
	<path style="fill:#1D1B4C;" d="M260,512c-22.056,0-40-17.944-40-40s17.944-40,40-40s40,17.944,40,40S282.056,512,260,512z M260,448
		c-13.232,0-24,10.768-24,24s10.768,24,24,24s24-10.768,24-24S273.232,448,260,448z"/>
	<path style="fill:#1D1B4C;" d="M452,408c-22.056,0-40-17.944-40-40s17.944-40,40-40s40,17.944,40,40S474.056,408,452,408z M452,344
		c-13.232,0-24,10.768-24,24s10.768,24,24,24s24-10.768,24-24S465.232,344,452,344z"/>
	<path style="fill:#1D1B4C;" d="M452,184c-22.056,0-40-17.944-40-40s17.944-40,40-40s40,17.944,40,40S474.056,184,452,184z M452,120
		c-13.232,0-24,10.768-24,24s10.768,24,24,24s24-10.768,24-24S465.232,120,452,120z"/>
	<path style="fill:#1D1B4C;" d="M68,184c-22.056,0-40-17.944-40-40s17.944-40,40-40s40,17.944,40,40S90.056,184,68,184z M68,120
		c-13.232,0-24,10.768-24,24s10.768,24,24,24s24-10.768,24-24S81.232,120,68,120z"/>
	<path style="fill:#1D1B4C;" d="M68,408c-22.056,0-40-17.944-40-40s17.944-40,40-40s40,17.944,40,40S90.056,408,68,408z M68,344
		c-13.232,0-24,10.768-24,24s10.768,24,24,24s24-10.768,24-24S81.232,344,68,344z"/>
	<path style="fill:#1D1B4C;" d="M260,448c-4.416,0-8-3.576-8-8V288c0-4.424,3.584-8,8-8c4.416,0,8,3.576,8,8v152
		C268,444.424,264.416,448,260,448z"/>
	<path style="fill:#1D1B4C;" d="M260,232c-4.416,0-8-3.576-8-8V72c0-4.424,3.584-8,8-8c4.416,0,8,3.576,8,8v152
		C268,228.424,264.416,232,260,232z"/>
	<path style="fill:#1D1B4C;" d="M232.392,247.92c-1.368,0-2.76-0.352-4.024-1.096l-136.8-79.84
		c-3.816-2.224-5.104-7.128-2.88-10.936c2.224-3.824,7.128-5.12,10.944-2.872l136.8,79.84c3.816,2.224,5.104,7.128,2.88,10.936
		C237.824,246.504,235.144,247.92,232.392,247.92z"/>
	<path style="fill:#1D1B4C;" d="M287.608,247.92c-2.752,0-5.432-1.424-6.92-3.968c-2.224-3.816-0.936-8.712,2.88-10.936l136.8-79.84
		c3.816-2.24,8.72-0.936,10.944,2.872c2.224,3.816,0.936,8.712-2.88,10.936l-136.8,79.84
		C290.368,247.568,288.976,247.92,287.608,247.92z"/>
	<path style="fill:#1D1B4C;" d="M424.392,359.92c-1.368,0-2.76-0.352-4.024-1.096l-136.8-79.84
		c-3.816-2.224-5.104-7.128-2.88-10.936c2.224-3.824,7.128-5.112,10.944-2.872l136.8,79.84c3.816,2.224,5.104,7.128,2.88,10.936
		C429.824,358.504,427.144,359.92,424.392,359.92z"/>
	<path style="fill:#1D1B4C;" d="M95.608,359.92c-2.752,0-5.432-1.424-6.92-3.968c-2.224-3.816-0.936-8.712,2.88-10.936l136.8-79.84
		c3.816-2.24,8.712-0.936,10.944,2.872s0.936,8.712-2.88,10.936l-136.8,79.84C98.368,359.568,96.976,359.92,95.608,359.92z"/>
	<path style="fill:#1D1B4C;" d="M260,296c-22.056,0-40-17.944-40-40s17.944-40,40-40s40,17.944,40,40S282.056,296,260,296z M260,232
		c-13.232,0-24,10.768-24,24s10.768,24,24,24s24-10.768,24-24S273.232,232,260,232z"/>
	<path style="fill:#1D1B4C;" d="M84.152,348.4c-1.368,0-2.76-0.352-4.032-1.096c-3.816-2.232-5.096-7.136-2.856-10.944l159.68-272.8
		c2.232-3.824,7.112-5.104,10.944-2.864c3.816,2.232,5.096,7.136,2.856,10.944l-159.68,272.8
		C89.576,346.984,86.904,348.4,84.152,348.4z"/>
	<path style="fill:#1D1B4C;" d="M435.848,348.4c-2.752,0-5.424-1.416-6.912-3.96l-159.68-272.8
		c-2.232-3.816-0.952-8.712,2.856-10.944c3.832-2.224,8.712-0.944,10.944,2.864l159.68,272.8c2.232,3.816,0.952,8.712-2.856,10.944
		C438.608,348.048,437.216,348.4,435.848,348.4z"/>
	<path style="fill:#1D1B4C;" d="M420,376H100c-4.416,0-8-3.576-8-8s3.584-8,8-8h320c4.416,0,8,3.576,8,8S424.416,376,420,376z"/>
</g>
<g>
</g>
<g>
</g>
<g>
</g>
<g>
</g>
<g>
</g>
<g>
</g>
<g>
</g>
<g>
</g>
<g>
</g>
<g>
</g>
<g>
</g>
<g>
</g>
<g>
</g>
<g>
</g>
<g>
</g>
</svg>
