<svg width="26" height="26" viewBox="0 0 26 26" fill="none" xmlns="http://www.w3.org/2000/svg">
<mask id="path-1-inside-1_186_851" fill="white">
<path d="M13.0003 18.4927C16.0256 18.4927 18.487 16.0288 18.487 12.9999C18.487 9.971 16.0256 7.50708 13.0003 7.50708C9.97509 7.50708 7.51367 9.971 7.51367 12.9999C7.51367 16.0288 9.97509 18.4927 13.0003 18.4927Z"/>
</mask>
<path d="M13.0003 18.4927C16.0256 18.4927 18.487 16.0288 18.487 12.9999C18.487 9.971 16.0256 7.50708 13.0003 7.50708C9.97509 7.50708 7.51367 9.971 7.51367 12.9999C7.51367 16.0288 9.97509 18.4927 13.0003 18.4927Z" fill="#F7E63E"/>
<path d="M13.0003 20.6564C17.2228 20.6564 20.6507 17.2215 20.6507 12.9999H16.3233C16.3233 14.836 14.8284 16.329 13.0003 16.329V20.6564ZM20.6507 12.9999C20.6507 8.77823 17.2228 5.34336 13.0003 5.34336V9.6708C14.8284 9.6708 16.3233 11.1638 16.3233 12.9999H20.6507ZM13.0003 5.34336C8.77788 5.34336 5.34996 8.77823 5.34996 12.9999H9.67739C9.67739 11.1638 11.1723 9.6708 13.0003 9.6708V5.34336ZM5.34996 12.9999C5.34996 17.2215 8.77788 20.6564 13.0003 20.6564V16.329C11.1723 16.329 9.67739 14.836 9.67739 12.9999H5.34996Z" fill="#040D2D" mask="url(#path-1-inside-1_186_851)"/>
<path d="M3.4351 20.4106C3.48161 20.4156 3.52759 20.418 3.57358 20.418C3.91819 20.418 4.24791 20.2822 4.49455 20.0353L5.63239 18.8965C6.05643 18.4719 6.13558 17.8141 5.82494 17.2965C5.04923 16.0012 4.6393 14.5155 4.6393 13.0001C4.6393 11.4846 5.04923 9.99889 5.8252 8.70442C6.13558 8.18653 6.05668 7.52844 5.63264 7.10392L4.49481 5.96508C4.21525 5.68494 3.83067 5.54684 3.4351 5.58947C3.03902 5.63132 2.68762 5.84737 2.4705 6.1827C1.15449 8.21451 0.458984 10.5717 0.458984 13.0001C0.458984 15.4284 1.15449 17.7856 2.47025 19.8174C2.68736 20.1525 3.03902 20.3688 3.4351 20.4106Z" fill="url(#paint0_linear_186_851)"/>
<path d="M22.5647 5.58947C22.17 5.54632 21.7848 5.68468 21.505 5.96482L20.3672 7.10392C19.9431 7.52844 19.864 8.18627 20.1746 8.7039C20.9506 9.99889 21.3605 11.4846 21.3605 13.0001C21.3605 14.5155 20.9506 16.0012 20.1746 17.2957C19.8642 17.8136 19.9431 18.4717 20.3672 18.8962L21.505 20.035C21.7517 20.2822 22.0814 20.418 22.426 20.418C22.472 20.418 22.5182 20.4156 22.5645 20.4106C22.9605 20.3688 23.312 20.1527 23.5291 19.8174C24.8453 17.7856 25.5408 15.4284 25.5408 13.0001C25.5408 10.5717 24.8453 8.21451 23.5296 6.1827C23.3125 5.84764 22.9608 5.63132 22.5647 5.58947Z" fill="url(#paint1_linear_186_851)"/>
<path d="M20.4022 3.42426C20.3604 3.02773 20.1443 2.67593 19.8094 2.45857C17.7801 1.14135 15.4253 0.445068 12.9999 0.445068C10.5746 0.445068 8.21974 1.14135 6.19046 2.45857C5.85577 2.67593 5.63971 3.02773 5.59764 3.42426C5.5561 3.81844 5.69274 4.20503 5.97282 4.48542L7.11066 5.62452C7.53391 6.04852 8.19126 6.12829 8.70857 5.81756C10.0024 5.04072 11.4864 4.63006 12.9999 4.63006C14.5135 4.63006 15.9975 5.04072 17.2913 5.81756C17.5024 5.94415 17.7362 6.00588 17.9685 6.00588C18.3058 6.00588 18.6384 5.87562 18.8892 5.62452L20.027 4.48542C20.3071 4.20503 20.4437 3.81817 20.4022 3.42426Z" fill="url(#paint2_linear_186_851)"/>
<path d="M5.97282 21.5147C5.693 21.7951 5.5561 22.1817 5.59764 22.5758C5.63944 22.9724 5.85551 23.3242 6.19046 23.5415C8.21974 24.8588 10.5746 25.555 12.9999 25.555C15.4253 25.555 17.7801 24.8588 19.8094 23.5415C20.1441 23.3242 20.3601 22.9724 20.4022 22.5758C20.4437 22.1817 20.3071 21.7951 20.027 21.5147L18.8892 20.3756C18.4659 19.9516 17.8083 19.8718 17.2913 20.1825C15.9975 20.9594 14.5135 21.37 12.9999 21.37C11.4864 21.37 10.0024 20.9594 8.70857 20.1825C8.191 19.8721 7.5339 19.9513 7.11064 20.3756L5.97282 21.5147Z" fill="url(#paint3_linear_186_851)"/>
<defs>
<linearGradient id="paint0_linear_186_851" x1="40.2478" y1="22.6118" x2="-173.256" y2="-38.2965" gradientUnits="userSpaceOnUse">
<stop stop-color="#4968EB"/>
<stop offset="1" stop-color="#5DC1E0"/>
</linearGradient>
<linearGradient id="paint1_linear_186_851" x1="40.2478" y1="22.6118" x2="-173.256" y2="-38.2965" gradientUnits="userSpaceOnUse">
<stop stop-color="#4968EB"/>
<stop offset="1" stop-color="#5DC1E0"/>
</linearGradient>
<linearGradient id="paint2_linear_186_851" x1="40.2478" y1="22.6118" x2="-173.256" y2="-38.2965" gradientUnits="userSpaceOnUse">
<stop stop-color="#4968EB"/>
<stop offset="1" stop-color="#5DC1E0"/>
</linearGradient>
<linearGradient id="paint3_linear_186_851" x1="40.2478" y1="22.6118" x2="-173.256" y2="-38.2965" gradientUnits="userSpaceOnUse">
<stop stop-color="#4968EB"/>
<stop offset="1" stop-color="#5DC1E0"/>
</linearGradient>
</defs>
</svg>
