<svg width="24" height="24" viewBox="0 0 24 24" fill="none" xmlns="http://www.w3.org/2000/svg">
<path d="M17.9898 1.59595C16.981 1.48894 15.9672 1.43686 14.9528 1.43995C11.5898 1.43995 9.4998 3.58195 9.4998 7.02995V9.37095H6.6748C6.5422 9.37095 6.41502 9.42363 6.32125 9.5174C6.22748 9.61116 6.1748 9.73834 6.1748 9.87095V13.7209C6.1748 13.8536 6.22748 13.9807 6.32125 14.0745C6.41502 14.1683 6.5422 14.2209 6.6748 14.2209H9.4998V21.9409C9.4998 22.0736 9.55248 22.2007 9.64625 22.2945C9.74002 22.3883 9.8672 22.4409 9.9998 22.4409H13.9778C14.1104 22.4409 14.2376 22.3883 14.3314 22.2945C14.4251 22.2007 14.4778 22.0736 14.4778 21.9409V14.2209H17.2938C17.4152 14.221 17.5325 14.1769 17.6237 14.0969C17.715 14.0168 17.774 13.9063 17.7898 13.7859L18.2868 9.93595C18.2961 9.86538 18.2901 9.79365 18.2694 9.72556C18.2487 9.65746 18.2138 9.59457 18.1668 9.54108C18.1198 9.4876 18.062 9.44475 17.9972 9.41541C17.9323 9.38607 17.862 9.37091 17.7908 9.37095H14.4778V7.41195C14.4778 6.44195 14.6728 6.03695 15.8858 6.03695H17.9248C18.0574 6.03695 18.1846 5.98427 18.2784 5.8905C18.3721 5.79673 18.4248 5.66956 18.4248 5.53695V2.09195C18.4249 1.97056 18.3808 1.85329 18.3007 1.76202C18.2207 1.67076 18.1102 1.61173 17.9898 1.59595ZM17.4248 5.03595L15.8848 5.03695C13.7278 5.03695 13.4778 6.39295 13.4778 7.41195V9.87195C13.4778 10.0044 13.5303 10.1314 13.6239 10.2251C13.7174 10.3189 13.8444 10.3717 13.9768 10.3719H17.2228L16.8538 13.2219H13.9778C13.8452 13.2219 13.718 13.2746 13.6243 13.3684C13.5305 13.4622 13.4778 13.5893 13.4778 13.7219V21.4399H10.4998V13.7219C10.4998 13.5893 10.4471 13.4622 10.3534 13.3684C10.2596 13.2746 10.1324 13.2219 9.9998 13.2219H7.1758V10.3719H9.9998C10.1324 10.3719 10.2596 10.3193 10.3534 10.2255C10.4471 10.1317 10.4998 10.0046 10.4998 9.87195V7.02995C10.4998 4.15595 12.1648 2.43995 14.9528 2.43995C15.9618 2.43995 16.8728 2.49495 17.4248 2.54295V5.03595Z" fill="white"/>
</svg>
