<svg width="15" height="20" viewBox="0 0 15 20" fill="none" xmlns="http://www.w3.org/2000/svg">
<path d="M7.49981 1.25372C9.15669 1.25554 10.7451 1.916 11.9167 3.09021C13.0883 4.26441 13.7473 5.85647 13.7491 7.51708C13.7491 12.0067 8.74774 17.1012 7.49981 18.3022C6.25255 17.1019 1.25085 12.0073 1.25085 7.51708C1.25273 5.85652 1.9117 4.26449 3.08321 3.0903C4.25472 1.91609 5.8431 1.25561 7.49981 1.25372ZM7.49981 0C5.51147 0.00230058 3.60519 0.795015 2.19919 2.20424C0.79319 3.61347 0.00229323 5.52414 0 7.51708C0 13.1694 6.65857 19.2413 6.94202 19.4968L7.49981 20L8.05761 19.4968C8.34113 19.2413 15 13.1697 15 7.51708C14.9977 5.52409 14.2067 3.61342 12.8007 2.2042C11.3946 0.794975 9.48825 0.00227834 7.49981 0Z" fill="#040D2D"/>
<path d="M7.49924 5.97581C7.80436 5.97581 8.10265 6.06649 8.35632 6.2364C8.60999 6.4063 8.8078 6.64779 8.92454 6.93034C9.04129 7.21288 9.07181 7.52378 9.01235 7.82373C8.95281 8.12367 8.80588 8.39917 8.59006 8.6154C8.37433 8.83171 8.09948 8.97898 7.80019 9.03866C7.50099 9.09825 7.19078 9.06766 6.90884 8.95064C6.62698 8.83363 6.38606 8.63537 6.21653 8.38112C6.047 8.12684 5.95652 7.82789 5.95652 7.52207C5.95702 7.11212 6.11963 6.71909 6.40891 6.42921C6.69811 6.13933 7.09021 5.97628 7.49924 5.97581ZM7.49924 4.80566C6.96321 4.80566 6.43927 4.96498 5.99355 5.26346C5.54786 5.56194 5.20049 5.98619 4.99536 6.48255C4.79024 6.9789 4.73657 7.52508 4.84114 8.05201C4.94571 8.57896 5.20383 9.06298 5.58286 9.44286C5.96186 9.82274 6.44477 10.0815 6.97055 10.1863C7.49624 10.2911 8.04119 10.2373 8.53636 10.0317C9.03161 9.82608 9.4549 9.47796 9.75269 9.03122C10.0505 8.58447 10.2094 8.05932 10.2094 7.52207C10.2094 6.80164 9.92389 6.11071 9.41563 5.60128C8.90736 5.09186 8.21806 4.80566 7.49924 4.80566Z" fill="#040D2D"/>
</svg>
