<svg width="35" height="36" viewBox="0 0 35 36" fill="none" xmlns="http://www.w3.org/2000/svg">
<mask id="path-1-inside-1_324_979" fill="white">
<path d="M17.3645 25.4889C21.5533 25.4889 24.9614 22.0773 24.9614 17.8835C24.9614 13.6897 21.5533 10.2781 17.3645 10.2781C13.1757 10.2781 9.76758 13.6897 9.76758 17.8835C9.76758 22.0773 13.1757 25.4889 17.3645 25.4889Z"/>
</mask>
<path d="M17.3645 25.4889C21.5533 25.4889 24.9614 22.0773 24.9614 17.8835C24.9614 13.6897 21.5533 10.2781 17.3645 10.2781C13.1757 10.2781 9.76758 13.6897 9.76758 17.8835C9.76758 22.0773 13.1757 25.4889 17.3645 25.4889Z" fill="#F7E63E"/>
<path d="M17.3645 29.9828C24.0398 29.9828 29.4553 24.5546 29.4553 17.8835H20.4675C20.4675 19.6001 19.0668 20.995 17.3645 20.995V29.9828ZM29.4553 17.8835C29.4553 11.2124 24.0398 5.7842 17.3645 5.7842V14.7719C19.0668 14.7719 20.4675 16.1669 20.4675 17.8835H29.4553ZM17.3645 5.7842C10.6892 5.7842 5.2737 11.2124 5.2737 17.8835H14.2615C14.2615 16.1669 15.6622 14.7719 17.3645 14.7719V5.7842ZM5.2737 17.8835C5.2737 24.5546 10.6892 29.9828 17.3645 29.9828V20.995C15.6622 20.995 14.2615 19.6001 14.2615 17.8835H5.2737Z" fill="#040D2D" mask="url(#path-1-inside-1_324_979)"/>
<path d="M4.12078 28.1446C4.18517 28.1515 4.24884 28.1548 4.31251 28.1548C4.78967 28.1548 5.24621 27.9668 5.58771 27.6249L7.16317 26.0481C7.7503 25.4603 7.85991 24.5494 7.42978 23.8327C6.35572 22.0393 5.78813 19.9822 5.78813 17.8838C5.78813 15.7855 6.35572 13.7284 7.43014 11.936C7.85991 11.2189 7.75066 10.3077 7.16353 9.71995L5.58807 8.14309C5.20099 7.75521 4.66848 7.56399 4.12078 7.62302C3.57236 7.68097 3.0858 7.98012 2.78518 8.44441C0.96301 11.2577 0 14.5215 0 17.8838C0 21.2462 0.963012 24.51 2.78482 27.3232C3.08544 27.7872 3.57236 28.0867 4.12078 28.1446Z" fill="url(#paint0_linear_324_979)"/>
<path d="M30.608 7.62302C30.0613 7.56327 29.5281 7.75485 29.1407 8.14273L27.5652 9.71995C26.978 10.3077 26.8685 11.2186 27.2986 11.9353C28.373 13.7284 28.9406 15.7855 28.9406 17.8838C28.9406 19.9822 28.373 22.0393 27.2986 23.8316C26.8688 24.5487 26.978 25.4599 27.5652 26.0477L29.1407 27.6246C29.4822 27.9668 29.9387 28.1548 30.4158 28.1548C30.4795 28.1548 30.5435 28.1515 30.6076 28.1446C31.156 28.0867 31.6426 27.7875 31.9432 27.3233C33.7657 24.51 34.7287 21.2462 34.7287 17.8838C34.7287 14.5215 33.7657 11.2577 31.9439 8.44441C31.6433 7.98048 31.1564 7.68097 30.608 7.62302Z" fill="url(#paint1_linear_324_979)"/>
<path d="M27.6137 4.62504C27.5558 4.076 27.2566 3.58889 26.7929 3.28793C23.9831 1.46408 20.7226 0.5 17.3644 0.5C14.0062 0.5 10.7457 1.46408 7.93589 3.28793C7.47248 3.58889 7.17331 4.076 7.11506 4.62504C7.05754 5.17082 7.24674 5.70609 7.63455 6.09433L9.21001 7.67155C9.79605 8.25862 10.7062 8.36908 11.4225 7.93883C13.2139 6.8632 15.2687 6.29461 17.3644 6.29461C19.46 6.29461 21.5148 6.8632 23.3062 7.93883C23.5985 8.11412 23.9223 8.19959 24.2439 8.19959C24.711 8.19959 25.1715 8.01923 25.5188 7.67155L27.0942 6.09433C27.482 5.70609 27.6712 5.17046 27.6137 4.62504Z" fill="url(#paint2_linear_324_979)"/>
<path d="M7.63455 29.6733C7.2471 30.0616 7.05754 30.5968 7.11506 31.1426C7.17294 31.6916 7.47212 32.1788 7.93589 32.4797C10.7457 34.3036 14.0062 35.2677 17.3644 35.2677C20.7226 35.2677 23.9831 34.3036 26.7929 32.4797C27.2563 32.1788 27.5554 31.6916 27.6137 31.1426C27.6712 30.5968 27.482 30.0616 27.0942 29.6733L25.5187 28.0961C24.9327 27.509 24.0221 27.3986 23.3062 27.8288C21.5148 28.9044 19.46 29.473 17.3644 29.473C15.2687 29.473 13.2139 28.9044 11.4225 27.8288C10.7059 27.3989 9.79603 27.5087 9.20999 28.0961L7.63455 29.6733Z" fill="url(#paint3_linear_324_979)"/>
<defs>
<linearGradient id="paint0_linear_324_979" x1="55.0922" y1="31.1924" x2="-240.529" y2="-53.1422" gradientUnits="userSpaceOnUse">
<stop stop-color="#4968EB"/>
<stop offset="1" stop-color="#5DC1E0"/>
</linearGradient>
<linearGradient id="paint1_linear_324_979" x1="55.0922" y1="31.1924" x2="-240.529" y2="-53.1422" gradientUnits="userSpaceOnUse">
<stop stop-color="#4968EB"/>
<stop offset="1" stop-color="#5DC1E0"/>
</linearGradient>
<linearGradient id="paint2_linear_324_979" x1="55.0922" y1="31.1924" x2="-240.529" y2="-53.1422" gradientUnits="userSpaceOnUse">
<stop stop-color="#4968EB"/>
<stop offset="1" stop-color="#5DC1E0"/>
</linearGradient>
<linearGradient id="paint3_linear_324_979" x1="55.0922" y1="31.1924" x2="-240.529" y2="-53.1422" gradientUnits="userSpaceOnUse">
<stop stop-color="#4968EB"/>
<stop offset="1" stop-color="#5DC1E0"/>
</linearGradient>
</defs>
</svg>
