<svg width="20" height="20" viewBox="0 0 20 20" fill="none" xmlns="http://www.w3.org/2000/svg">
<mask id="path-1-inside-1_530_1128" fill="white">
<path d="M10.2028 14.1605C12.5299 14.1605 14.4233 12.2652 14.4233 9.93532C14.4233 7.6054 12.5299 5.71008 10.2028 5.71008C7.8757 5.71008 5.9823 7.6054 5.9823 9.93532C5.9823 12.2652 7.8757 14.1605 10.2028 14.1605Z"/>
</mask>
<path d="M10.2028 14.1605C12.5299 14.1605 14.4233 12.2652 14.4233 9.93532C14.4233 7.6054 12.5299 5.71008 10.2028 5.71008C7.8757 5.71008 5.9823 7.6054 5.9823 9.93532C5.9823 12.2652 7.8757 14.1605 10.2028 14.1605Z" fill="#F7E63E"/>
<path d="M10.2028 15.1605C13.0832 15.1605 15.4233 12.8165 15.4233 9.93532H13.4233C13.4233 11.714 11.9766 13.1605 10.2028 13.1605V15.1605ZM15.4233 9.93532C15.4233 7.05414 13.0832 4.71008 10.2028 4.71008V6.71008C11.9766 6.71008 13.4233 8.15666 13.4233 9.93532H15.4233ZM10.2028 4.71008C7.32239 4.71008 4.9823 7.05414 4.9823 9.93532H6.9823C6.9823 8.15666 8.42901 6.71008 10.2028 6.71008V4.71008ZM4.9823 9.93532C4.9823 12.8165 7.32239 15.1605 10.2028 15.1605V13.1605C8.42901 13.1605 6.9823 11.714 6.9823 9.93532H4.9823Z" fill="#040D2D" mask="url(#path-1-inside-1_530_1128)"/>
<path d="M2.84487 15.6359C2.88064 15.6397 2.91601 15.6415 2.95138 15.6415C3.21647 15.6415 3.4701 15.5371 3.65983 15.3472L4.53508 14.4711C4.86127 14.1446 4.92216 13.6386 4.6832 13.2404C4.0865 12.244 3.77117 11.1012 3.77117 9.93545C3.77117 8.76969 4.0865 7.62686 4.6834 6.63112C4.92216 6.23274 4.86147 5.72651 4.53528 5.39996L3.66002 4.52393C3.44498 4.30844 3.14914 4.20221 2.84487 4.23501C2.54018 4.2672 2.26988 4.43339 2.10287 4.69133C1.09055 6.25427 0.555542 8.0675 0.555542 9.93545C0.555542 11.8034 1.09055 13.6166 2.10267 15.1796C2.26968 15.4373 2.54018 15.6037 2.84487 15.6359Z" fill="url(#paint0_linear_530_1128)"/>
<path d="M17.56 4.23501C17.2563 4.20181 16.96 4.30824 16.7448 4.52373L15.8695 5.39996C15.5433 5.72651 15.4825 6.23254 15.7214 6.63072C16.3183 7.62687 16.6337 8.76969 16.6337 9.93545C16.6337 11.1012 16.3183 12.244 15.7214 13.2398C15.4827 13.6382 15.5433 14.1444 15.8695 14.4709L16.7448 15.347C16.9345 15.5371 17.1881 15.6415 17.4532 15.6415C17.4886 15.6415 17.5242 15.6397 17.5597 15.6359C17.8644 15.6037 18.1347 15.4375 18.3018 15.1796C19.3143 13.6166 19.8493 11.8034 19.8493 9.93545C19.8493 8.0675 19.3143 6.25427 18.3022 4.69133C18.1351 4.43359 17.8646 4.2672 17.56 4.23501Z" fill="url(#paint1_linear_530_1128)"/>
<path d="M15.8965 2.56946C15.8643 2.26444 15.6981 1.99382 15.4405 1.82662C13.8795 0.81337 12.0681 0.277771 10.2024 0.277771C8.33675 0.277771 6.52535 0.81337 4.96437 1.82662C4.70692 1.99382 4.54071 2.26444 4.50835 2.56946C4.4764 2.87267 4.58151 3.17005 4.79696 3.38573L5.67221 4.26197C5.99779 4.58811 6.50345 4.64948 6.90138 4.41045C7.89661 3.81288 9.03816 3.497 10.2024 3.497C11.3667 3.497 12.5082 3.81288 13.5035 4.41045C13.6658 4.50783 13.8457 4.55532 14.0244 4.55532C14.2839 4.55532 14.5397 4.45512 14.7326 4.26197L15.6079 3.38573C15.8233 3.17005 15.9284 2.87247 15.8965 2.56946Z" fill="url(#paint2_linear_530_1128)"/>
<path d="M4.79696 16.4852C4.58171 16.7009 4.4764 16.9982 4.50835 17.3014C4.54051 17.6065 4.70672 17.8771 4.96437 18.0443C6.52535 19.0575 8.33675 19.5931 10.2024 19.5931C12.0681 19.5931 13.8795 19.0575 15.4405 18.0443C15.6979 17.8771 15.8641 17.6065 15.8965 17.3014C15.9284 16.9982 15.8233 16.7009 15.6079 16.4852L14.7326 15.6089C14.407 15.2828 13.9012 15.2214 13.5034 15.4604C12.5082 16.058 11.3667 16.3739 10.2024 16.3739C9.03816 16.3739 7.89661 16.058 6.90138 15.4604C6.50324 15.2216 5.99778 15.2826 5.6722 15.6089L4.79696 16.4852Z" fill="url(#paint3_linear_530_1128)"/>
<defs>
<linearGradient id="paint0_linear_530_1128" x1="31.1623" y1="17.3291" x2="-133.072" y2="-29.5234" gradientUnits="userSpaceOnUse">
<stop stop-color="#4968EB"/>
<stop offset="1" stop-color="#5DC1E0"/>
</linearGradient>
<linearGradient id="paint1_linear_530_1128" x1="31.1623" y1="17.3291" x2="-133.072" y2="-29.5234" gradientUnits="userSpaceOnUse">
<stop stop-color="#4968EB"/>
<stop offset="1" stop-color="#5DC1E0"/>
</linearGradient>
<linearGradient id="paint2_linear_530_1128" x1="31.1623" y1="17.3291" x2="-133.072" y2="-29.5234" gradientUnits="userSpaceOnUse">
<stop stop-color="#4968EB"/>
<stop offset="1" stop-color="#5DC1E0"/>
</linearGradient>
<linearGradient id="paint3_linear_530_1128" x1="31.1623" y1="17.3291" x2="-133.072" y2="-29.5234" gradientUnits="userSpaceOnUse">
<stop stop-color="#4968EB"/>
<stop offset="1" stop-color="#5DC1E0"/>
</linearGradient>
</defs>
</svg>
