<svg width="24" height="24" viewBox="0 0 24 24" fill="none" xmlns="http://www.w3.org/2000/svg">
<path d="M12.5 7.57143C11.5252 7.57143 10.5723 7.86048 9.76183 8.40204C8.95133 8.9436 8.31963 9.71334 7.94659 10.6139C7.57356 11.5145 7.47596 12.5055 7.66613 13.4615C7.8563 14.4176 8.3257 15.2958 9.01497 15.985C9.70425 16.6743 10.5824 17.1437 11.5385 17.3339C12.4945 17.524 13.4855 17.4264 14.3861 17.0534C15.2867 16.6804 16.0564 16.0487 16.598 15.2382C17.1395 14.4277 17.4286 13.4748 17.4286 12.5C17.4286 11.1929 16.9093 9.93926 15.985 9.01497C15.0607 8.09069 13.8071 7.57143 12.5 7.57143ZM12.5 16.1429C11.7795 16.1429 11.0752 15.9292 10.4761 15.5289C9.87707 15.1286 9.41016 14.5597 9.13444 13.8941C8.85872 13.2284 8.78658 12.496 8.92714 11.7893C9.0677 11.0827 9.41465 10.4336 9.92411 9.92411C10.4336 9.41465 11.0827 9.0677 11.7893 8.92714C12.496 8.78658 13.2284 8.85872 13.8941 9.13444C14.5597 9.41016 15.1286 9.87707 15.5289 10.4761C15.9292 11.0752 16.1429 11.7795 16.1429 12.5C16.14 13.4653 15.7553 14.3902 15.0728 15.0728C14.3902 15.7553 13.4653 16.14 12.5 16.1429ZM17.2143 2H7.78571C6.25125 2 4.77963 2.60956 3.6946 3.6946C2.60956 4.77963 2 6.25125 2 7.78571V17.2143C2 18.7488 2.60956 20.2204 3.6946 21.3054C4.77963 22.3904 6.25125 23 7.78571 23H17.2143C18.7488 23 20.2204 22.3904 21.3054 21.3054C22.3904 20.2204 23 18.7488 23 17.2143V7.78571C23 6.25125 22.3904 4.77963 21.3054 3.6946C20.2204 2.60956 18.7488 2 17.2143 2ZM21.7143 17.2143C21.7143 18.4078 21.2402 19.5524 20.3963 20.3963C19.5524 21.2402 18.4078 21.7143 17.2143 21.7143H7.78571C6.59224 21.7143 5.44765 21.2402 4.60373 20.3963C3.75982 19.5524 3.28571 18.4078 3.28571 17.2143V7.78571C3.28571 6.59224 3.75982 5.44765 4.60373 4.60373C5.44765 3.75982 6.59224 3.28571 7.78571 3.28571H17.2143C18.4078 3.28571 19.5524 3.75982 20.3963 4.60373C21.2402 5.44765 21.7143 6.59224 21.7143 7.78571V17.2143ZM19.1429 6.92857C19.1429 7.14048 19.08 7.34763 18.9623 7.52383C18.8446 7.70002 18.6772 7.83735 18.4814 7.91844C18.2857 7.99954 18.0702 8.02075 17.8624 7.97941C17.6546 7.93807 17.4637 7.83603 17.3138 7.68619C17.164 7.53634 17.0619 7.34543 17.0206 7.1376C16.9792 6.92976 17.0005 6.71433 17.0816 6.51855C17.1627 6.32278 17.3 6.15544 17.4762 6.03771C17.6524 5.91998 17.8595 5.85714 18.0714 5.85714C18.3556 5.85714 18.6281 5.97003 18.829 6.17096C19.03 6.37189 19.1429 6.64441 19.1429 6.92857Z" fill="white"/>
</svg>
