<svg width="97" height="23" viewBox="0 0 97 23" fill="none" xmlns="http://www.w3.org/2000/svg">
<path d="M0.52 22H4.69L6.82 16.69H16.93L19.09 22H23.26L15.34 3.13C14.59 1.36 13.69 0.76 11.89 0.76C10 0.76 9.19 1.36 8.44 3.13L0.52 22ZM11.29 5.32C11.41 4.99 11.62 4.45 11.89 4.45C12.16 4.45 12.37 4.99 12.49 5.32L15.91 13.87H7.84L11.29 5.32ZM24.9376 22H38.1376C41.3776 22 42.6376 19.69 42.6376 16.6C42.6376 13.3 41.3176 12.01 38.2576 11.05L30.5776 8.62C28.8976 8.08 28.7476 7.18 28.7476 6.25C28.7476 4.75 29.5276 4.15 30.5176 4.15H41.5576V0.999999H29.4676C26.1376 0.999999 24.6676 3.07 24.6676 6.07C24.6676 8.95 25.4776 10.72 28.2376 11.59L36.5176 14.2C38.3476 14.77 38.5576 15.76 38.5576 16.57C38.5576 17.29 38.4676 18.85 36.5776 18.85H24.9376V22ZM56.4 22V4.15H64.62V0.999999H44.25V4.15H52.44V22H56.4ZM71.3713 22V0.999999H67.4113V22H71.3713ZM96.0699 0.999999H92.2299V16.48C92.2299 16.63 92.2299 16.99 91.8999 16.99C91.6299 16.99 91.5699 16.69 91.4199 16.48L82.5099 2.41C81.9399 1.48 81.0699 0.76 79.1799 0.76C77.1699 0.76 75.9699 1.81 75.9699 3.61V22H79.8099V6.58C79.8099 6.13 80.0799 5.98 80.2299 5.98C80.3199 5.98 80.3799 6.04 80.7099 6.49L89.5599 20.47C90.4899 21.94 91.6599 22.24 92.9499 22.24C94.6599 22.24 96.0699 21.4 96.0699 19.27V0.999999Z" fill="#040D2D"/>
</svg>
