<svg width="65" height="16" viewBox="0 0 65 16" fill="none" xmlns="http://www.w3.org/2000/svg">
<path d="M-0.32 15H2.46L3.88 11.46H10.62L12.06 15H14.84L9.56 2.42C9.06 1.24 8.46 0.84 7.26 0.84C6 0.84 5.46 1.24 4.96 2.42L-0.32 15ZM6.86 3.88C6.94 3.66 7.08 3.3 7.26 3.3C7.44 3.3 7.58 3.66 7.66 3.88L9.94 9.58H4.56L6.86 3.88ZM16.2917 15H25.0917C27.2517 15 28.0917 13.46 28.0917 11.4C28.0917 9.2 27.2117 8.34 25.1717 7.7L20.0517 6.08C18.9317 5.72 18.8317 5.12 18.8317 4.5C18.8317 3.5 19.3517 3.1 20.0117 3.1H27.3717V0.999999H19.3117C17.0917 0.999999 16.1117 2.38 16.1117 4.38C16.1117 6.3 16.6517 7.48 18.4917 8.06L24.0117 9.8C25.2317 10.18 25.3717 10.84 25.3717 11.38C25.3717 11.86 25.3117 12.9 24.0517 12.9H16.2917V15ZM37.6 15V3.1H43.08V0.999999H29.5V3.1H34.96V15H37.6ZM47.9142 15V0.999999H45.2742V15H47.9142ZM64.7133 0.999999H62.1533V11.32C62.1533 11.42 62.1533 11.66 61.9333 11.66C61.7533 11.66 61.7133 11.46 61.6133 11.32L55.6733 1.94C55.2933 1.32 54.7133 0.84 53.4533 0.84C52.1133 0.84 51.3133 1.54 51.3133 2.74V15H53.8733V4.72C53.8733 4.42 54.0533 4.32 54.1533 4.32C54.2133 4.32 54.2533 4.36 54.4733 4.66L60.3733 13.98C60.9933 14.96 61.7733 15.16 62.6333 15.16C63.7733 15.16 64.7133 14.6 64.7133 13.18V0.999999Z" fill="white"/>
</svg>
