<svg width="317" height="88" viewBox="0 0 317 88" fill="none" xmlns="http://www.w3.org/2000/svg">
<path d="M121.905 48.0132L124.456 41.7997H126.157L122.472 50.8375C122.188 51.4023 121.905 51.6848 121.621 51.9672C121.338 52.2496 121.054 52.2496 120.771 52.5321C120.487 52.5321 120.204 52.8145 119.637 52.8145C119.353 52.8145 119.07 52.8145 118.786 52.8145V51.6848H119.353C119.92 51.6848 120.204 51.4023 120.487 50.8375L120.771 50.5551L121.054 49.9902L117.369 42.0822H119.07L121.905 48.0132Z" fill="#009DDB"/>
<path d="M130.975 47.7308H129.558V52.5321H128.141V41.7997H129.558V46.3186H130.692L134.377 41.7997H136.361L132.109 46.8835L136.645 52.5321H134.66L130.975 47.7308Z" fill="#009DDB"/>
<path d="M139.479 48.2956V52.5321H138.062V41.7997H142.03C143.164 41.7997 144.014 42.0822 144.865 42.647C145.432 43.2119 145.999 44.0592 145.999 44.9065C145.999 46.0362 145.715 46.8835 145.148 47.4483C144.581 48.0132 143.447 48.2956 142.314 48.2956H139.479ZM139.479 47.1659H142.03C142.881 47.1659 143.447 46.8835 143.731 46.601C144.014 46.3186 144.298 45.7538 144.298 45.1889C144.298 44.624 144.014 44.0592 143.731 43.7767C143.447 43.4943 142.881 43.2119 142.03 43.2119H139.479V47.1659Z" fill="#009DDB"/>
<path d="M153.935 49.7078H149.4L148.266 52.5321H146.849L151.101 41.7997H152.235L156.487 52.5321H155.069L153.935 49.7078ZM149.967 48.5781H153.652L151.951 43.4943L149.967 48.5781Z" fill="#009DDB"/>
<path d="M156.77 39.8228C156.77 39.5403 156.77 39.5403 157.053 39.2579C157.336 38.9755 157.336 38.9755 157.62 38.9755C157.903 38.9755 158.187 38.9755 158.187 39.2579C158.187 39.5403 158.47 39.5403 158.47 39.8228C158.47 40.1052 158.47 40.1052 158.187 40.3876C158.187 40.67 157.903 40.67 157.62 40.67C157.336 40.67 157.053 40.67 157.053 40.3876C156.77 40.3876 156.77 40.1052 156.77 39.8228ZM159.604 52.5321H158.187V41.7998H159.604V52.5321ZM159.888 39.8228C159.888 39.5403 159.888 39.5403 160.171 39.2579C160.171 38.9755 160.455 38.9755 160.738 38.9755C161.022 38.9755 161.305 38.9755 161.305 39.2579C161.305 39.5403 161.589 39.5403 161.589 39.8228C161.589 40.1052 161.589 40.1052 161.305 40.3876C161.305 40.67 161.022 40.67 160.738 40.67C160.455 40.67 160.171 40.67 160.171 40.3876C159.888 40.3876 159.888 40.1052 159.888 39.8228Z" fill="#009DDB"/>
<path d="M170.945 52.5321H169.528V47.4483H164.142V52.5321H162.725V41.7997H164.142V46.3186H169.528V41.7997H170.945V52.5321Z" fill="#009DDB"/>
<path d="M179.732 49.7078H175.197L174.063 52.5321H172.646L176.898 41.7997H178.031L182.283 52.5321H180.866L179.732 49.7078ZM175.48 48.5781H179.165L177.465 43.4943L175.48 48.5781Z" fill="#009DDB"/>
<path d="M83.9181 80.21C84.2016 80.21 84.2016 80.21 84.2016 79.9276C82.2173 81.9046 79.9495 83.3167 77.3983 83.8816C75.6975 84.4464 73.9966 84.4465 72.0123 84.164C69.1776 83.8816 66.9099 82.7519 64.3586 81.3397C62.9413 80.4924 61.5239 79.6451 60.39 78.5154C58.6892 77.3857 56.9884 77.3857 55.2876 77.6681C54.4371 77.6681 55.0041 78.233 55.2876 78.233C57.8388 79.3627 60.1066 80.7749 62.0909 82.4694C63.5082 83.5992 66.0594 86.141 66.0594 86.141L64.6421 87.8356C64.6421 87.8356 63.2247 86.141 62.3743 85.5762C58.1223 81.0573 54.4371 79.0803 53.5867 78.7979C53.3033 78.7979 53.3033 78.5154 53.0198 78.5154C52.7363 78.5154 52.7363 78.5154 52.4528 78.7979C51.6024 79.3627 47.9173 81.3397 43.6652 85.5762C43.0983 86.141 41.3975 87.8356 41.3975 87.8356L39.4132 86.141C39.4132 86.141 41.9644 83.5992 43.3818 82.4694C45.6495 80.7749 47.9173 79.3627 50.1851 78.233C50.4686 78.233 51.0355 77.6681 50.1851 77.6681C48.4843 77.3857 46.5 77.6681 45.0826 78.5154C43.6652 79.3627 42.2479 80.4924 41.114 81.3397C38.8462 82.7519 36.295 83.8816 33.4603 84.164C31.7595 84.4465 29.7752 84.164 28.0744 83.8816C25.8066 83.3167 23.2553 81.9046 21.2711 79.9276C21.2711 79.9276 21.2711 79.9276 21.5545 79.9276C21.838 79.9276 21.838 79.9276 21.838 80.21C24.6727 81.6222 27.7909 81.9046 30.9091 81.3397C32.8934 81.0573 34.8777 80.21 36.8619 79.3627C38.2793 78.7979 39.6967 78.233 41.114 77.6681C44.7991 76.5384 48.7677 76.5384 52.4528 77.3857C52.4528 77.3857 52.4528 77.3857 52.7363 77.3857C52.7363 77.3857 52.7363 77.3857 53.0198 77.3857C56.7049 76.5384 60.6735 76.5384 64.3586 77.6681C65.776 78.233 67.1933 78.7979 68.6107 79.3627C70.595 80.21 72.5793 81.0573 74.5636 81.3397C77.9652 81.9046 81.0834 81.6222 83.9181 80.21ZM93.2726 71.7371C91.5718 72.8668 90.7214 73.4317 89.3041 73.9966C87.3198 74.5614 85.052 74.8438 83.0677 74.8438C80.233 75.1263 77.3983 75.1263 74.847 75.6911C74.5636 75.6911 74.5636 75.6911 74.5636 75.6911C77.1148 74.8438 78.8156 72.8668 79.9495 70.6074C80.7999 68.9128 82.2173 65.8061 82.7842 65.2412C82.7842 65.2412 82.7842 65.2412 82.7842 64.9588C82.5007 64.9588 79.9495 67.2182 78.5322 68.348C77.1148 69.7601 75.414 71.1723 73.9966 72.5844C71.7289 74.8438 68.0437 75.9736 66.9099 76.256C67.7603 76.5384 70.595 77.1033 72.0123 77.3857C74.2801 77.9506 76.5479 78.5154 78.8156 78.5154C81.3669 78.7979 83.6346 78.5154 86.1859 77.6681C88.4536 76.8209 91.5718 74.5614 93.2726 71.7371C93.5561 71.7371 93.5561 71.7371 93.2726 71.7371C93.5561 71.7371 93.2726 71.7371 93.2726 71.7371ZM101.777 59.0278C101.777 59.0278 100.359 61.0048 96.9578 63.2642C95.2569 64.394 93.8396 65.2412 91.8553 66.0885C89.5875 67.2182 87.6032 68.0655 85.6189 69.7601L85.3355 70.0425C85.3355 70.0425 88.1702 66.9358 89.0206 61.0048C89.304 58.7454 89.3041 56.4859 90.1545 54.5089C90.1545 54.5089 90.1545 54.5089 90.1545 54.2265C88.1702 56.4859 86.4693 60.1575 85.6189 62.4169C85.052 64.1115 84.485 65.8061 83.9181 67.2182C83.0677 69.4777 82.2173 71.4547 80.5165 73.1493L80.233 73.4317C80.5165 73.4317 80.5165 73.4317 80.7999 73.4317C82.7842 73.1493 84.4851 72.5844 86.4693 72.302C89.5875 71.7371 92.4222 70.6074 94.9735 68.6304C97.5247 66.6534 99.7925 64.394 101.21 61.5697C101.493 60.4399 101.777 59.8751 101.777 59.0278ZM105.462 44.3414C104.611 46.8833 103.194 49.1428 100.926 51.4022C99.2255 53.0968 96.1073 56.4859 94.4065 58.7454C94.4065 58.7454 94.1231 58.7454 94.4065 58.7454C95.2569 56.7684 95.5404 53.3792 94.9735 50.5549C94.69 48.2955 93.5561 45.7536 93.2726 42.9293C93.2726 42.9293 93.2726 42.9293 93.2726 43.2117C92.7057 44.9063 92.1388 46.8833 92.1388 48.8603C92.1388 51.1198 92.4222 54.2265 92.1388 56.4859C91.8553 59.3102 91.8553 61.8521 90.4379 64.394V64.6764C91.5718 64.1115 94.4065 62.4169 96.1073 61.0048C98.3751 59.3102 100.643 57.6156 102.344 55.0738C104.611 51.967 105.745 48.2955 105.462 44.3414C105.745 44.6239 105.745 44.3414 105.462 44.3414ZM99.509 46.036C99.2255 46.036 99.2255 46.036 99.509 46.036C99.2255 46.036 99.2255 46.036 99.509 46.036C99.509 45.1887 99.509 44.3414 99.509 43.7766C99.2255 40.9523 97.8082 38.6929 96.1073 36.7158C95.2569 35.5861 94.1231 33.6091 93.5561 32.197C93.5561 32.197 93.5561 32.197 93.2726 32.197C93.2726 32.4794 93.2726 33.3267 93.2726 33.8916C93.5561 37.8456 94.9735 41.5172 96.1073 45.1887C96.9578 47.7306 97.5247 49.7076 97.2412 52.2495C97.2412 52.5319 97.2412 52.5319 97.2412 52.5319C98.0916 51.4022 99.7925 49.4252 100.926 48.2955C102.06 46.8833 107.73 40.3874 104.895 31.3497C104.611 30.7848 104.611 30.22 104.328 30.22C104.328 30.22 104.328 30.22 104.328 30.5024C104.328 36.9983 101.21 39.8226 99.7925 44.3414C99.7925 44.6239 99.509 45.4712 99.509 46.036ZM99.509 32.4794C99.509 32.4794 99.2255 31.6321 98.9421 30.7848C98.9421 30.5024 98.6586 30.22 98.6586 29.9375C97.5247 27.9605 96.3908 26.8308 94.69 25.4187C93.5561 24.5714 92.1387 22.8768 91.2883 21.4647C91.2883 21.4647 91.2883 21.4647 91.0049 21.4647C91.0049 21.7471 91.8553 24.5714 92.4222 25.9835C93.2726 27.9605 94.69 29.6551 95.8239 31.3497L96.1073 31.6321C97.2412 33.3267 99.509 36.9983 99.7925 38.6929C100.076 38.128 100.926 35.5861 101.493 33.6091C101.493 33.3267 102.627 29.6551 102.911 28.243C103.478 24.0065 102.06 18.3579 99.509 15.2512C99.509 15.2512 99.509 15.2512 99.509 15.5336V15.8161C99.509 16.0985 99.509 16.0985 99.7925 16.3809C100.359 19.2052 100.359 21.1822 99.7925 23.4417C99.509 25.4187 99.2255 27.1132 99.2255 29.0903C99.509 30.22 99.509 32.4794 99.509 32.4794C99.509 32.7618 99.509 32.4794 99.509 32.4794ZM91.5718 8.47289C92.4222 9.32018 92.9892 10.1675 93.5561 11.2972C94.1231 12.9918 94.4065 15.2512 94.9735 17.2282C95.2569 18.3579 95.5404 19.2052 95.8239 20.3349C95.8239 20.3349 95.8239 20.6174 95.8239 20.3349C94.4065 18.6404 92.9892 17.5106 90.7214 16.0985C89.3041 15.2512 88.4536 14.4039 87.3198 12.9918C87.0363 12.7093 87.0363 12.4269 86.7528 12.4269C86.7528 12.4269 86.7528 12.4269 86.4693 12.4269V12.7093C86.7528 14.1215 87.8867 16.9458 89.5875 18.6404C90.7214 19.7701 92.1388 20.8998 93.5561 22.0295C95.8239 24.0065 97.5247 25.9835 98.0916 26.8308C98.0916 26.5484 98.0916 25.9835 98.0916 25.4187C98.0916 24.0065 98.0916 22.0295 98.0916 20.8998C98.0916 20.3349 98.0916 19.7701 98.0916 19.2052C98.0916 17.5106 97.8082 16.0985 97.2412 14.6863C96.1073 12.1445 94.69 10.4499 92.1388 9.03775C91.8553 8.19046 91.8553 8.19046 91.5718 8.47289C91.5718 8.19046 91.5718 8.19046 91.5718 8.47289C91.5718 8.19046 91.5718 8.19046 91.5718 8.47289ZM81.6503 3.67159C83.0677 4.8013 84.2016 6.49588 85.3355 7.90803C86.4693 9.32018 87.3198 10.7323 88.7371 12.1445C89.5875 12.9918 92.1388 14.9688 92.9892 15.5336C92.9892 14.6863 91.5718 9.32018 88.1702 6.49588C86.1859 4.8013 83.9181 3.95402 81.3669 3.38916V3.67159H81.6503ZM27.5074 78.7979C29.7752 78.5154 32.0429 78.233 34.3107 77.6681C35.7281 77.3857 38.5628 76.8209 39.4132 76.5384C38.2793 76.256 34.5942 75.1263 32.3264 72.8668C30.9091 71.4547 29.2082 70.0425 27.7909 68.6304C26.657 67.5007 23.8223 65.2412 23.5388 65.2412C23.5388 65.2412 23.5388 65.2412 23.5388 65.5237C23.8223 66.0885 25.2396 69.1953 26.3735 70.8898C27.5074 73.4317 29.2082 75.1263 31.7595 75.9736C31.7595 75.9736 31.7595 75.9736 31.476 75.9736C28.6413 75.4087 26.0901 75.4087 23.2554 75.1263C20.9876 75.1263 19.0033 74.8438 17.019 74.279C15.6016 73.7141 14.4678 73.4317 13.0504 72.0196C13.0504 72.0196 13.0504 72.0196 12.7669 72.0196C14.7512 74.8438 17.8694 77.1033 20.4206 77.9506C22.6884 78.7979 24.9562 79.0803 27.5074 78.7979ZM25.2396 73.1493C25.5231 73.1493 25.5231 73.1493 25.8066 73.1493C25.8066 73.1493 25.8066 73.1493 25.5231 72.8668C23.8223 71.1723 22.6884 69.1953 22.1215 66.9358C21.5545 65.2412 20.9876 63.5467 20.4206 62.1345C19.5702 59.8751 17.8694 56.2035 15.8851 53.9441C15.8851 53.9441 15.8851 53.9441 15.8851 54.2265C16.452 56.2035 16.7355 58.4629 17.019 60.7224C17.8694 66.9358 20.7041 69.7601 20.7041 69.7601C20.7041 69.7601 20.7041 70.0425 20.7041 69.7601L20.4206 69.4777C18.4363 67.7831 16.452 66.9358 14.1843 65.8061C12.4835 64.9588 10.7826 64.1115 9.08181 62.9818C5.68016 60.7224 4.2628 58.7454 4.2628 58.7454C4.2628 58.7454 4.2628 58.7454 3.97933 58.7454C4.2628 59.5926 4.54627 60.4399 4.82975 61.0048C6.2471 63.8291 8.51487 66.0885 11.0661 68.0655C13.6173 70.0425 16.452 71.1723 19.5702 71.7371C21.5545 72.302 23.5388 72.8668 25.2396 73.1493ZM9.64875 60.7224C11.633 61.8521 14.4678 63.5467 15.3182 64.394C15.3182 64.394 15.3182 64.3939 15.3182 64.1115C14.1843 61.5696 13.9008 59.0278 13.6173 56.2035C13.3339 53.9441 13.9008 50.8373 13.6173 48.5779C13.6173 46.6009 13.0504 44.6239 12.4835 42.9293C12.4835 42.6469 12.4835 42.6469 12.4835 42.6469C12.2 45.4712 11.3496 48.013 10.7826 50.2725C10.2157 53.0968 10.7826 56.4859 11.3496 58.4629C11.3496 58.4629 11.3496 58.7454 11.3496 58.4629C9.93222 56.2035 6.53057 52.8143 4.82975 51.1198C2.56198 48.8603 1.14463 46.8833 0.294213 44.059C0.294213 44.059 0.294213 44.059 0.0107422 44.059V44.3414C0.0107422 48.013 1.14463 51.4022 3.12892 54.5089C5.11322 57.3332 7.38098 59.0278 9.64875 60.7224ZM8.79834 52.2495C8.79834 52.2495 8.79834 52.2495 8.79834 51.967C8.51487 49.4252 9.08181 47.1657 9.93222 44.9063C11.3496 41.2347 12.4835 37.5631 12.7669 33.6091C12.7669 33.0443 12.7669 32.197 12.7669 31.9145H12.4835C11.9165 33.3267 10.4992 35.3037 9.93222 36.4334C8.51487 38.6929 6.81404 40.9523 6.53057 43.4942C6.53057 44.059 6.53057 45.1887 6.53057 45.7536C6.2471 45.1887 6.2471 44.3414 5.96363 43.4942C4.82975 39.2577 1.71157 36.4334 1.71157 29.9375V29.6551C1.71157 29.6551 1.4281 30.22 1.14463 30.7848C-1.69008 39.8226 3.97933 46.3185 5.11322 47.7306C6.2471 49.1427 7.94793 50.8373 8.79834 52.2495ZM4.54628 34.174C5.11322 35.8686 5.96363 38.4104 6.2471 39.2577C6.81404 37.2807 8.79834 33.8916 9.93222 32.197L10.2157 31.9145C11.3496 30.22 12.7669 28.5254 13.6173 26.5484C14.1843 25.1362 15.0347 22.3119 15.0347 22.0295C15.0347 22.0295 15.0347 22.0295 14.7512 22.0295C13.9008 23.4417 12.2 25.1362 11.3496 25.9835C9.64875 27.3957 8.2314 28.243 7.38098 30.5024C7.38098 30.7848 7.09751 31.0673 7.09751 31.3497C6.81404 32.197 6.53057 33.0443 6.53057 33.0443C6.53057 33.0443 6.81404 30.5024 6.81404 30.22C6.81404 28.243 6.53057 26.5484 6.2471 24.5714C5.96363 22.3119 5.68016 20.3349 6.2471 17.5106C6.2471 17.2282 6.2471 17.2282 6.53057 16.9458C6.53057 16.6633 6.53057 16.6633 6.53057 16.6633C6.53057 16.6633 6.53057 16.6633 6.53057 16.3809C3.97933 19.4876 2.56198 25.1362 3.12892 29.3727C3.41239 30.22 4.54628 33.8916 4.54628 34.174ZM8.2314 20.0525C8.2314 21.4647 8.2314 23.1592 8.2314 24.5714C8.2314 25.1362 8.2314 25.7011 8.2314 25.9835C8.79834 25.4187 10.4992 23.1592 12.7669 21.1822C14.1843 20.0525 15.3182 19.2052 16.7355 17.7931C18.4363 16.0985 19.2868 13.5566 19.8537 11.862V11.5796C19.8537 11.5796 19.8537 11.5796 19.5702 11.5796C19.2868 11.862 19.2868 12.1445 19.0033 12.1445C18.1529 13.5566 17.019 14.4039 15.6016 15.2512C13.3339 17.2282 11.9165 18.3579 10.4992 20.0525C10.4992 20.0525 10.2157 20.0525 10.4992 20.0525C10.7826 18.6404 11.0661 18.0755 11.3496 16.9458C11.9165 14.9688 11.9165 12.7093 12.7669 11.0148C13.3339 9.88504 13.9008 9.03775 14.7512 8.19046V7.90803C14.7512 7.90803 14.4678 7.90803 14.1843 8.19046C11.9165 9.32018 10.2157 11.2972 9.08181 13.8391C8.51487 15.2512 8.2314 16.9458 8.2314 18.3579C7.94793 18.9228 7.94793 19.4876 8.2314 20.0525ZM13.3339 15.5336C14.1843 14.9688 16.7355 12.9918 17.5859 12.1445C19.0033 11.0148 19.8537 9.60261 20.9876 7.90803C22.1215 6.49588 23.2554 4.8013 24.6727 3.67159L24.9562 3.38916C24.9562 3.38916 24.9562 3.38916 24.9562 3.10673C22.6884 3.67159 20.1372 4.80131 18.1529 6.21345C14.4678 9.32018 13.3339 14.6863 13.3339 15.5336ZM52.1694 45.4712C52.4528 45.1887 51.8859 44.9063 51.6024 45.4712C51.319 46.3185 51.8859 46.036 52.1694 45.4712ZM59.5396 28.5254C59.2561 28.5254 58.1223 29.6551 58.4057 29.9375L59.5396 28.5254ZM59.8231 28.243C60.1066 28.243 60.6735 27.9605 60.6735 27.9605C60.6735 27.9605 59.8231 27.3957 59.8231 27.6781C59.5396 27.9605 59.5396 28.243 59.8231 28.243ZM72.5793 40.3874C72.8627 40.3874 72.8627 39.8226 72.5793 39.8226C72.2958 39.8226 72.0123 40.3874 72.0123 40.3874C72.2958 40.105 72.5793 40.3874 72.5793 40.3874ZM68.0437 27.3957C67.7603 27.3957 67.7603 27.6781 68.0437 27.9605H68.6107C68.8942 27.9605 68.8942 27.6781 68.8942 27.3957C68.8942 27.1132 68.3272 26.8308 68.6107 26.5484C68.8942 26.266 69.1776 26.5484 69.1776 26.5484C69.4611 26.5484 69.4611 26.266 69.4611 25.9835C69.4611 25.7011 69.4611 25.1362 68.8942 25.1362C68.6107 25.1362 68.0437 25.9835 68.0437 25.9835C68.0437 25.9835 68.0437 26.266 68.0437 26.5484C68.6107 26.8308 68.6107 27.3957 68.0437 27.3957ZM74.2801 27.3957C74.2801 27.6781 74.847 28.8078 74.847 29.0903C74.847 29.3727 75.1305 30.5024 75.414 30.22C75.6975 30.22 75.6975 29.6551 75.414 29.3727C75.414 28.8078 75.1305 27.9605 74.847 27.3957C74.847 27.1132 73.9966 25.7011 73.9966 25.7011C73.7132 25.7011 74.2801 26.8308 74.2801 27.1132V27.3957ZM70.8784 11.0148C71.1619 11.0148 71.1619 10.4499 70.595 10.1675C70.028 9.60261 69.4611 9.88504 69.4611 10.1675C69.7446 10.4499 70.595 11.0148 70.8784 11.0148ZM56.4214 7.06074C55.8545 6.77831 56.4214 6.21345 55.8545 5.64859C55.571 5.36616 54.4371 5.64859 54.1537 5.93102C53.5867 6.49588 54.7206 6.21345 55.0041 6.49588C55.571 6.77831 56.4214 7.34317 56.4214 7.06074C56.7049 7.06074 56.4214 7.06074 56.4214 7.06074ZM60.39 5.08373C59.5396 4.8013 56.4214 4.8013 56.4214 5.64859C56.4214 6.49588 58.4057 5.64859 58.6892 5.64859C58.9727 5.64859 60.957 5.36616 60.39 5.08373ZM51.6024 42.3644C51.319 42.3644 51.0355 42.3644 51.0355 42.3644C51.0355 42.082 50.752 42.3644 50.752 42.3644C50.752 42.6469 50.752 42.6469 50.752 42.9293C51.0355 43.2117 51.319 43.2117 51.6024 42.9293C51.6024 42.6469 51.6024 42.3644 51.6024 42.3644ZM49.6181 35.8686C49.9016 35.8686 49.9016 35.5861 49.9016 35.5861C50.1851 35.5861 49.9016 35.8686 50.1851 35.8686C50.4686 35.8686 50.752 35.3037 49.9016 35.3037C49.3347 35.3037 49.6181 35.8686 49.6181 35.8686ZM50.752 36.4334C50.1851 36.4334 50.4685 36.7158 49.9016 36.7158C49.3347 36.7158 49.9016 36.4334 49.6181 36.151C49.6181 36.151 49.0512 36.4334 49.0512 36.7158C49.0512 36.7158 49.0512 37.2807 49.3347 37.2807C49.6181 37.2807 50.752 37.5631 51.0355 37.5631C51.8859 37.8456 51.319 36.7158 50.752 36.4334ZM44.7991 42.9293C45.0826 42.9293 45.0826 42.3644 45.0826 42.082C45.0826 41.7996 44.5157 42.082 44.5157 42.082C44.2322 42.3644 44.7991 42.9293 44.7991 42.9293ZM37.1454 42.9293C37.1454 42.6469 37.1454 42.082 36.8619 41.7996C36.5785 41.7996 36.5785 41.7996 36.5785 41.7996C36.5785 41.7996 36.5785 41.5172 36.295 41.5172C36.295 41.5172 36.295 42.082 36.5785 42.3644C36.8619 42.6469 37.1454 43.2117 37.1454 42.9293ZM36.8619 40.9523C36.8619 40.9523 37.1454 39.5401 37.1454 39.2577C37.1454 38.6929 36.8619 38.4104 36.8619 38.4104C36.8619 38.4104 36.8619 38.6929 36.8619 39.2577C36.8619 39.8226 36.5785 40.3874 36.5785 40.6699C36.5785 40.9523 36.8619 41.2347 36.8619 40.9523ZM26.9405 62.6994C20.1372 55.9211 16.1686 46.6009 16.1686 36.7158C16.1686 26.8308 19.8537 17.7931 26.9405 10.7323C33.7438 3.95401 43.0983 0 53.0198 0C62.9413 0 72.0123 3.67159 79.0991 10.7323C85.9024 17.7931 89.871 26.8308 89.871 36.7158C89.871 46.6009 86.1859 55.6386 79.0991 62.6994C72.2958 69.7601 62.9413 73.4317 53.0198 73.4317C43.0983 73.4317 34.0272 69.7601 26.9405 62.6994ZM17.8694 37.5631C18.1529 46.3185 21.5545 54.7913 27.5074 61.0048L31.476 57.0508C30.6256 56.2035 30.0586 55.3562 29.2082 54.5089C28.9248 54.5089 28.6413 54.2265 28.3578 53.9441C28.0744 53.6616 27.7909 52.8143 27.7909 52.8143C27.5074 52.8143 27.7909 53.0968 27.5074 53.3792C26.9405 53.3792 26.3735 52.2495 26.0901 51.6846C25.8066 51.1198 25.2396 51.1198 24.9562 50.5549C24.9562 50.2725 24.6727 49.99 24.6727 50.2725C24.3892 50.8373 23.5388 49.4252 23.2554 49.4252C22.9719 49.4252 23.2554 49.7076 22.9719 49.99C22.6884 50.2725 21.838 48.8603 21.5545 49.1427C21.2711 49.1427 21.2711 49.4252 21.2711 49.7076C21.2711 49.99 21.838 51.1198 21.5545 51.1198C21.2711 51.1198 20.1372 48.2955 20.4206 48.2955C20.4206 48.2955 20.4206 48.2955 20.7041 48.2955C20.9876 48.2955 20.7041 48.013 20.4206 47.7306C20.4206 47.4482 20.1372 47.4482 20.1372 47.1657C20.1372 46.8833 20.7041 46.8833 20.7041 46.8833C20.7041 46.6009 20.7041 46.6009 20.9876 46.3185C21.2711 46.036 21.5545 46.3185 21.5545 45.7536C21.5545 45.1887 21.838 45.7536 21.838 46.036C21.838 46.3185 22.9719 46.6009 22.9719 46.3185C22.9719 46.036 22.6884 46.036 22.6884 46.036C22.6884 45.7536 23.2553 46.036 23.5388 46.036C23.8223 46.036 24.1058 45.7536 24.3892 46.036C24.6727 46.3185 24.9562 46.3185 25.2396 46.3185C24.3892 43.7766 23.8223 40.9523 23.8223 37.8456H17.8694V37.5631ZM49.9016 29.3727C50.1851 28.8078 50.752 28.243 50.752 28.5254C50.752 28.5254 50.4686 29.0902 50.1851 29.3727C50.752 29.0902 51.6024 29.0903 52.1694 28.8078V23.1592C49.0512 23.4417 46.2165 24.5714 43.9487 26.5484L47.9173 30.5024C48.4843 30.22 48.7677 29.9375 49.3347 29.6551C49.6181 29.6551 49.6181 29.6551 49.9016 29.3727ZM46.7834 38.6929C47.0669 38.6929 47.0669 38.4104 46.7834 38.6929C47.0669 38.4104 47.0669 38.4104 46.7834 38.6929C47.0669 38.4104 47.0669 38.4104 46.7834 38.6929C46.7834 38.4104 46.7834 38.4104 46.7834 38.4104C46.7834 38.4104 46.7834 38.4104 47.0669 38.4104C47.0669 38.4104 47.3504 38.4104 47.6338 38.4104C47.6338 38.4104 47.9173 38.4104 47.9173 38.128C47.9173 38.128 47.9173 38.128 47.9173 37.8456C47.9173 37.8456 47.9173 37.8456 47.9173 37.5631C47.9173 37.5631 47.9173 37.5631 47.6338 37.5631C47.6338 37.5631 47.6338 37.5631 47.3504 37.5631H47.0669C47.0669 36.9983 47.0669 36.9983 46.7834 36.9983C46.7834 36.9983 46.5 36.9983 46.5 36.7158C46.2165 36.7158 46.2165 36.7159 45.933 36.9983C45.933 36.9983 45.933 36.9983 45.933 37.2807C45.933 37.2807 45.933 37.5631 45.6495 37.5631C45.0826 38.6929 44.7991 38.4104 44.7991 38.6929C44.7991 38.6929 44.7991 38.6929 45.0826 38.6929H45.3661H45.6495H45.933C45.933 38.6929 45.933 38.6929 46.2165 38.6929C46.2165 38.6929 46.2165 38.6929 46.5 38.6929H46.7834C46.5 38.4104 46.5 38.4104 46.7834 38.6929V38.9753C46.7834 38.9753 46.7834 38.9753 46.7834 38.6929ZM36.295 48.013C36.5785 48.5779 36.8619 48.8603 36.8619 49.7076V49.99C37.1454 50.2725 37.4289 50.8373 37.7124 51.1198L41.681 47.1657C39.6967 45.1887 38.5628 42.3644 37.9958 39.5401H37.7124C37.7124 39.5401 37.7124 39.2577 37.9958 39.2577C37.9958 38.9753 37.9958 38.4104 37.9958 37.8456H35.4446C35.4446 38.128 35.7281 38.9753 35.4446 38.9753C35.1611 39.2577 34.8777 38.9753 34.5942 38.9753C34.0272 38.9753 34.0272 39.5401 34.0272 40.105C34.0272 40.3874 34.3107 40.6699 34.3107 40.9523C34.3107 41.2347 34.0272 41.5172 34.5942 41.7996C34.8777 42.082 35.7281 42.9293 35.7281 42.9293C35.7281 43.2117 35.1611 42.6469 35.1611 43.2117C35.1611 43.4942 35.7281 43.2117 35.7281 43.7766C35.7281 44.059 35.7281 44.6239 36.0115 44.9063C36.295 45.4712 36.5785 45.7536 36.5785 46.6009C36.0115 46.8833 36.0115 47.4482 36.295 48.013ZM32.6099 41.2347C33.1768 41.5172 34.3107 40.9523 33.4603 40.105C33.1768 39.8226 33.7438 38.6929 33.7438 38.4104C33.7438 38.128 34.3107 37.8456 34.5942 37.5631H32.3264C32.3264 38.6929 32.3264 40.105 32.6099 41.2347ZM33.1768 55.6386C32.8934 55.3562 32.3264 55.0738 32.0429 55.3562C32.3264 55.6386 32.6099 55.9211 32.6099 56.2035L33.1768 55.6386ZM39.1297 30.7848C39.6967 29.3727 40.5471 27.9605 41.681 26.8308L37.7124 22.8768C34.3107 26.266 32.3264 31.0673 32.0429 36.151H34.8777C35.4446 35.3037 35.1611 34.7388 35.4446 34.4564C35.7281 34.174 35.7281 33.6091 36.0115 33.3267C36.295 33.0443 36.5785 32.7618 36.8619 32.7618C37.7124 32.7618 37.9958 32.197 38.5628 31.9145C39.1297 31.6321 40.2636 31.6321 39.9801 31.0673C39.9801 30.7848 37.7124 31.6321 37.7124 31.6321C37.9958 31.0673 38.5628 31.0673 39.1297 30.7848ZM42.8148 27.6781C42.2479 28.5254 41.3975 29.3727 41.114 30.22C41.114 30.22 41.114 30.22 41.3975 30.22C41.9644 29.9375 43.0983 29.9375 43.3818 29.9375C43.9487 30.22 44.5157 30.7848 44.7991 30.7848C44.7991 30.7848 45.0826 30.7848 45.6495 30.5024C45.933 30.5024 45.933 30.7848 46.2165 30.7848H46.5L42.8148 27.6781ZM37.9958 35.0213C37.7124 35.0213 37.4289 34.7388 37.1454 34.7388C36.5785 34.7388 36.295 34.7388 36.0115 35.3037C35.7281 35.3037 35.7281 35.8686 35.7281 35.8686H37.7124C37.9958 35.5861 37.9958 35.3037 37.9958 35.0213ZM39.6967 39.2577C40.2636 41.7996 41.3975 43.7766 42.8148 45.7536L46.7834 41.7996C46.5 41.5172 46.2165 40.9523 45.933 40.3874C45.933 40.3874 45.933 40.6699 45.6495 40.6699C45.6495 40.9523 45.6495 41.5172 45.3661 41.7996C45.0826 42.082 44.2322 40.9523 43.9487 40.9523C43.6652 40.9523 43.3818 41.2347 43.3818 41.2347C43.3818 41.5172 43.3818 41.5172 43.0983 41.7996C43.0983 41.7996 42.2479 41.2347 42.5314 41.2347C42.8148 41.2347 42.5314 40.6699 42.2479 40.6699C41.9644 40.3874 41.681 40.6699 41.3975 40.3874C41.114 40.105 40.8305 39.8226 40.8305 39.8226C40.8305 39.8226 40.2636 39.5401 39.9801 39.8226C40.2636 40.105 39.9801 39.8226 39.6967 39.2577C39.9801 39.5401 39.6967 39.5401 39.6967 39.2577ZM42.8148 25.7011C45.3661 23.4417 48.4843 22.0295 52.1694 21.7471V16.0985C47.0669 16.3809 42.2479 18.3579 38.8462 21.7471L42.8148 25.7011ZM37.7124 20.6174C41.3975 16.9458 46.5 14.9688 52.1694 14.6863V9.03775C45.0826 9.32018 38.5628 12.1445 33.7438 16.6633L37.7124 20.6174ZM32.6099 17.5106C28.0744 22.3119 25.2396 28.8078 24.9562 35.8686H30.6256C30.9091 30.22 33.1768 25.1362 36.5785 21.4647L32.6099 17.5106ZM24.9562 37.5631C24.9562 40.3874 25.5231 43.2117 26.3735 46.036C26.9405 46.036 27.7909 46.036 28.0744 45.7536C28.6413 45.1887 28.0744 43.7766 28.3578 43.2117C28.9248 42.3644 29.7752 40.6699 30.0587 40.6699C30.3421 40.6699 30.3421 40.9523 30.3421 40.9523C30.0587 39.8226 30.0587 38.9753 30.0587 37.8456H24.9562V37.5631ZM52.1694 66.371C44.5157 66.0885 37.7124 63.2642 32.6099 58.1805L28.6413 62.1345C35.1611 68.348 43.3818 71.7371 52.1694 71.7371V66.371ZM52.1694 59.0278C47.0669 58.7454 42.5314 57.0508 38.5628 53.9441L38.8462 54.2265C39.1297 54.7913 39.9801 55.6386 39.4132 55.9211C38.8462 56.2035 38.2793 55.9211 37.7124 55.9211C37.1454 55.9211 36.5785 56.7684 36.0115 56.7684C35.4446 56.7684 35.1611 56.7683 34.5942 56.4859C34.5942 56.4859 34.3107 56.2035 34.0272 56.2035L33.4603 56.7684C38.2793 61.2872 44.7991 64.1115 51.8859 64.394V59.0278H52.1694ZM52.1694 57.0508C51.319 57.0508 50.1851 57.0508 49.9016 56.7684C49.3347 56.4859 48.4843 55.9211 48.4843 55.6386C48.2008 55.0738 47.6338 54.7913 47.6338 54.2265C47.6338 53.6616 48.4843 53.3792 48.2008 52.8143C47.9173 52.2495 48.4843 51.6846 49.3347 51.4022C46.7834 50.8373 44.5157 49.7076 42.8148 48.013L38.8462 51.967C42.5314 55.3562 47.0669 57.3332 52.1694 57.6156V57.0508ZM51.8859 49.7076C52.4528 49.99 53.0198 49.7076 53.3033 49.4252C53.8702 49.4252 54.4371 49.1427 55.0041 49.1427C55.571 49.1427 55.0041 49.99 55.2876 49.99C55.571 49.99 57.5553 50.2725 57.5553 49.99C57.5553 49.7076 57.5553 49.4252 58.1223 49.4252C58.6892 49.1427 59.2561 49.4252 60.1066 48.8603C60.39 48.5779 60.6735 48.5779 60.957 48.2955C60.957 48.013 60.957 46.8833 60.39 47.1657C60.1066 47.1657 59.8231 47.4482 59.5396 47.7306C59.2561 48.013 58.9727 48.013 58.6892 47.7306C58.4057 47.4482 58.9727 47.1657 58.9727 46.8833C59.2561 46.6009 59.5396 46.036 60.1066 46.036C60.1066 46.036 60.957 45.7536 60.957 45.1887C60.957 44.6239 60.1066 45.1887 59.8231 44.9063V44.3414C59.8231 44.3414 59.2561 44.6239 59.5396 44.9063C59.5396 44.9063 59.2561 45.4712 58.9727 45.1887C58.4057 45.4712 58.4057 46.6009 58.4057 46.8833C58.4057 47.1657 58.9727 47.1657 58.6892 47.4482C58.4057 47.7306 58.4057 47.4482 58.1223 47.7306C57.8388 48.013 57.8388 48.013 58.1223 48.2955C58.4057 48.5779 58.1223 48.8603 57.8388 48.5779C57.8388 48.2955 57.2719 48.2955 56.9884 48.013C56.9884 47.7306 56.4214 47.7306 55.8545 47.4482C55.2876 47.1657 55.571 48.013 56.138 48.013C56.7049 48.2955 56.7049 48.2955 56.7049 48.5779C56.4214 48.8603 56.7049 48.2955 55.8545 48.013C55.2876 48.013 55.2876 47.7306 55.0041 47.7306C54.7206 47.7306 54.7206 48.013 54.4371 48.013C54.1537 48.013 54.1537 48.2955 53.8702 48.5779C53.5867 48.8603 53.5867 49.4252 53.3033 49.4252C52.7363 49.7076 51.6024 49.4252 51.6024 48.8603C51.6024 48.2955 51.6024 48.013 51.8859 47.7306C52.1694 47.4482 52.7363 48.013 53.0198 48.013C53.3033 47.7306 53.3033 47.4482 53.0198 47.1657L52.7363 46.8833C52.7363 46.8833 53.3033 46.6009 53.5867 46.6009C53.8702 46.3185 54.1537 46.036 54.4371 45.7536C54.7206 45.7536 55.0041 45.4712 55.0041 45.4712C55.0041 45.4712 54.7206 45.1887 54.7206 44.9063C54.7206 44.6239 54.7206 44.6239 55.0041 44.6239C55.0041 44.6239 55.2876 44.9063 55.2876 45.1887C55.2876 45.1887 55.2876 45.4712 55.571 45.4712C55.8545 45.4712 56.4214 45.1887 56.7049 45.1887C56.9884 45.1887 56.7049 44.6239 56.7049 44.3414H56.9884L56.7049 44.059C56.7049 43.7766 57.5553 43.7766 57.2719 43.4942C56.9884 43.4942 56.7049 43.7766 56.7049 43.7766C55.571 43.4942 55.571 43.2117 55.571 42.9293C55.571 42.9293 55.8545 42.3644 55.571 42.082C55.2876 42.082 55.2876 42.6469 55.2876 42.6469C55.2876 42.9293 55.0041 42.9293 55.2876 43.4942C55.2876 43.7766 55.2876 44.6239 55.0041 44.6239C54.7206 44.6239 54.7206 44.059 54.4371 44.059C54.4371 44.059 54.4371 44.059 54.4371 44.3414C54.4371 44.3414 54.4371 44.3414 54.4371 44.6239C54.4371 44.6239 54.4371 44.9063 54.1537 44.9063C53.8702 44.9063 53.5867 44.9063 53.3033 44.9063H53.0198C53.0198 45.1887 53.0198 45.1887 53.3033 45.4712C53.5867 45.7536 53.8702 46.036 53.5867 46.3185C53.5867 46.6009 52.7363 46.6009 52.4528 46.6009C52.4528 46.3185 52.7363 46.036 52.7363 45.7536C52.7363 45.4712 52.4528 45.1887 52.4528 44.9063C50.752 44.6239 49.3347 44.059 48.2008 43.2117L44.2322 47.1657C46.2165 48.8603 48.7677 49.99 51.319 50.5549C51.6024 49.99 51.6024 49.7076 51.8859 49.7076ZM57.2719 58.7454C56.138 59.0278 55.0041 59.0278 53.8702 59.0278V64.6764C56.138 64.6764 58.4057 64.394 60.39 63.8291C59.8231 63.5467 59.8231 62.9818 59.2561 62.6994C58.4057 62.4169 58.1223 61.8521 58.6892 61.0048C58.9727 60.4399 58.9727 60.4399 58.4057 59.8751C58.1223 59.0278 57.5553 58.7454 57.2719 58.7454ZM53.8702 57.6156C54.7206 57.6156 55.571 57.6156 56.7049 57.3332C56.4214 57.0508 56.138 57.0508 55.8545 57.0508C55.0041 57.3332 55.2876 56.4859 53.8702 56.7684V57.6156ZM53.8702 71.7371C62.6578 71.4547 71.1619 68.0655 77.3983 62.1345L73.4297 58.1805C71.4454 60.1575 68.8941 61.8521 66.3429 62.9818C65.4925 63.5467 64.3586 64.1115 63.7917 64.394C63.5082 64.6764 63.2247 64.6764 62.6578 64.6764H62.3743C59.5396 65.5237 56.7049 66.0885 53.8702 66.0885V71.7371ZM69.4611 21.4647C69.4611 21.7471 69.4611 21.7471 69.4611 21.4647C70.3115 22.5944 71.1619 23.7241 72.0123 24.8538C72.0123 24.8538 72.2958 24.5714 72.2958 24.8538C72.5793 25.1362 72.0123 25.4187 72.5793 25.4187C72.8627 25.4187 72.8627 25.7011 72.5793 25.9835C72.8627 26.266 72.8627 26.5484 73.1462 27.1132C73.4297 27.1132 73.4297 27.3957 73.4297 27.3957C73.4297 27.6781 73.7132 28.243 73.7132 28.5254C73.9966 29.0903 74.2801 29.9375 74.5636 30.7848C74.847 30.5024 75.1305 30.7848 75.1305 31.0673C75.1305 31.3497 75.1305 31.9145 74.847 32.197C75.1305 33.3267 75.1305 34.7388 75.414 35.8686H81.0834C81.0834 32.197 80.233 28.5254 78.8156 25.4187C78.8156 25.4187 78.5322 25.4187 78.2487 25.7011C77.9652 25.9835 77.3983 25.7011 77.1148 25.4187C76.5479 24.8538 75.414 23.1592 75.1305 23.1592C74.847 23.1592 74.2801 22.5944 73.9966 22.5944C73.4297 22.5944 73.1462 22.3119 72.8627 21.7471C72.8627 21.1822 72.5793 21.1822 72.0123 20.8998C71.4454 20.8998 71.1619 20.6174 70.595 20.0525L69.4611 21.4647ZM72.8627 54.2265C73.1462 54.7913 73.1462 55.3562 73.1462 55.6386L73.4297 55.9211C77.9652 51.1198 80.7999 44.6239 81.0834 37.5631H75.414C75.1305 43.2117 72.8627 48.2955 69.4611 51.967L71.4454 53.9441C71.7289 53.6616 71.4454 53.0968 71.4454 52.8143C71.4454 52.5319 72.2958 52.5319 72.2958 53.0968C72.5793 53.3792 72.5793 53.3792 72.8627 54.2265ZM68.3272 58.1805C68.0437 58.7454 68.8942 58.7454 68.8942 59.3102C68.6107 59.5926 68.0437 60.4399 68.0437 60.4399C69.4611 59.5926 70.8784 58.4629 72.2958 57.0508L68.3272 53.0968C68.0437 53.3792 67.7603 53.6616 67.4768 53.9441C67.4768 54.5089 67.4768 54.7913 68.0437 54.7913C68.6107 55.0738 69.7446 55.6386 69.4611 56.2035C69.1776 56.7683 68.6107 57.6156 68.3272 58.1805ZM70.595 35.0213C70.8784 35.5861 69.7446 35.3037 69.7446 35.8686H73.9966C73.9966 35.3037 73.9966 34.7388 73.7132 34.174C73.7132 34.174 73.7132 34.174 73.7132 34.4564C73.4297 35.0213 73.4297 34.7388 73.4297 34.4564C73.4297 34.174 73.7132 33.8916 73.7132 33.3267C73.7132 33.0443 73.7132 33.0443 73.7132 32.7618C73.7132 33.0443 73.4297 33.0443 73.1462 33.3267C72.8627 33.3267 72.8627 33.8916 72.8627 33.8916C72.8627 34.174 72.2958 33.8916 72.0123 33.8916C70.8784 34.4564 70.3115 34.4564 70.595 35.0213ZM71.4454 27.1132C70.595 25.4187 69.4611 24.0065 68.3272 22.5944L64.3586 26.5484C64.9256 27.3957 65.776 28.243 66.0594 29.0903C66.6264 29.0903 67.1933 29.3727 67.4768 29.9375C67.7603 30.22 68.6107 31.0673 68.6107 31.3497C68.6107 31.6321 68.6107 31.9145 68.8942 31.9145C69.1776 32.197 69.4611 32.197 69.4611 31.9145C69.7446 31.6321 69.7446 31.0673 70.3115 30.7848C70.8784 30.5024 71.7289 31.6321 71.7289 31.6321C71.7289 31.9145 71.4454 31.9145 71.4454 32.197C71.4454 32.7618 70.8784 33.3267 71.4454 33.3267C72.2958 33.6091 72.2958 33.3267 72.5793 32.7618C72.8627 32.4794 72.5793 32.197 72.8627 31.9145C72.8627 31.6321 73.1462 31.6321 73.1462 31.6321C72.8627 30.5024 72.5793 29.3727 72.0123 28.5254L71.7289 28.243C71.4454 28.243 71.7289 27.9605 71.1619 27.9605C70.8784 27.9605 70.595 27.6781 70.595 27.1132C70.8784 26.5484 71.1619 27.3957 71.4454 27.1132ZM64.6421 29.9375C64.3586 29.3727 63.7917 28.8078 63.2247 28.243C62.9413 28.243 62.9413 28.243 62.6578 28.243L61.2404 29.6551C61.5239 29.6551 61.8074 29.6551 62.0909 29.6551C62.3743 29.9375 62.3743 28.8078 62.9413 28.8078C63.5082 28.8078 63.5082 29.3727 63.2247 29.3727C62.9413 29.3727 63.2247 29.6551 62.9413 29.9375C62.6578 29.9375 63.2247 30.5024 63.2247 30.5024C63.2247 30.7848 62.6578 30.7848 63.5082 31.0673C64.3586 31.3497 63.5082 30.5024 63.5082 30.22C63.7917 29.9375 64.0751 30.5024 64.0751 30.22C64.6421 30.22 64.6421 29.9375 64.6421 29.9375ZM63.2247 49.4252C62.9413 49.4252 61.5239 48.8603 61.5239 48.8603C61.5239 49.1428 61.2404 48.8603 61.2404 49.1427C61.2404 49.1427 63.5082 50.2725 63.7917 50.2725C64.0751 50.2725 64.6421 50.5549 65.209 50.2725C65.776 50.2725 66.0594 50.5549 66.0594 50.2725C66.3429 50.2725 66.6264 49.7076 66.9099 49.4252C67.4768 48.5779 67.4768 48.5779 67.4768 48.2955C67.7603 48.013 68.3272 49.4252 68.0437 50.2725V50.5549C71.4454 47.1657 73.4297 42.3644 73.7132 37.2807H69.4611C69.7446 37.5631 69.7446 37.8456 70.028 38.4104C70.3115 38.9753 70.3115 39.5401 70.595 39.5401C71.1619 39.5401 71.7289 40.105 71.7289 40.3874C71.7289 41.2347 69.1776 41.5172 68.8942 41.2347C68.6107 41.2347 68.3272 41.2347 68.3272 41.5172C68.3272 42.082 67.4768 42.082 66.9099 42.3644C66.6264 42.6469 66.3429 43.2117 66.0594 43.7766C65.776 44.059 64.9256 44.9063 64.6421 45.1887C64.0751 45.7536 62.9413 45.7536 63.2247 46.036C63.5082 46.3185 64.6421 46.3185 64.3586 46.036C64.3586 45.7536 64.3586 45.7536 64.6421 46.036C64.6421 46.3185 65.209 46.036 65.209 45.7536C65.209 45.4712 65.209 45.1887 65.4925 45.1887C65.776 45.1887 66.3429 44.6239 66.3429 44.9063C66.6264 44.9063 66.9099 45.4712 66.6264 46.8833C66.3429 48.2955 65.776 49.4252 65.4925 49.7076C65.209 50.2725 64.9256 49.7076 64.3586 49.7076C64.6421 49.4252 63.7917 49.4252 63.2247 49.4252ZM78.5322 61.0048C84.7685 54.5089 88.1702 46.3185 88.1702 37.5631H82.5008C82.2173 45.1887 79.3826 51.967 74.2801 57.0508L78.5322 61.0048ZM88.1702 35.8686C87.8867 27.1132 84.485 18.6404 78.5322 12.4269L74.2801 16.6633C74.5636 17.2282 75.414 18.0755 76.2644 19.2052C76.5479 19.4876 77.1148 20.0525 77.3983 20.3349C77.6817 20.6174 79.9495 23.4417 79.666 24.0065C81.3669 27.6781 82.5008 31.9145 82.5008 35.8686H88.1702ZM53.8702 7.34317C58.6892 7.34317 63.2247 8.75532 67.1933 10.7323C67.4768 10.7323 68.0437 10.7323 68.3272 10.4499C68.8941 10.1675 69.7446 10.7323 70.3115 11.0148C70.8784 11.2972 71.1619 11.5796 71.4454 11.862C72.0123 12.1445 72.5793 12.9918 72.8627 13.8391C73.1462 14.6863 73.4297 14.6863 73.1462 14.9688C73.1462 15.2512 73.1462 15.2512 73.4297 15.2512L77.3983 11.2972C70.8784 5.08373 62.6578 1.69458 53.8702 1.69458V7.34317ZM53.8702 14.4039C58.6892 14.6863 62.9413 16.0985 66.6264 18.9228C66.3429 18.3579 65.776 17.7931 65.4925 17.5106C65.209 17.2282 63.7917 16.6633 64.0751 16.3809C64.0751 16.0985 65.4925 16.9458 65.4925 16.9458C65.776 16.6633 64.9256 15.8161 64.9256 15.5336C64.9256 15.5336 66.0594 16.3809 66.3429 17.2282C66.6264 17.5106 67.1933 17.5106 67.4768 17.7931C67.7603 18.0755 67.7603 18.3579 68.0437 18.6404C68.0437 18.6404 68.6107 18.9228 68.3272 18.9228C68.3272 18.9228 68.0437 18.6404 68.0437 18.9228C68.0437 18.9228 68.0437 19.4876 68.3272 19.7701L70.3115 17.7931C70.028 17.2282 69.4611 16.3809 69.1776 16.3809C68.8941 16.3809 68.6107 16.6633 68.3272 16.9458C68.0437 17.2282 67.7603 17.2282 67.7603 17.2282C67.7603 16.9458 67.7603 16.6633 67.7603 16.3809C67.7603 16.0985 67.4768 16.0985 67.4768 15.8161C67.4768 15.2512 67.4768 14.6863 67.1933 14.4039C66.9099 14.1215 66.6264 13.5566 66.3429 12.9918C66.0594 12.4269 65.4925 11.862 65.4925 11.2972C61.8074 9.60261 57.8388 8.47289 53.5867 8.19046V14.4039H53.8702ZM53.8702 21.7471C57.5553 22.0295 60.6735 23.4417 63.2247 25.7011L67.1933 21.7471C63.7917 18.3579 58.9727 16.3809 53.8702 16.0985V21.7471ZM53.8702 28.8078C54.4371 28.8078 55.0041 29.0903 55.571 29.0903C55.571 28.8078 56.138 28.5254 56.4214 28.5254C56.7049 28.243 56.9884 27.9605 56.9884 28.5254C56.9884 28.8078 56.7049 29.0902 56.4214 29.3727C56.9884 29.6551 57.5553 29.9375 58.1223 30.22L58.4057 30.5024L58.9727 29.9375C58.9727 29.6551 59.5396 29.3727 59.8231 29.0903L61.5239 27.3957C61.2404 27.3957 60.957 27.9605 60.6735 27.6781C60.39 27.3957 61.5239 26.5484 61.8074 26.8308C61.8074 26.8308 61.8074 26.8308 62.0909 26.8308L62.3743 26.5484C60.1066 24.5714 57.2719 23.4417 54.1537 23.1592V28.8078H53.8702ZM53.3033 30.5024C53.0198 30.5024 53.0198 30.5024 53.3033 30.5024C52.4528 30.5024 51.8859 30.5024 51.319 30.7848C51.319 30.7848 51.0355 31.0673 51.319 31.0673C51.6024 31.3497 51.8859 30.7848 51.8859 31.3497C51.8859 31.6321 51.319 31.3497 51.319 31.6321C51.319 31.9145 51.8859 31.6321 51.8859 31.9145C51.8859 32.197 51.6024 32.4794 51.319 32.7618C51.0355 33.0443 49.6181 33.0443 49.6181 33.3267C49.6181 33.6091 49.3347 33.8916 49.0512 34.174C48.7677 34.4564 47.6338 35.0213 47.6338 35.3037C47.6338 35.5861 48.2008 35.3037 48.2008 35.0213C48.4843 34.7388 48.7677 34.7388 49.0512 34.4564C49.6181 34.174 49.6181 35.0213 49.3347 35.3037C49.0512 35.3037 48.7677 36.151 48.2008 36.151C48.2008 36.151 47.6338 35.8686 47.6338 36.151C47.6338 36.4334 48.4843 36.4334 48.7677 36.7158C49.3347 37.2807 48.2008 36.9983 48.2008 37.2807C47.9173 37.2807 48.2008 37.5631 48.4843 37.5631C48.7677 37.5631 49.0512 37.2807 49.3347 37.5631C49.6181 38.128 48.4843 40.105 48.2008 39.8226C47.9173 39.8226 47.9173 39.8226 47.6338 39.8226C47.9173 40.3874 48.2008 40.6699 48.4843 41.2347C48.7677 40.9523 49.0512 40.3874 49.3347 40.3874C49.6181 40.3874 49.3347 40.105 49.6181 40.105C49.6181 39.8226 49.9016 40.105 49.9016 39.8226C49.9016 39.5401 50.4686 39.2577 50.4686 38.9753C50.4686 38.6929 50.1851 38.6929 50.4686 38.4104C50.4686 38.128 50.752 38.128 50.752 38.128C50.752 38.128 51.0355 38.4104 51.319 38.128C51.319 38.128 51.8859 38.128 52.1694 38.4104C52.4528 38.4104 52.7363 38.4104 52.7363 38.6929C53.0198 38.9753 52.7363 38.9753 52.7363 39.2577H53.0198C53.0198 39.2577 52.4528 39.8226 52.4528 40.105C52.4528 40.3874 51.8859 41.5172 51.6024 41.7996C51.319 42.082 50.752 41.7996 50.752 41.7996C50.4685 41.7996 50.4686 42.082 50.1851 42.082C49.9016 42.082 49.6181 42.082 49.3347 42.3644C50.4685 43.4942 51.8859 44.059 53.5867 44.059C53.8702 44.059 54.1537 44.059 54.7206 44.059C55.0041 43.7766 55.0041 43.4942 55.0041 43.2117C55.0041 42.9293 55.0041 42.9293 55.0041 42.6469C55.0041 42.6469 55.571 41.7996 55.8545 41.7996C56.138 41.7996 56.138 42.082 56.4214 41.7996C56.9884 41.5172 57.2719 41.7996 57.2719 42.082C57.2719 42.3644 56.7049 42.3644 56.7049 42.3644C56.7049 42.3644 57.2719 42.6469 57.2719 42.3644C57.5553 42.082 57.5553 41.5172 57.5553 41.5172C57.2719 41.2347 57.2719 41.2347 57.5553 41.2347C57.8388 41.2347 57.8388 40.6699 57.8388 40.3874C58.1223 40.105 57.2719 40.3874 56.9884 40.3874C56.7049 40.3874 56.4214 39.8226 56.4214 39.5401C56.4214 39.5401 56.9884 40.105 57.2719 40.105C57.5553 40.105 57.8388 39.8226 57.8388 39.5401C57.8388 39.2577 57.2719 39.2577 57.2719 38.9753C57.2719 38.6929 57.8388 38.9753 57.5553 38.6929C57.5553 38.6929 57.5553 38.128 57.2719 38.128C56.9884 38.128 56.7049 36.9983 56.4214 36.9983C56.138 36.9983 56.138 37.2807 55.8545 37.2807C55.8545 37.2807 55.571 37.2807 55.571 36.9983C55.8545 36.7159 56.138 36.4334 56.138 36.151C56.138 35.8686 56.7049 36.151 56.7049 35.5861C56.7049 35.0213 56.138 35.0213 56.4214 34.7388C56.7049 34.4564 56.4214 33.8916 55.8545 33.8916C55.571 33.8916 55.2876 33.6091 55.2876 33.3267C55.2876 33.0443 54.7206 33.0443 54.7206 33.0443C54.7206 32.7618 54.1537 32.4794 53.8702 32.4794C53.5867 32.4794 52.7363 31.9145 52.7363 31.9145C52.7363 31.9145 52.1694 31.9145 52.1694 31.6321C52.4528 31.0673 52.7363 31.6321 53.0198 31.6321C53.3033 30.7848 53.3033 30.5024 53.3033 30.5024ZM52.1694 1.69458C43.3818 1.97701 34.8777 5.36616 28.6413 11.2972L32.6099 15.2512C37.7124 10.4499 44.5157 7.34317 52.1694 7.06074V1.69458ZM27.5074 12.4269C21.2711 18.9228 17.8694 27.1132 17.8694 35.8686H23.5388C23.8223 28.243 26.657 21.4646 31.7595 16.3809L27.5074 12.4269Z" fill="#009DDB"/>
<path d="M313.812 68.3478C315.513 68.3478 316.931 69.76 316.931 71.4546C316.931 73.1492 315.513 74.5613 313.812 74.5613C312.112 74.5613 310.694 73.1492 310.694 71.4546C310.411 70.0424 312.112 68.3478 313.812 68.3478Z" fill="#1B3668"/>
<path d="M289.717 68.3478C291.418 68.3478 292.835 69.76 292.835 71.4546C292.835 73.1492 291.418 74.5613 289.717 74.5613C288.016 74.5613 286.599 73.1492 286.599 71.4546C286.599 70.0424 288.016 68.3478 289.717 68.3478Z" fill="#3EAD49"/>
<path d="M265.907 68.3478C267.608 68.3478 269.025 69.76 269.025 71.4546C269.025 73.1492 267.608 74.5613 265.907 74.5613C264.206 74.5613 262.789 73.1492 262.789 71.4546C262.789 70.0424 264.206 68.3478 265.907 68.3478Z" fill="#48773C"/>
<path d="M242.095 68.3478C243.796 68.3478 245.213 69.76 245.213 71.4546C245.213 73.1492 243.796 74.5613 242.095 74.5613C240.394 74.5613 238.977 73.1492 238.977 71.4546C238.693 70.0424 240.11 68.3478 242.095 68.3478Z" fill="#F89C25"/>
<path d="M217.999 68.3478C219.7 68.3478 221.117 69.76 221.117 71.4546C221.117 73.1492 219.7 74.5613 217.999 74.5613C216.298 74.5613 214.881 73.1492 214.881 71.4546C214.881 70.0424 216.298 68.3478 217.999 68.3478Z" fill="#F26E24"/>
<path d="M194.187 68.3478C195.888 68.3478 197.306 69.76 197.306 71.4546C197.306 73.1492 195.888 74.5613 194.187 74.5613C192.487 74.5613 191.069 73.1492 191.069 71.4546C190.786 70.0424 192.487 68.3478 194.187 68.3478Z" fill="#FCB614"/>
<path d="M170.095 68.3478C171.796 68.3478 173.213 69.76 173.213 71.4546C173.213 73.1492 171.796 74.5613 170.095 74.5613C168.394 74.5613 166.977 73.1492 166.977 71.4546C166.977 70.0424 168.394 68.3478 170.095 68.3478Z" fill="#EE402A"/>
<path d="M301.908 68.3478C303.609 68.3478 305.026 69.76 305.026 71.4546C305.026 73.1492 303.609 74.5613 301.908 74.5613C300.207 74.5613 298.79 73.1492 298.79 71.4546C298.507 70.0424 299.924 68.3478 301.908 68.3478Z" fill="#005589"/>
<path d="M277.813 68.3478C279.514 68.3478 280.932 69.76 280.932 71.4546C280.932 73.1492 279.514 74.5613 277.813 74.5613C276.113 74.5613 274.695 73.1492 274.695 71.4546C274.695 70.0424 276.113 68.3478 277.813 68.3478Z" fill="#007DBA"/>
<path d="M254.002 68.3478C255.703 68.3478 257.12 69.76 257.12 71.4546C257.12 73.1492 255.703 74.5613 254.002 74.5613C252.301 74.5613 250.884 73.1492 250.884 71.4546C250.6 70.0424 252.301 68.3478 254.002 68.3478Z" fill="#CC8B2A"/>
<path d="M229.905 68.3478C231.606 68.3478 233.023 69.76 233.023 71.4546C233.023 73.1492 231.606 74.5613 229.905 74.5613C228.204 74.5613 226.787 73.1492 226.787 71.4546C226.787 70.0424 228.204 68.3478 229.905 68.3478Z" fill="#DF1A82"/>
<path d="M206.093 68.3478C207.794 68.3478 209.211 69.76 209.211 71.4546C209.211 73.1492 207.794 74.5613 206.093 74.5613C204.392 74.5613 202.975 73.4316 202.975 71.737C202.975 70.0424 204.392 68.3478 206.093 68.3478Z" fill="#8E1837"/>
<path d="M182.283 68.3478C183.984 68.3478 185.401 69.76 185.401 71.4546C185.401 73.1492 183.984 74.5613 182.283 74.5613C180.582 74.5613 179.165 73.1492 179.165 71.4546C178.882 70.0424 180.299 68.3478 182.283 68.3478Z" fill="#00ACD7"/>
<path d="M158.188 68.3478C159.889 68.3478 161.307 69.76 161.307 71.4546C161.307 73.1492 159.889 74.5613 158.188 74.5613C156.488 74.5613 155.07 73.1492 155.07 71.4546C155.07 70.0424 156.488 68.3478 158.188 68.3478Z" fill="#C22033"/>
<path d="M134.376 68.3478C136.077 68.3478 137.494 69.76 137.494 71.4546C137.494 73.1492 136.077 74.5613 134.376 74.5613C132.675 74.5613 131.258 73.1492 131.258 71.4546C130.974 70.0424 132.675 68.3478 134.376 68.3478Z" fill="#D19E2A"/>
<path d="M146.282 68.3478C147.983 68.3478 149.4 69.76 149.4 71.4546C149.4 73.1492 147.983 74.5613 146.282 74.5613C144.581 74.5613 143.164 73.1492 143.164 71.4546C143.164 70.0424 144.581 68.3478 146.282 68.3478Z" fill="#2C9947"/>
<path d="M122.47 68.3478C124.171 68.3478 125.588 69.76 125.588 71.4546C125.588 73.1492 124.171 74.5613 122.47 74.5613C120.769 74.5613 119.352 73.1492 119.352 71.4546C119.068 70.0424 120.485 68.3478 122.47 68.3478Z" fill="#EA1C2D"/>
<path d="M127.857 12.1444C127.857 13.2741 127.574 14.1214 127.29 14.9687C127.007 15.816 126.44 16.3808 125.589 16.9457C125.022 17.5105 124.172 17.5105 123.322 17.5105C122.471 17.5105 121.621 17.2281 121.054 16.9457C120.487 16.3808 119.92 15.816 119.353 15.2511C119.07 14.4038 118.786 13.5565 118.786 12.4268V11.5795C118.786 10.4498 119.07 9.6025 119.353 8.75521C119.637 7.90792 120.203 7.34307 121.054 6.77821C121.621 6.21335 122.471 6.21335 123.322 6.21335C124.172 6.21335 125.022 6.49578 125.589 6.77821C126.156 7.34307 126.723 7.90792 127.29 8.75521C127.574 9.6025 127.857 10.4498 127.857 11.5795V12.1444ZM125.589 11.5795C125.589 10.4498 125.306 9.6025 125.022 9.03764C124.739 8.47278 124.172 8.19035 123.322 8.19035C122.471 8.19035 121.904 8.47278 121.621 9.03764C121.337 9.6025 121.054 10.4498 121.054 11.5795V12.1444C121.054 13.2741 121.337 14.1214 121.621 14.6862C121.904 15.2511 122.471 15.5335 123.322 15.5335C124.172 15.5335 124.739 15.2511 125.022 14.6862C125.306 14.1214 125.589 13.2741 125.589 12.1444V11.5795Z" fill="#009DDB"/>
<path d="M131.54 13.5568V17.2284H129.272V6.49603H133.525C134.375 6.49603 134.942 6.77846 135.792 7.06089C136.359 7.34332 136.926 7.90818 137.21 8.19061C137.493 8.75547 137.777 9.32033 137.777 10.1676C137.777 11.2973 137.493 12.1446 136.643 12.7095C135.792 13.2743 134.942 13.5568 133.525 13.5568H131.54ZM131.54 11.5798H133.525C134.091 11.5798 134.658 11.5798 134.942 11.2973C135.225 11.0149 135.509 10.7325 135.509 10.1676C135.509 9.60276 135.225 9.32033 134.942 8.75547C134.658 8.47304 134.091 8.19061 133.525 8.19061H131.54V11.5798Z" fill="#009DDB"/>
<path d="M145.998 8.19061H141.179V17.2284H139.194V6.49603H145.998V8.19061Z" fill="#009DDB"/>
<path d="M152.234 14.9689H148.265L147.698 17.2284H145.431L149.399 6.49603H151.384L155.352 17.2284H153.084L152.234 14.9689ZM149.116 13.2743H151.667L150.25 9.32033L149.116 13.2743Z" fill="#009DDB"/>
<path d="M165.275 17.2284H163.007V12.7095H158.755V17.2284H156.487V6.49603H158.755V11.0149H163.007V6.49603H165.275V17.2284Z" fill="#009DDB"/>
<path d="M169.526 6.49603H167.259V17.2284H169.526V6.49603Z" fill="#009DDB"/>
<path d="M176.898 9.60276C176.898 9.32033 176.614 8.75547 176.331 8.75547C176.048 8.47304 175.481 8.47304 175.197 8.47304C174.63 8.47304 174.347 8.47304 174.063 8.75547C173.78 9.0379 173.496 9.32033 173.496 9.60276H171.229C171.229 9.0379 171.512 8.47304 171.795 7.90818C172.079 7.34332 172.646 7.06089 173.213 6.77846C173.78 6.49603 174.347 6.49603 175.197 6.49603C176.331 6.49603 177.465 6.77846 178.032 7.34332C178.599 7.90818 179.166 8.75547 179.166 9.60276C179.166 10.1676 178.882 10.45 178.599 11.0149C178.315 11.2973 178.032 11.8622 177.465 11.8622C178.032 12.1446 178.599 12.4271 178.882 12.7095C179.166 12.9919 179.449 13.5568 179.449 14.4041C179.449 15.2514 179.166 16.0986 178.315 16.6635C177.465 17.2284 176.614 17.5108 175.197 17.5108C174.347 17.5108 173.78 17.5108 173.213 17.2284C172.646 16.9459 172.079 16.6635 171.795 16.0986C171.512 15.5338 171.229 14.9689 171.229 14.4041H173.496C173.496 14.6865 173.78 14.9689 174.063 15.2514C174.347 15.5338 174.914 15.5338 175.481 15.5338C176.048 15.5338 176.614 15.5338 176.898 15.2514C177.181 14.9689 177.465 14.6865 177.465 14.1216C177.465 13.5568 177.181 13.2743 176.898 12.9919C176.614 12.7095 176.048 12.7095 175.481 12.7095H174.063V11.0149H175.481C176.331 11.0149 176.898 10.45 176.898 9.60276Z" fill="#009DDB"/>
<path d="M186.819 14.9689H182.851L182 17.2284H179.732L183.701 6.49603H185.969L189.937 17.2284H187.67L186.819 14.9689ZM183.418 13.2743H185.969L184.551 9.32033L183.418 13.2743Z" fill="#009DDB"/>
<path d="M191.071 6.49603H193.056V15.5338H197.591V6.49603H199.575V15.5338H201.276L200.993 19.7702H199.008V17.2284H191.071V6.49603Z" fill="#009DDB"/>
<path d="M204.677 6.49603H202.41V17.2284H204.677V6.49603Z" fill="#009DDB"/>
<path d="M212.046 17.2284V13.2743H210.345L208.077 17.2284H205.81L208.077 12.7095C206.943 12.1446 206.377 11.0149 206.377 9.88519C206.377 8.75547 206.66 7.90818 207.51 7.34332C208.077 6.77846 209.211 6.49603 210.345 6.49603H214.314V17.2284H212.046ZM208.644 9.88519C208.644 10.45 208.928 11.0149 209.211 11.2973C209.495 11.5798 210.062 11.5798 210.629 11.5798H212.046V8.19061H210.629C209.211 8.19061 208.644 8.75547 208.644 9.88519Z" fill="#009DDB"/>
<path d="M127.857 28.243C127.857 29.3727 127.574 30.22 127.29 31.0673C127.007 31.9146 126.44 32.4794 125.589 33.0443C125.022 33.6091 124.172 33.6091 123.322 33.6091C122.471 33.6091 121.621 33.3267 121.054 33.0443C120.487 32.4794 119.92 31.9146 119.353 31.3497C119.07 30.5024 118.786 29.6551 118.786 28.5254V27.9606C118.786 26.8308 119.07 25.9835 119.353 25.1363C119.637 24.289 120.203 23.7241 121.054 23.1593C121.621 22.5944 122.471 22.5944 123.322 22.5944C124.172 22.5944 125.022 22.8768 125.589 23.1593C126.156 23.7241 126.723 24.289 127.29 25.1363C127.574 25.9835 127.857 26.8308 127.857 27.9606V28.243ZM125.589 27.6781C125.589 26.5484 125.306 25.7011 125.022 25.1363C124.739 24.5714 124.172 24.289 123.322 24.289C122.471 24.289 121.904 24.5714 121.621 25.1363C121.337 25.7011 121.054 26.5484 121.054 27.6781V28.243C121.054 29.3727 121.337 30.22 121.621 30.7848C121.904 31.3497 122.471 31.6321 123.322 31.6321C124.172 31.6321 124.739 31.3497 125.022 30.7848C125.306 30.22 125.589 29.3727 125.589 28.243V27.6781Z" fill="#009DDB"/>
<path d="M136.361 24.2891H131.542V26.2661H133.243C134.377 26.2661 135.511 26.5485 136.361 27.1133C137.211 27.6782 137.495 28.5255 137.495 29.6552C137.495 30.7849 137.211 31.6322 136.361 32.1971C135.511 32.7619 134.66 33.0444 133.526 33.0444H129.558V22.312H136.644V24.2891H136.361ZM131.542 28.2431V31.3498H133.243C133.81 31.3498 134.377 31.0674 134.66 30.7849C134.944 30.5025 135.227 29.9376 135.227 29.6552C135.227 29.0904 134.944 28.8079 134.66 28.5255C134.377 28.2431 133.81 27.9606 133.243 27.9606H131.542V28.2431Z" fill="#009DDB"/>
<path d="M138.91 25.7012L137.776 25.1364C138.343 24.5715 138.343 23.7242 138.343 23.1594V22.0297H140.044V23.1594C140.044 23.7242 140.044 24.0067 139.76 24.5715C139.76 25.1364 139.193 25.4188 138.91 25.7012Z" fill="#009DDB"/>
<path d="M149.966 29.6551C149.966 30.7848 149.399 31.6321 148.549 32.4794C147.699 33.0443 146.848 33.6091 145.431 33.6091C144.013 33.6091 142.88 33.0443 142.313 32.197C141.462 31.3497 141.179 29.9376 141.179 28.5254V27.6781C141.179 26.5484 141.462 25.7011 141.746 24.8538C142.029 24.0065 142.596 23.4417 143.446 23.1593C144.013 22.8768 144.864 22.5944 145.714 22.5944C146.848 22.5944 147.982 22.8768 148.832 23.7241C149.683 24.289 149.966 25.4187 150.25 26.5484H147.982C147.982 25.9835 147.699 25.4187 147.415 25.1363C147.132 24.8538 146.565 24.5714 145.998 24.5714C145.431 24.5714 144.864 24.8538 144.297 25.1363C144.013 25.7011 143.73 26.266 143.73 27.3957H147.132V29.0903H143.446C143.446 29.9376 143.73 30.7849 144.013 31.3497C144.297 31.9146 144.864 32.197 145.714 32.197C146.281 32.197 146.848 31.9146 147.132 31.6321C147.415 31.3497 147.699 30.7849 147.699 30.22H149.966V29.6551Z" fill="#009DDB"/>
<path d="M161.589 35.8687H159.605V33.3268H153.085V35.8687H151.101V31.3498H151.951C152.518 31.0674 152.801 30.5025 153.085 29.6552C153.368 29.0904 153.368 27.9606 153.652 27.1133L153.935 22.312H160.455V31.3498H161.589V35.8687ZM154.219 31.3498H158.187V24.2891H155.353L155.069 27.1133C155.353 29.0904 154.786 30.5025 154.219 31.3498Z" fill="#009DDB"/>
<path d="M171.794 33.3267H169.527V28.5254H165.275V33.3267H163.007V22.5944H165.275V26.8308H169.527V22.5944H171.794V33.3267Z" fill="#009DDB"/>
<path d="M180.015 31.0673H176.046L175.195 33.3267H172.928L176.896 22.5944H178.881L182.849 33.3267H180.581L180.015 31.0673ZM176.613 29.3727H179.164L177.747 25.4187L176.613 29.3727Z" fill="#009DDB"/>
<path d="M192.771 33.3267H190.786V28.5254H186.251V33.3267H184.267V22.5944H186.251V26.8308H190.786V22.5944H192.771V33.3267Z" fill="#009DDB"/>
<path d="M201.276 22.5944H203.543V33.3267H201.276V25.9835L197.024 33.3267H194.756V22.5944H197.024V29.6551L201.276 22.5944Z" fill="#009DDB"/>
<path d="M209.497 26.266L211.481 22.5944H214.032L210.914 27.9606L214.032 33.3267H211.481L209.497 29.3727L207.229 33.3267H204.678L208.079 27.9606L204.961 22.5944H207.512L209.497 26.266Z" fill="#009DDB"/>
<path d="M227.638 33.3267H225.654V28.5254H221.118V33.3267H218.851V22.5944H221.118V26.8308H225.654V22.5944H227.638V33.3267Z" fill="#009DDB"/>
<path d="M235.858 31.0673H231.889L231.322 33.3267H229.055L233.023 22.5944H235.008L238.976 33.3267H236.708L235.858 31.0673ZM232.456 29.3727H235.008L233.59 25.4187L232.456 29.3727Z" fill="#009DDB"/>
<path d="M240.111 22.5944H242.379V31.3497H246.631V22.5944H248.899V31.3497H250.316L250.033 35.8686H248.049V33.3267H240.111V22.5944Z" fill="#009DDB"/>
<path d="M254 22.5944H251.732V33.3267H254V22.5944Z" fill="#009DDB"/>
<path d="M262.504 22.5944H264.772V33.3267H262.504V26.266L258.252 33.3267H255.984V22.5944H258.252V29.6551L262.504 22.5944ZM262.788 19.7701C262.788 20.335 262.504 20.8998 262.221 21.4647C261.654 21.7471 261.087 22.0296 260.236 22.0296C259.386 22.0296 258.819 21.7471 258.252 21.4647C257.685 21.1823 257.685 20.6174 257.685 19.7701H259.103C259.103 20.0525 259.103 20.335 259.386 20.6174C259.67 20.8998 259.953 20.8998 260.236 20.8998C260.52 20.8998 260.803 20.8998 261.087 20.6174C261.37 20.335 261.37 20.335 261.37 19.7701H262.788Z" fill="#009DDB"/>
</svg>
