<svg width="18" height="21" viewBox="0 0 18 21" fill="none" xmlns="http://www.w3.org/2000/svg">
<path d="M15.8002 2.78222C13.4312 0.341962 9.57355 0.341962 7.20713 2.78222L0.643533 9.53826C0.600782 9.5823 0.578148 9.64188 0.578148 9.70405C0.578148 9.76622 0.600782 9.8258 0.643533 9.86984L1.57149 10.8257C1.61391 10.8692 1.67132 10.8937 1.73118 10.8937C1.79103 10.8937 1.84845 10.8692 1.89087 10.8257L8.45447 4.0697C9.26926 3.23038 10.3531 2.76927 11.5049 2.76927C12.6567 2.76927 13.7406 3.23038 14.5528 4.0697C15.3676 4.90902 15.8153 6.02553 15.8153 7.20939C15.8153 8.39584 15.3676 9.50976 14.5528 10.3491L7.86349 17.2372L6.77962 18.3537C5.76616 19.3977 4.11897 19.3977 3.10551 18.3537C2.61513 17.8486 2.34604 17.1777 2.34604 16.4627C2.34604 15.7477 2.61513 15.0768 3.10551 14.5716L9.74204 7.73786C9.91053 7.56688 10.1318 7.47103 10.3682 7.47103H10.3707C10.6071 7.47103 10.8259 7.56688 10.9919 7.73786C11.1604 7.91142 11.2509 8.13938 11.2509 8.38289C11.2509 8.62381 11.1579 8.85177 10.9919 9.02275L5.56749 14.6053C5.52474 14.6493 5.5021 14.7089 5.5021 14.7711C5.5021 14.8333 5.52474 14.8928 5.56749 14.9369L6.49545 15.8928C6.53786 15.9363 6.59528 15.9607 6.65514 15.9607C6.71499 15.9607 6.77241 15.9363 6.81482 15.8928L12.2367 10.3076C12.7372 9.79213 13.0113 9.10823 13.0113 8.3803C13.0113 7.65237 12.7346 6.96588 12.2367 6.45296C11.2031 5.38827 9.52325 5.39086 8.48967 6.45296L7.84589 7.11872L1.85566 13.2867C1.4491 13.7031 1.12682 14.1984 0.907524 14.744C0.688226 15.2897 0.57627 15.8747 0.578148 16.4653C0.578148 17.6647 1.03333 18.7915 1.85566 19.6386C2.70817 20.5142 3.82474 20.952 4.94131 20.952C6.05787 20.952 7.17444 20.5142 8.02444 19.6386L15.8002 11.634C16.9444 10.4527 17.5781 8.88027 17.5781 7.20939C17.5806 5.53593 16.9469 3.96349 15.8002 2.78222Z" fill="#9B9EAB"/>
</svg>
