<?xml version="1.0"?>
<svg xmlns="http://www.w3.org/2000/svg" xmlns:xlink="http://www.w3.org/1999/xlink" xmlns:svgjs="http://svgjs.com/svgjs" version="1.1" width="512" height="512" x="0" y="0" viewBox="0 0 54 60" style="enable-background:new 0 0 512 512" xml:space="preserve" class=""><g><g xmlns="http://www.w3.org/2000/svg" id="Page-1" fill="none" fill-rule="evenodd"><g id="036---Jumping-Up-Levels" fill-rule="nonzero"><g id="Icons" transform="translate(1 1)"><rect id="Rectangle-path" fill="#f31d1d" height="18" rx="2" width="14" x="36" y="40" data-original="#673ab7" class=""/><path id="Shape" d="m48 40h-3c1.1045695 0 2 .8954305 2 2v14c0 1.1045695-.8954305 2-2 2h3c1.1045695 0 2-.8954305 2-2v-14c0-1.1045695-.8954305-2-2-2z" fill="#f31d1d" data-original="#4527a0" class=""/><rect id="Rectangle-path" fill="#ebef31" height="12" rx="2" width="14" x="18" y="46" data-original="#ef314c" class=""/><path id="Shape" d="m30 46h-3c1.1045695 0 2 .8954305 2 2v8c0 1.1045695-.8954305 2-2 2h3c1.1045695 0 2-.8954305 2-2v-8c0-1.1045695-.8954305-2-2-2z" fill="#ebef31" data-original="#bb193b" class=""/><rect id="Rectangle-path" fill="#ff9801" height="6" rx="2" width="14" y="52" data-original="#ff9801" class=""/><path id="Shape" d="m12 52h-3c1.1045695 0 2 .8954305 2 2v2c0 1.1045695-.8954305 2-2 2h3c1.1045695 0 2-.8954305 2-2v-2c0-1.1045695-.8954305-2-2-2z" fill="#ff9801" data-original="#f57c00" class=""/><path id="Shape" d="m48 22v15.5c0 1.3807119-1.1192881 2.5-2.5 2.5s-2.5-1.1192881-2.5-2.5c0 1.3807119-1.1192881 2.5-2.5 2.5s-2.5-1.1192881-2.5-2.5v-15.5z" fill="#02a9f4" data-original="#02a9f4" class=""/><path id="Shape" d="m45 22v15.5c-.0011004.7838584-.3716862 1.5213242-1 1.99.7546298.5736026 1.769338.6694183 2.6179992.2472094.8486611-.422209 1.3843097-1.2893271 1.3820008-2.2372094l.0000074-15.5z" fill="#02a9f4" data-original="#0377bc" class=""/><path id="Shape" d="m48 8c-.0000307.15714409-.0100509.31412731-.03.47-.1941137 2.1145381-1.7079169 3.8732803-3.77 4.38-.3921005.1002645-.7952837.1506624-1.2.15-.4014612.0012917-.8014173-.0491229-1.19-.15-2.0681909-.4994892-3.588393-2.2609932-3.78-4.38-.0199491-.15587269-.0299693-.31285591-.03-.47.0000001-2.76142367 2.2385763-4.99999979 5-4.99999979s4.9999999 2.23857612 5 4.99999979z" fill="#ffe0b2" data-original="#ffe0b2" class=""/><path id="Shape" d="m43 3c-.5101742.00696354-1.0161845.09298528-1.5.255 2.0774589.64795063 3.4943474 2.5688466 3.5 4.745-.0000307.15714409-.0100509.31412731-.03.47-.1868206 1.9962563-1.5555147 3.6844438-3.47 4.28.1.032.2.075.307.1.3895542.101133.7905351.1515497 1.193.15.4047163.0006624.8078995-.0497355 1.2-.15 2.0620831-.5067197 3.5758863-2.2654619 3.77-4.38.0199491-.15587269.0299693-.31285591.03-.47 0-2.76142375-2.2385763-5-5-5z" fill="#ffe0b2" data-original="#dfc49c" class=""/><path id="Shape" d="m52 2v6c-.0081181 2.5161351-1.1919628 4.8838245-3.2 6.4l-.8.6v7h-10v-7l-.8-.6c-2.0080372-1.5161755-3.1918819-3.8838649-3.2-6.4v-6c0-1.1045695.8954305-2 2-2s2 .8954305 2 2v6c.0000307.15714409.0100509.31412731.03.47.191607 2.1190068 1.7118091 3.8805108 3.78 4.38.3885827.1008771.7885388.1512917 1.19.15.4047163.0006624.8078995-.0497355 1.2-.15 2.0620831-.5067197 3.5758863-2.2654619 3.77-4.38.0199491-.15587269.0299693-.31285591.03-.47v-6c0-1.1045695.8954305-2 2-2s2 .8954305 2 2z" fill="#ebef31" data-original="#ef314c" class=""/><g fill="#bb193b"><path id="Shape" d="m35 2v6c.0000307.15714409.0100509.31412731.03.47.191607 2.1190068 1.7118091 3.8805108 3.78 4.38.3885827.1008771.7885388.1512917 1.19.15.4047163.0006624.8078995-.0497355 1.2-.15.1-.026.2-.068.3-.1-1.9162244-.5929877-3.286052-2.2825733-3.47-4.28-.0199491-.15587269-.0299693-.31285591-.03-.47v-6c.0034236-.83392735-.5132268-1.58162977-1.2944668-1.8733671-.7812399-.29173732-1.6615172-.06568763-2.2055332.5663671.3199584.36042954.4977008.8250482.5 1.307z" fill="#ebef31" data-original="#bb193b" class=""/><path id="Shape" d="m50 0c-.5767759.00282394-1.1239827.25563349-1.5.693.3199584.36042954.4977008.8250482.5 1.307v6c-.0081181 2.5161351-1.1919628 4.8838245-3.2 6.4l-.8.6v7h3v-7l.8-.6c2.0080372-1.5161755 3.1918819-3.8838649 3.2-6.4v-6c-.0032948-1.10320187-.8967981-1.9967052-2-2z" fill="#ebef31" data-original="#bb193b" class=""/></g></g><g id="Icons_copy" fill="#000"><path id="Shape" d="m47 51c-.5522847 0-1 .4477153-1 1v2h-2c-.5522847 0-1 .4477153-1 1s.4477153 1 1 1h3c.5522847 0 1-.4477153 1-1v-3c0-.5522847-.4477153-1-1-1z" fill="#000000" data-original="#000000" class=""/><path id="Shape" d="m31 46h-10c-1.6568542 0-3 1.3431458-3 3v8c0 1.6568542 1.3431458 3 3 3h10c1.6568542 0 3-1.3431458 3-3v-8c0-1.6568542-1.3431458-3-3-3zm1 11c0 .5522847-.4477153 1-1 1h-10c-.5522847 0-1-.4477153-1-1v-8c0-.5522847.4477153-1 1-1h10c.5522847 0 1 .4477153 1 1z" fill="#000000" data-original="#000000" class=""/><path id="Shape" d="m13 52h-10c-1.65685425 0-3 1.3431458-3 3v2c0 1.6568542 1.34314575 3 3 3h10c1.6568542 0 3-1.3431458 3-3v-2c0-1.6568542-1.3431458-3-3-3zm1 5c0 .5522847-.4477153 1-1 1h-10c-.55228475 0-1-.4477153-1-1v-2c0-.5522847.44771525-1 1-1h10c.5522847 0 1 .4477153 1 1z" fill="#000000" data-original="#000000" class=""/><path id="Shape" d="m35 26c-5.5203344.0060624-9.9939376 4.4796656-10 10v.006c-2.5819195-3.4425615-7.0766501-4.8473504-11.159433-3.4877837-4.08278289 1.3595667-6.83798611 5.1785836-6.840567 9.4817837v7c0 .5522847.44771525 1 1 1s1-.4477153 1-1v-7c0-4.418278 3.581722-8 8-8s8 3.581722 8 8v1c0 .5522847.4477153 1 1 1s1-.4477153 1-1v-7c.0049599-4.4162219 3.5837781-7.9950401 8-8 .5522847 0 1-.4477153 1-1s-.4477153-1-1-1z" fill="#000000" data-original="#000000" class=""/><path id="Shape" d="m51 0c-1.6568542 0-3 1.34314575-3 3v1.54c-2.2714348-2.05324294-5.7285652-2.05324294-8 0v-1.54c0-1.65685425-1.3431458-3-3-3s-3 1.34314575-3 3v6c.0070383 2.8311496 1.3393033 5.4956796 3.6 7.2l.4.3v22c.0035589.5444356.134737 1.0804505.383 1.565-1.3884026.2917858-2.3825903 1.5162679-2.383 2.935v14c0 1.6568542 1.3431458 3 3 3h10c1.6568542 0 3-1.3431458 3-3v-14c-.0002344-1.4200217-.9960376-2.6453689-2.386-2.936.2502482-.4835817.3825183-1.0195155.386-1.564v-22l.4-.3c2.2609423-1.7041159 3.5932727-4.3687766 3.6-7.2v-6c0-1.65685425-1.3431458-3-3-3zm-7 5c2.209139 0 4 1.790861 4 4-.0004427.12742775-.0091275.25469344-.026.381-.1550028 1.6929622-1.3697272 3.0998236-3.022 3.5-.62615.1609966-1.28285.1609966-1.909 0-.4039961-.0990099-.7897709-.2613525-1.143-.481-1.0735306-.6655212-1.768321-1.800259-1.873-3.059-.0164555-.11295301-.0254749-.22686482-.027-.341 0-2.209139 1.790861-4 4-4zm6 38v14c0 .5522847-.4477153 1-1 1h-10c-.5522847 0-1-.4477153-1-1v-14c0-.5522847.4477153-1 1-1h10c.5522847 0 1 .4477153 1 1zm-10-21v-6c0-.3147573-.1481942-.6111456-.4-.8l-.8-.6c-1.7583196-1.3255825-2.7945258-3.3979948-2.8-5.6v-6c0-.55228475.4477153-1 1-1s1 .44771525 1 1v6c-.0003514.18686052.0110042.37355952.034.559.2563691 2.5271848 2.0616481 4.6262907 4.522 5.258h.013.007.013c.4608801.1195072.934882.180983 1.411.183.4852577.0006297.9686848-.0595047 1.439-.179 2.4658105-.5993237 4.281263-2.6949412 4.523-5.221v-.025-.013-.012c.0232132-.18245196.0359009-.36608925.038-.55v-6c0-.55228475.4477153-1 1-1s1 .44771525 1 1v6c-.0051632 2.2020791-1.0414347 4.274622-2.8 5.6l-.8.6c-.2518058.1888544-.4.4852427-.4.8v22.5c0 .8284271-.6715729 1.5-1.5 1.5s-1.5-.6715729-1.5-1.5c-.0058219-.08514-.0226279-.16917-.05-.25.0273721-.08083.0441781-.16486.05-.25v-11c0-.5522847-.4477153-1-1-1s-1 .4477153-1 1v11c.0058219.08514.0226279.16917.05.25-.0273721.08083-.0441781.16486-.05.25 0 .8284271-.6715729 1.5-1.5 1.5s-1.5-.6715729-1.5-1.5z" fill="#000000" data-original="#000000" class=""/></g></g></g></g></svg>
