<svg width="24" height="24" viewBox="0 0 24 24" fill="none" xmlns="http://www.w3.org/2000/svg">
<path d="M23.9108 5.09419C23.8603 4.97256 23.7751 4.8685 23.6658 4.795C23.5566 4.7215 23.4281 4.68181 23.2964 4.68089H19.7666C19.3303 3.87957 18.6886 3.20887 17.9072 2.73772C17.1259 2.26656 16.2332 2.01195 15.3209 2.00005C13.9501 1.99409 12.6328 2.5314 11.6573 3.49439C10.6817 4.45737 10.1274 5.76761 10.1156 7.13833V8.11014C5.37943 6.98195 1.46987 3.12824 1.42519 3.09473C1.33907 3.00972 1.23155 2.94961 1.11403 2.92078C0.996506 2.89195 0.873371 2.89547 0.757691 2.93098C0.642011 2.96648 0.538102 3.03264 0.456991 3.12244C0.37588 3.21224 0.320593 3.32232 0.296998 3.441C-0.674808 8.75801 0.922529 12.3101 2.4305 14.3543C3.23029 15.4488 4.21276 16.3972 5.33475 17.158C3.60337 19.258 0.754976 20.3527 0.721466 20.3638C0.626297 20.3989 0.5405 20.4554 0.470752 20.529C0.401005 20.6027 0.349189 20.6914 0.319339 20.7883C0.287642 20.8829 0.278207 20.9835 0.29177 21.0823C0.305332 21.1811 0.341525 21.2755 0.39753 21.358C0.509232 21.5255 1.60391 23 5.42411 23C13.2097 23 19.722 16.9793 20.3475 9.2495L23.7656 5.82025C23.8624 5.72948 23.9285 5.61069 23.9546 5.4805C23.9806 5.35031 23.9653 5.21525 23.9108 5.09419ZM19.2193 8.47876C19.1031 8.59467 19.0352 8.75037 19.0294 8.91439C18.5714 16.0633 12.5954 21.6596 5.42411 21.6596C3.87146 21.6596 2.87731 21.3915 2.28529 21.1234C3.54752 20.4867 5.61401 19.2356 6.87624 17.3367C6.92652 17.258 6.96036 17.1699 6.97572 17.0778C6.99108 16.9856 6.98764 16.8913 6.9656 16.8005C6.94179 16.7077 6.89863 16.6208 6.83896 16.5458C6.77929 16.4707 6.70445 16.4091 6.61932 16.3649C6.59698 16.3649 4.92146 15.4936 3.46933 13.5053C1.73795 11.1373 1.05657 8.24418 1.43636 4.9043C3.0672 6.2894 6.58581 8.90322 10.6741 9.58461C10.7703 9.60288 10.8694 9.59948 10.9642 9.57465C11.0589 9.54982 11.1469 9.50418 11.2218 9.44106C11.2967 9.37794 11.3566 9.29892 11.3971 9.20975C11.4376 9.12057 11.4577 9.02349 11.456 8.92556V7.13833C11.4649 6.12607 11.874 5.15845 12.5939 4.44684C13.3139 3.73523 14.2863 3.33748 15.2986 3.34047C16.03 3.35103 16.743 3.57138 17.3529 3.97533C17.9628 4.37927 18.4439 4.94983 18.739 5.61919C18.7899 5.7396 18.8756 5.84213 18.985 5.91374C19.0944 5.98535 19.2226 6.02279 19.3533 6.02132H21.6767L19.2193 8.47876Z" fill="white"/>
</svg>
