<svg width="30" height="24" viewBox="0 0 30 24" fill="none" xmlns="http://www.w3.org/2000/svg">
<path d="M19.8136 11.8867L13.2682 7.96146C13.1449 7.88845 13.002 7.84678 12.8546 7.84087C12.7072 7.83496 12.5607 7.86503 12.4307 7.92789C12.3008 7.99075 12.1921 8.08406 12.1163 8.19794C12.0404 8.31182 12.0003 8.44203 12 8.57477V16.4252C12.0002 16.559 12.0409 16.6903 12.1178 16.8048C12.1947 16.9194 12.3048 17.0129 12.4364 17.0753C12.5656 17.1381 12.7114 17.1678 12.858 17.1613C13.0046 17.1548 13.1465 17.1124 13.2682 17.0385L19.8136 13.1133C19.9262 13.0462 20.0184 12.955 20.0823 12.848C20.1461 12.741 20.1796 12.6215 20.1796 12.5C20.1796 12.3785 20.1461 12.259 20.0823 12.152C20.0184 12.045 19.9262 11.9538 19.8136 11.8867ZM13.6364 15.0514V9.9486L17.8909 12.5L13.6364 15.0514ZM29.2364 5.42233C29.1177 5.00833 28.8914 4.62562 28.5761 4.30573C28.2607 3.98583 27.8654 3.73791 27.4227 3.58238C22.7727 1.97549 15.3136 2.00002 15 2.00002C14.6864 2.00002 7.22727 1.97549 2.57727 3.58238C2.13455 3.73791 1.73925 3.98583 1.42393 4.30573C1.10861 4.62562 0.882298 5.00833 0.763636 5.42233C0.409091 6.62443 0 8.83237 0 12.5C0 16.1676 0.409091 18.3756 0.763636 19.5777C0.882298 19.9917 1.10861 20.3744 1.42393 20.6943C1.73925 21.0142 2.13455 21.2621 2.57727 21.4176C7.22727 23.0245 14.6864 23 15 23H15.0955C16.0364 23 22.9909 22.9509 27.4227 21.4176C27.8654 21.2621 28.2607 21.0142 28.5761 20.6943C28.8914 20.3744 29.1177 19.9917 29.2364 19.5777C29.5909 18.3756 30 16.1676 30 12.5C30 8.83237 29.5909 6.62443 29.2364 5.42233ZM27.6545 19.2097C27.6009 19.3969 27.4988 19.57 27.3566 19.715C27.2144 19.8599 27.0362 19.9726 26.8364 20.0438C22.4727 21.5525 15.0818 21.528 15 21.528C14.9182 21.528 7.52727 21.5525 3.16364 20.0438C2.96384 19.9726 2.78558 19.8599 2.64339 19.715C2.5012 19.57 2.39912 19.3969 2.34545 19.2097C2.01818 18.0812 1.63636 16.0082 1.63636 12.5C1.63636 8.99183 2.01818 6.91882 2.34545 5.79032C2.39912 5.60313 2.5012 5.42999 2.64339 5.28504C2.78558 5.14008 2.96384 5.02741 3.16364 4.95621C7.52727 3.44745 14.9182 3.47198 15 3.47198C15.0818 3.47198 22.4727 3.44745 26.8364 4.95621C27.0362 5.02741 27.2144 5.14008 27.3566 5.28504C27.4988 5.42999 27.6009 5.60313 27.6545 5.79032C27.9818 6.91882 28.3636 8.99183 28.3636 12.5C28.3636 16.0082 27.9818 18.0812 27.6545 19.2097Z" fill="white"/>
</svg>
